# Blender 5.1.2
# www.blender.org
mtllib SM_BananaTree.mtl
o SM_BananaTree
v -0.077949 2.088330 0.277672
v -0.270939 2.011188 0.170631
v -0.178694 1.835803 0.109944
v -0.311181 2.174816 0.210381
v 0.097006 1.825378 0.170403
v 0.161101 2.023457 0.226380
v -0.089139 2.296772 0.402504
v 0.181122 2.164391 0.307175
v -0.049142 1.812044 0.164064
v -0.039436 1.702708 0.106209
v -0.019686 1.694733 0.113809
v -0.057652 1.693480 0.105504
v -0.040231 1.420017 0.020518
v -0.040964 1.672822 0.115313
v -0.017550 1.145217 -0.031013
v 0.008534 1.146523 -0.044462
v -0.028078 1.105159 -0.059260
v 0.181366 2.337267 0.392677
v 0.143398 2.475610 0.518845
v -0.107802 2.448432 0.513756
v 0.092702 2.626021 0.634128
v -0.129156 2.593636 0.641059
v 0.025453 2.714061 0.742083
v -0.044904 2.773995 0.788732
v -0.147126 2.690753 0.746845
v -0.305950 2.724486 0.672279
v -0.169886 2.803845 0.883860
v -0.272043 2.761726 0.767354
v -0.339338 2.613752 0.578379
v -0.346749 2.486035 0.422412
v -0.348647 2.324999 0.320493
v -0.241260 2.451191 -0.227493
v -0.157060 2.405690 -0.294403
v -0.137894 2.329624 -0.226847
v -0.174424 2.480892 -0.333417
v -0.210797 2.340695 -0.106566
v -0.253823 2.439322 -0.102328
v -0.304855 2.545590 -0.269978
v -0.299598 2.505322 -0.117610
v -0.183676 2.324090 -0.172691
v -0.154535 2.274410 -0.149797
v -0.161070 2.271466 -0.141066
v -0.150956 2.268620 -0.157402
v -0.157637 2.259103 -0.149354
v -0.065849 2.019495 -0.074321
v -0.075837 2.010081 -0.070406
v -0.073770 2.013353 -0.056252
v -0.031167 1.813761 -0.026471
v -0.044430 1.779756 -0.023605
v -0.012507 1.636324 -0.009946
v -0.032346 1.648858 0.029321
v -0.040238 1.804564 -0.005744
v -0.047901 1.635394 -0.002669
v -0.345388 2.585327 -0.145603
v -0.403059 2.643317 -0.194777
v -0.392239 2.650232 -0.338848
v -0.453915 2.706950 -0.249246
v -0.496665 2.739195 -0.304950
v -0.509128 2.760934 -0.350189
v -0.470175 2.715171 -0.384284
v -0.410320 2.724689 -0.449798
v -0.534632 2.761223 -0.425868
v -0.461812 2.739940 -0.451899
v -0.357152 2.673318 -0.441321
v -0.278406 2.619020 -0.409634
v -0.224982 2.545653 -0.380886
v -0.425409 2.240875 -0.209828
v -0.327358 2.192351 -0.327028
v -0.279264 2.082771 -0.250345
v -0.365373 2.297879 -0.365962
v -0.345946 2.079495 -0.068514
v -0.408296 2.210463 -0.039901
v -0.527646 2.369382 -0.239085
v -0.477698 2.298685 -0.040650
v -0.326129 2.065906 -0.166345
v -0.278003 1.997880 -0.149100
v -0.284305 1.992423 -0.136021
v -0.274886 1.991050 -0.160931
v -0.193998 1.814756 -0.127937
v -0.281193 1.976671 -0.149511
v -0.135994 1.634432 -0.094388
v -0.129628 1.637573 -0.075534
v -0.112242 1.609708 -0.096967
v -0.059233 1.349535 -0.041232
v -0.053069 1.365003 -0.070336
v -0.068228 1.317188 -0.067062
v -0.013515 1.122231 -0.074065
v -0.030460 1.133663 -0.014680
v -0.059152 1.117419 -0.055172
v -0.551301 2.407387 -0.056801
v -0.645289 2.487307 -0.100904
v -0.669504 2.512806 -0.296349
v -0.731835 2.576031 -0.153224
v -0.806028 2.622625 -0.213041
v -0.836081 2.656130 -0.267953
v -0.790158 2.600240 -0.329321
v -0.727608 2.624851 -0.431770
v -0.890579 2.662513 -0.362879
v -0.798320 2.641880 -0.419352
v -0.650897 2.557919 -0.440352
v -0.533418 2.486541 -0.424788
v -0.449717 2.387429 -0.408828
v -0.193438 2.774740 0.181889
v -0.268971 2.724692 0.080358
v -0.197879 2.628053 0.067687
v -0.306995 2.817090 0.093505
v -0.063583 2.631706 0.162458
v -0.051056 2.747920 0.208123
v -0.237158 2.892334 0.247495
v -0.065052 2.828624 0.256793
v -0.139694 2.618229 0.125899
v -0.116427 2.556524 0.096442
v -0.107209 2.552516 0.104943
v -0.125583 2.550452 0.091887
v -0.084505 2.394455 0.048684
v -0.117915 2.538910 0.100807
v -0.048088 2.237118 0.024605
v -0.031171 2.239239 0.023305
v -0.045507 2.214107 0.006844
v 0.006301 1.989878 -0.001281
v -0.015869 2.002312 -0.014083
v -0.017532 1.963329 0.003177
v -0.015384 1.793845 -0.025895
v 0.029805 1.805154 0.000025
v -0.010032 1.793934 0.015887
v -0.092158 2.926957 0.303692
v -0.147264 3.002768 0.363550
v -0.312224 3.026021 0.337898
v -0.207283 3.085321 0.414760
v -0.271623 3.131187 0.457933
v -0.322521 3.162045 0.467367
v -0.363909 3.110601 0.421287
v -0.433603 3.125508 0.345542
v -0.412161 3.172121 0.490259
v -0.438605 3.146273 0.404416
v -0.425197 3.062093 0.286994
v -0.388136 2.991312 0.200945
v -0.358763 2.900164 0.144935
v -0.033520 2.540339 -0.350915
v 0.167720 2.463515 -0.330970
v 0.108814 2.310095 -0.232125
v 0.190895 2.610117 -0.391264
v -0.146169 2.313234 -0.174849
v -0.215705 2.496767 -0.210569
v -0.066629 2.725669 -0.474239
v -0.259791 2.623835 -0.280213
v -0.021652 2.292889 -0.225415
v -0.010485 2.195513 -0.165616
v -0.030253 2.188908 -0.163745
v 0.004769 2.185995 -0.171463
v 0.015055 1.939062 -0.074538
v -0.013689 2.167409 -0.171749
v 0.007790 1.689522 -0.003473
v -0.008756 1.692893 0.017829
v 0.026442 1.653393 0.018863
v -0.288168 2.778992 -0.363704
v -0.301519 2.898077 -0.493675
v -0.095880 2.936009 -0.661210
v -0.299573 3.028107 -0.620324
v -0.282804 3.100038 -0.742931
v -0.240286 3.148945 -0.813486
v -0.140797 3.068427 -0.812367
v 0.022507 3.094180 -0.814037
v -0.171913 3.164552 -0.943748
v -0.041991 3.125700 -0.883018
v 0.083852 2.994855 -0.740724
v 0.147219 2.884465 -0.604190
v 0.183775 2.740954 -0.508427
v 0.369758 2.317341 -0.179557
v 0.460075 2.225434 -0.002179
v 0.340856 2.072127 -0.009887
v 0.526822 2.373420 -0.004662
v 0.154026 2.091469 -0.196650
v 0.150250 2.282583 -0.262506
v 0.460793 2.509770 -0.261475
v 0.188327 2.415642 -0.328894
v 0.264306 2.063522 -0.118972
v 0.217394 1.962957 -0.083953
v 0.204993 1.957592 -0.100301
v 0.230483 1.952423 -0.074742
v 0.148680 1.699885 -0.030909
v 0.220433 1.934906 -0.091975
v 0.079515 1.446504 -0.016227
v 0.052372 1.450560 -0.018625
v 0.069822 1.408194 0.009246
v -0.021368 1.049164 -0.011326
v -0.003993 1.061204 0.008336
v 0.010387 1.025774 0.013251
v -0.039559 0.750512 -0.012568
v 0.000363 0.730926 0.016821
v 0.003415 0.734623 -0.050872
v -0.068578 0.746554 -0.043936
v 0.016889 1.005757 -0.014133
v 0.247249 2.576338 -0.387368
v 0.353511 2.700596 -0.460636
v 0.545599 2.648562 -0.331938
v 0.465380 2.834796 -0.518267
v 0.640028 2.780977 -0.414077
v 0.580789 2.909156 -0.565121
v 0.665092 2.957289 -0.563465
v 0.716499 2.869050 -0.483477
v 0.806622 2.883930 -0.343006
v 0.813972 2.971348 -0.574299
v 0.831447 2.921785 -0.433180
v 0.775206 2.777648 -0.257939
v 0.690496 2.658602 -0.137771
v 0.625675 2.508840 -0.064861
v 0.273130 2.405156 0.293265
v 0.047032 2.345382 0.345506
v 0.056560 2.168192 0.228710
v 0.060633 2.510238 0.409765
v 0.303469 2.139402 0.080309
v 0.409644 2.333146 0.084928
v 0.371966 2.606295 0.402481
v 0.494566 2.468244 0.136749
v 0.188611 2.132985 0.177452
v 0.144932 2.026581 0.123173
v 0.164185 2.016838 0.114703
v 0.129935 2.018058 0.135050
v 0.057088 1.746550 0.048711
v 0.147196 1.995311 0.129883
v 0.011298 1.470256 -0.016370
v 0.021555 1.471695 -0.044644
v -0.020125 1.432577 -0.031657
v 0.571115 2.636351 0.207185
v 0.644020 2.767094 0.333434
v 0.450222 2.751168 0.504578
v 0.701034 2.911750 0.460939
v 0.536995 2.888050 0.620303
v 0.734484 2.994256 0.592140
v 0.720240 3.054085 0.678620
v 0.606629 2.977802 0.715708
v 0.439479 3.026442 0.772588
v 0.695960 3.081081 0.838426
v 0.534546 3.053830 0.821316
v 0.338421 2.923986 0.721516
v 0.211949 2.808957 0.605210
v 0.123909 2.654560 0.524127
v -0.343259 2.477291 0.079625
v -0.321763 2.406882 -0.104466
v -0.232128 2.266272 -0.048905
v -0.376644 2.541244 -0.126668
v -0.183720 2.269148 0.185668
v -0.217566 2.437358 0.248817
v -0.456799 2.647148 0.107991
v -0.282090 2.553816 0.288102
v -0.228065 2.250502 0.070756
v -0.173089 2.161257 0.061479
v -0.171691 2.155203 0.079625
v -0.178203 2.152533 0.047408
v -0.089220 1.926218 0.039533
v -0.178760 2.135499 0.064318
v -0.024214 1.697513 0.047327
v -0.004959 1.700602 0.062830
v -0.003448 1.664400 0.030592
v -0.359052 2.696018 0.312771
v -0.478366 2.805160 0.322926
v -0.628601 2.839926 0.131806
v -0.594392 2.924334 0.319117
v -0.706477 2.990259 0.301790
v -0.770451 3.035082 0.261699
v -0.767834 2.961287 0.170548
v -0.766753 2.984890 0.020876
v -0.888725 3.049386 0.196961
v -0.830996 3.013778 0.078876
v -0.698590 2.893857 -0.034166
v -0.572461 2.792685 -0.090049
v -0.484122 2.661156 -0.122017
v -0.148607 -0.000000 0.144680
v 0.151328 -0.000000 0.144680
v -0.148607 -0.000000 -0.139029
v 0.151328 -0.000000 -0.139029
v -0.148607 0.080297 0.144680
v 0.151328 0.080297 0.144680
v -0.148607 0.080297 -0.139029
v 0.151328 0.080297 -0.139029
v -0.006024 0.080297 -0.176969
v -0.006024 0.080297 0.190320
v -0.006024 -0.000000 0.190320
v -0.006024 -0.000000 -0.176969
v -0.197499 0.080297 -0.012327
v -0.008129 2.250754 -0.025866
v 0.204108 0.080297 -0.012327
v 0.204108 -0.000000 -0.012327
v -0.197499 -0.000000 -0.012327
v -0.109707 0.283931 0.104630
v -0.010808 0.273283 0.130509
v 0.098335 0.273283 0.098852
v 0.134945 0.273283 -0.010051
v 0.098335 0.273283 -0.097934
v -0.010808 0.273283 -0.124250
v -0.109707 0.273283 -0.097934
v -0.143619 0.283931 -0.010002
v -0.075530 0.321144 0.073428
v -0.009509 0.322071 0.095653
v 0.063352 0.321144 0.073428
v 0.087792 0.317954 -0.003031
v 0.063352 0.315380 -0.064732
v -0.009509 0.314609 -0.083208
v -0.075530 0.315379 -0.064732
v -0.098169 0.317954 -0.003031
v -0.085272 0.533406 0.074053
v -0.009739 0.534522 0.099480
v 0.073619 0.533406 0.074053
v 0.101579 0.529568 -0.013422
v 0.073619 0.526470 -0.084012
v -0.009739 0.525543 -0.105149
v -0.085272 0.526470 -0.084012
v -0.111173 0.529568 -0.013422
v -0.070889 0.546070 0.058063
v -0.009297 0.547013 0.078796
v 0.058676 0.546070 0.058063
v 0.081474 0.542828 -0.013266
v 0.058675 0.540212 -0.070827
v -0.009297 0.539428 -0.088061
v -0.070888 0.540212 -0.070826
v -0.092007 0.542828 -0.013266
v -0.087340 0.763789 0.064684
v -0.009778 0.764959 0.090795
v 0.075818 0.763789 0.064684
v 0.104530 0.759762 -0.025139
v 0.075818 0.756513 -0.097625
v -0.009778 0.755540 -0.119330
v -0.087340 0.756513 -0.097625
v -0.113936 0.759762 -0.025139
v -0.076638 0.773214 0.052913
v -0.009473 0.774228 0.075523
v 0.064649 0.773214 0.052913
v 0.089511 0.769728 -0.024870
v 0.064649 0.766914 -0.087639
v -0.009473 0.766071 -0.106435
v -0.076638 0.766914 -0.087639
v -0.099669 0.769728 -0.024870
v -0.063551 0.958529 0.030393
v -0.008881 0.960911 0.048001
v 0.051417 0.958529 0.030408
v 0.074404 0.950335 -0.032889
v 0.055216 0.943723 -0.087325
v -0.009107 0.941743 -0.104644
v -0.067285 0.943723 -0.087287
v -0.084933 0.950335 -0.032884
v -0.070907 1.076929 0.027575
v -0.008959 1.080163 0.048079
v 0.059388 1.076929 0.027576
v 0.083469 1.065802 -0.044108
v 0.061010 1.056823 -0.103398
v -0.009040 1.054134 -0.121423
v -0.072497 1.056823 -0.103397
v -0.093258 1.065802 -0.044107
v -0.062169 1.087105 0.017645
v -0.008709 1.089906 0.035372
v 0.050278 1.087105 0.017648
v 0.070905 1.077470 -0.044215
v 0.051465 1.069695 -0.095201
v -0.008771 1.067366 -0.110638
v -0.063338 1.069695 -0.095196
v -0.081304 1.077470 -0.044212
v -0.060794 1.220472 0.013409
v -0.008656 1.218328 0.030884
v 0.048883 1.220472 0.013411
v 0.068337 1.227845 -0.046905
v 0.049106 1.233796 -0.095782
v -0.008667 1.235577 -0.110422
v -0.061012 1.233795 -0.095777
v -0.078813 1.227845 -0.046902
v -0.074069 1.394617 0.035551
v -0.008993 1.391827 0.057247
v 0.062815 1.394617 0.035552
v 0.087657 1.404215 -0.039798
v 0.063927 1.411959 -0.101603
v -0.009045 1.414278 -0.120416
v -0.075151 1.411959 -0.101601
v -0.097097 1.404214 -0.039796
v -0.057270 1.401157 0.017863
v -0.008517 1.399073 0.034132
v 0.045278 1.401157 0.017863
v 0.063776 1.408327 -0.038586
v 0.045981 1.414113 -0.084785
v -0.008556 1.415845 -0.098911
v -0.057954 1.414113 -0.084781
v -0.074421 1.408327 -0.038585
v -0.068240 1.632431 0.040528
v -0.008782 1.629742 0.060505
v 0.056834 1.632431 0.040528
v 0.078844 1.641681 -0.028195
v 0.056834 1.649146 -0.083653
v -0.008782 1.651381 -0.100260
v -0.068240 1.649146 -0.083653
v -0.088628 1.641681 -0.028195
v -0.056707 1.649568 0.029074
v -0.008454 1.649555 0.045333
v 0.044797 1.649568 0.029075
v 0.062660 1.649613 -0.026855
v 0.044797 1.649649 -0.071990
v -0.008454 1.649659 -0.085505
v -0.056707 1.649649 -0.071990
v -0.073253 1.649613 -0.026855
v -0.055386 1.923176 0.028121
v -0.008269 1.923160 0.043997
v 0.043728 1.923176 0.028121
v 0.061170 1.923231 -0.026491
v 0.043728 1.923276 -0.070563
v -0.008269 1.923289 -0.083759
v -0.055386 1.923276 -0.070563
v -0.071542 1.923231 -0.026491
v -0.048650 1.948021 0.020229
v -0.008056 1.948008 0.033907
v 0.036742 1.948021 0.020229
v 0.051769 1.948069 -0.026822
v 0.036742 1.948107 -0.064792
v -0.008056 1.948119 -0.076162
v -0.048650 1.948107 -0.064792
v -0.062569 1.948069 -0.026822
v -0.048005 2.204283 0.019189
v -0.008129 2.204270 0.032625
v 0.035878 2.204283 0.019189
v 0.050639 2.204332 -0.027031
v 0.035878 2.204370 -0.064329
v -0.008129 2.204382 -0.075498
v -0.048005 2.204370 -0.064330
v -0.061679 2.204332 -0.027031
vn 0.3633 0.3061 -0.8799
vn 0.2938 0.4439 -0.8465
vn 0.4175 0.3779 -0.8264
vn 0.4176 0.3778 -0.8264
vn 0.4014 0.4842 -0.7775
vn 0.0033 0.3883 -0.9215
vn 0.0031 0.3822 -0.9241
vn -0.1207 0.3086 -0.9435
vn -0.1207 0.3085 -0.9435
vn -0.0466 0.4991 -0.8653
vn -0.0477 0.5086 -0.8597
vn -0.0476 0.5086 -0.8597
vn -0.0553 0.5079 -0.8597
vn -0.1901 0.4480 -0.8736
vn 0.4713 0.4468 -0.7604
vn 0.0023 0.3983 -0.9173
vn 0.4175 0.3778 -0.8264
vn -0.2124 0.2936 0.9320
vn -0.1892 0.2937 0.9370
vn -0.1125 0.2925 -0.9496
vn -0.7035 -0.2489 0.6657
vn 0.4560 -0.2168 0.8632
vn -0.9089 -0.1503 0.3889
vn -0.2352 0.2929 0.9267
vn 0.3167 -0.2483 0.9155
vn 0.4318 0.2575 -0.8644
vn 0.3570 0.2797 -0.8912
vn 0.3652 0.2725 -0.8901
vn 0.1055 0.2509 -0.9623
vn -0.8186 -0.1712 0.5483
vn -0.8186 -0.1712 0.5482
vn 0.4402 0.2602 -0.8594
vn -0.0975 0.4384 -0.8935
vn -0.1207 0.6493 -0.7509
vn -0.1208 0.6493 -0.7509
vn -0.0491 0.5925 -0.8040
vn -0.0476 0.5879 -0.8075
vn -0.0485 0.5970 -0.8008
vn -0.0491 0.5926 -0.8040
vn -0.1257 0.7229 -0.6794
vn -0.1264 0.7302 -0.6714
vn -0.1182 0.7243 -0.6793
vn -0.1217 0.6455 -0.7540
vn -0.0982 0.5360 -0.8385
vn -0.1164 0.7199 -0.6842
vn 0.4169 0.7024 -0.5769
vn 0.3865 0.8031 -0.4534
vn -0.3168 0.7053 -0.6342
vn 0.3346 0.7529 -0.5667
vn 0.3347 0.7530 -0.5666
vn 0.2811 0.5684 -0.7733
vn 0.3405 0.7186 -0.6064
vn 0.2699 0.6560 -0.7048
vn 0.3104 0.5056 -0.8050
vn 0.3698 0.5759 -0.7291
vn 0.2988 0.6111 -0.7330
vn 0.6937 0.4505 0.5620
vn 0.6761 0.5759 0.4595
vn 0.6761 0.5759 0.4596
vn 0.6179 0.5290 0.5817
vn 0.6234 0.5286 0.5761
vn 0.5720 0.6251 0.5311
vn 0.8423 0.4895 0.2254
vn 0.8423 0.4896 0.2255
vn 0.8490 0.4785 0.2239
vn 0.9113 0.3901 0.1319
vn 0.7992 0.5854 0.1364
vn 0.7940 0.5936 0.1311
vn 0.7959 0.5901 0.1355
vn 0.7940 0.5936 0.1310
vn 0.8596 0.5109 0.0103
vn 0.5368 0.5942 0.5990
vn 0.5368 0.5941 0.5990
vn 0.8393 0.4952 0.2242
vn 0.9183 0.3649 0.1537
vn -0.8292 0.1501 -0.5385
vn -0.8414 0.1516 -0.5187
vn -0.4046 -0.4069 -0.8190
vn -0.4046 -0.4068 -0.8190
vn 0.7736 0.4160 0.4780
vn 0.6568 0.4172 0.6281
vn -0.0691 -0.3234 -0.9437
vn -0.1413 -0.2477 -0.9585
vn 0.8521 0.2496 0.4599
vn 0.8399 0.2505 0.4814
vn 0.8521 0.2496 0.4600
vn 0.2150 -0.1628 -0.9629
vn 0.0179 -0.0894 -0.9958
vn 0.8864 0.1416 0.4407
vn 0.9014 0.1316 0.4126
vn 0.8793 0.1434 0.4541
vn 0.8400 0.2505 0.4814
vn -0.9487 -0.0644 0.3096
vn -0.9487 -0.0644 0.3097
vn -0.9742 -0.0010 0.2258
vn -0.9791 -0.1144 0.1683
vn 0.0962 -0.9334 0.3458
vn 0.0960 -0.9333 0.3459
vn 0.0961 -0.9334 0.3458
vn -0.9093 0.0776 0.4088
vn -0.1932 -0.1394 -0.9712
vn -0.9479 -0.2505 0.1969
vn -0.9479 -0.2504 0.1969
vn -0.9519 -0.3019 0.0531
vn -0.8159 0.1478 -0.5590
vn 0.8451 0.5228 0.1115
vn 0.7086 0.7055 0.0058
vn 0.7086 0.7056 0.0057
vn 0.7400 0.6668 0.0882
vn 0.7339 0.6742 0.0827
vn 0.7401 0.6667 0.0880
vn 0.6403 0.7676 -0.0294
vn 0.6358 0.7705 -0.0458
vn 0.7847 0.6147 0.0804
vn 0.7846 0.6147 0.0804
vn 0.6480 0.7615 -0.0130
vn 0.3887 0.7926 0.4697
vn 0.3886 0.7927 0.4697
vn 0.2509 0.8983 0.3608
vn 0.2509 0.8983 0.3609
vn 0.2508 0.8982 0.3609
vn 0.6563 0.7218 -0.2195
vn 0.6564 0.7218 -0.2194
vn 0.3756 0.8548 0.3580
vn 0.3757 0.8548 0.3581
vn 0.6134 0.6970 0.3713
vn 0.4389 0.8309 0.3419
vn 0.4389 0.8309 0.3420
vn 0.6280 0.6324 0.4536
vn 0.4951 0.7277 0.4747
vn 0.5566 0.7268 0.4025
vn 0.5566 0.7268 0.4024
vn 0.7666 0.4494 0.4586
vn 0.7302 0.5761 0.3672
vn 0.6970 0.5204 0.4933
vn 0.6376 0.6143 0.4648
vn 0.8533 0.5112 0.1025
vn 0.8487 0.5199 0.0977
vn 0.9009 0.4338 -0.0135
vn 0.9009 0.4339 -0.0135
vn 0.7816 0.6230 0.0315
vn 0.7778 0.6277 0.0313
vn 0.8225 0.5586 -0.1068
vn 0.6162 0.5743 0.5389
vn 0.6162 0.5744 0.5389
vn 0.8486 0.5199 0.0977
vn 0.7012 0.5112 0.4969
vn -0.9234 0.1496 -0.3534
vn -0.9320 0.1496 -0.3301
vn -0.9234 0.1497 -0.3534
vn 0.9092 0.4163 -0.0035
vn -0.5205 -0.3776 -0.7659
vn -0.5204 -0.3776 -0.7659
vn -0.8815 -0.3143 0.3524
vn -0.2293 -0.2505 -0.9406
vn -0.9153 0.1419 -0.3770
vn -0.9081 -0.3621 0.2101
vn -0.9081 -0.3622 0.2101
vn 0.7495 0.4015 0.5264
vn 0.7867 0.4169 0.4553
vn 0.7867 0.4168 0.4553
vn 0.8961 0.3871 0.2171
vn 0.8891 0.2589 0.3775
vn 0.9073 0.2591 0.3313
vn 0.8860 0.2595 0.3843
vn -0.9229 -0.1809 0.3399
vn 0.9073 0.2591 0.3312
vn -0.2803 -0.1729 -0.9442
vn 0.0332 -0.0787 -0.9963
vn -0.1673 -0.0158 -0.9858
vn 0.9491 0.1575 0.2726
vn 0.9569 0.1494 0.2490
vn 0.9587 0.1490 0.2422
vn 0.9442 0.1573 0.2894
vn 0.2013 -0.9503 0.2374
vn -0.8145 -0.0000 0.5801
vn -0.9105 -0.0712 0.4074
vn -0.3750 -0.0711 -0.9243
vn -0.8657 -0.1418 0.4802
vn -0.8656 -0.1418 0.4802
vn -0.8657 -0.1417 0.4801
vn -0.3973 -0.2919 -0.8700
vn 0.7494 0.4015 0.5265
vn 0.8283 0.5602 -0.0122
vn 0.6670 0.7423 -0.0640
vn 0.7121 0.7021 0.0046
vn 0.7146 0.6996 -0.0015
vn 0.5901 0.8029 -0.0845
vn 0.5846 0.8050 -0.1009
vn 0.5902 0.8028 -0.0846
vn 0.7636 0.6453 -0.0229
vn 0.5993 0.7976 -0.0687
vn 0.4385 0.7759 0.4536
vn 0.2771 0.8818 0.3817
vn 0.5730 0.7726 -0.2734
vn 0.4036 0.8439 0.3535
vn 0.6443 0.7004 0.3072
vn 0.4617 0.8275 0.3196
vn 0.6792 0.6299 0.3767
vn 0.5493 0.7148 0.4328
vn 0.5939 0.7261 0.3467
vn 0.5939 0.7261 0.3466
vn 0.6522 0.3632 -0.6653
vn 0.6524 0.3632 -0.6652
vn 0.5588 0.4955 -0.6650
vn 0.6688 0.4405 -0.5988
vn 0.6340 0.5408 -0.5527
vn 0.3324 0.4240 -0.8424
vn 0.3336 0.4181 -0.8449
vn 0.2328 0.3375 -0.9121
vn 0.2480 0.5288 -0.8117
vn 0.2471 0.5382 -0.8058
vn 0.1232 0.4646 -0.8769
vn 0.6921 0.5066 -0.5142
vn 0.6921 0.5066 -0.5141
vn 0.3246 0.4345 -0.8401
vn 0.6688 0.4405 -0.5989
vn 0.6736 0.4385 -0.5949
vn -0.5786 0.2407 0.7793
vn -0.5556 0.2422 0.7954
vn 0.2414 0.3207 -0.9159
vn 0.2415 0.3207 -0.9159
vn -0.8845 -0.3213 0.3384
vn 0.1020 -0.2197 0.9702
vn -0.9734 -0.2289 0.0027
vn -0.5984 0.2386 0.7648
vn -0.0420 -0.2625 0.9640
vn 0.7105 0.3211 -0.6261
vn 0.6541 0.3375 -0.6770
vn 0.6562 0.3310 -0.6781
vn 0.4519 0.2939 -0.8422
vn 0.4520 0.2939 -0.8422
vn 0.4521 0.2938 -0.8422
vn 0.6017 0.1648 -0.7815
vn 0.5595 0.1613 -0.8130
vn 0.6072 0.1642 -0.7774
vn 0.0894 -0.0869 0.9922
vn -0.9888 -0.1427 0.0428
vn -0.9888 -0.1427 0.0429
vn -0.9553 -0.0829 -0.2839
vn -0.9962 0.0045 -0.0873
vn 0.5185 0.0606 -0.8529
vn 0.4890 0.0503 -0.8708
vn 0.5247 0.0605 -0.8491
vn 0.2594 -0.9654 -0.0272
vn 0.3467 0.0889 0.9337
vn 0.1551 0.0300 0.9874
vn -0.9908 -0.0335 0.1310
vn 0.2371 -0.0463 0.9704
vn -0.9511 -0.2507 0.1807
vn 0.7132 0.3240 -0.6216
vn 0.2234 0.4674 -0.8553
vn 0.1228 0.6699 -0.7322
vn 0.2060 0.6257 -0.7523
vn 0.2060 0.6257 -0.7524
vn 0.2071 0.6170 -0.7592
vn 0.0892 0.7334 -0.6739
vn 0.0728 0.7374 -0.6715
vn 0.0892 0.7334 -0.6740
vn 0.1907 0.5641 -0.8034
vn 0.1052 0.7304 -0.6748
vn 0.5699 0.7253 -0.3862
vn 0.4657 0.8461 -0.2594
vn -0.0974 0.7048 -0.7027
vn 0.4642 0.7989 -0.3825
vn 0.4770 0.6322 -0.6105
vn 0.4508 0.7735 -0.4455
vn 0.5570 0.5567 -0.6164
vn 0.5569 0.5567 -0.6164
vn 0.5791 0.6538 -0.4871
vn 0.5791 0.6537 -0.4871
vn 0.5088 0.6584 -0.5547
vn 0.0488 0.3721 0.9269
vn 0.1070 0.5112 0.8528
vn -0.0154 0.4498 0.8930
vn -0.0155 0.4497 0.8930
vn -0.0235 0.5507 0.8344
vn -0.0234 0.5507 0.8344
vn 0.3982 0.4326 0.8089
vn 0.3982 0.4325 0.8089
vn 0.5189 0.3473 0.7811
vn 0.5189 0.3472 0.7811
vn 0.4270 0.5457 0.7210
vn 0.4252 0.5512 0.7179
vn 0.5582 0.4803 0.6766
vn 0.5581 0.4804 0.6766
vn -0.0937 0.5118 0.8540
vn 0.4019 0.4408 0.8026
vn -0.0154 0.4496 0.8931
vn -0.1901 0.2285 -0.9548
vn -0.2177 0.2280 -0.9490
vn 0.5109 0.3306 0.7935
vn 0.5109 0.3308 0.7934
vn 0.3492 -0.3297 -0.8771
vn -0.7832 -0.2367 -0.5750
vn 0.6561 -0.2271 -0.7197
vn -0.1684 0.2277 -0.9591
vn -0.6832 -0.2763 -0.6760
vn -0.6831 -0.2763 -0.6760
vn -0.0145 0.3306 0.9437
vn 0.0593 0.3466 0.9361
vn 0.0593 0.3465 0.9362
vn 0.3121 0.3070 0.8991
vn 0.5071 -0.2524 -0.8241
vn 0.5071 -0.2523 -0.8242
vn -0.0217 0.3316 0.9432
vn 0.4785 0.4806 0.7349
vn 0.4530 0.6806 0.5758
vn 0.4151 0.6326 0.6538
vn 0.4131 0.6371 0.6508
vn 0.4131 0.6371 0.6507
vn 0.4201 0.6293 0.6538
vn 0.4130 0.6373 0.6506
vn 0.4277 0.7469 0.5091
vn 0.4414 0.7464 0.4980
vn 0.4302 0.7434 0.5121
vn 0.4630 0.5747 0.6748
vn 0.4214 0.7402 0.5240
vn -0.1111 0.7326 0.6715
vn -0.1284 0.8523 0.5071
vn 0.5761 0.7190 0.3889
vn 0.5760 0.7190 0.3889
vn 0.5762 0.7189 0.3889
vn -0.0386 0.8042 0.5931
vn 0.1267 0.6386 0.7591
vn 0.0185 0.7827 0.6221
vn 0.0184 0.7827 0.6221
vn 0.0781 0.5658 0.8208
vn 0.0782 0.5658 0.8209
vn -0.0356 0.6607 0.7498
vn 0.0626 0.6667 0.7427
vn 0.0626 0.6668 0.7426
vn -0.7499 0.3512 0.5606
vn -0.6565 0.4767 0.5847
vn -0.7555 0.4294 0.4948
vn -0.7080 0.5313 0.4651
vn -0.7080 0.5314 0.4651
vn -0.4609 0.3925 0.7960
vn -0.4609 0.3924 0.7960
vn -0.4611 0.3826 0.8007
vn -0.3780 0.2969 0.8769
vn -0.3717 0.4956 0.7850
vn -0.3708 0.5051 0.7794
vn -0.3700 0.5007 0.7826
vn -0.3708 0.5051 0.7793
vn -0.2648 0.4238 0.8662
vn -0.7614 0.4978 0.4152
vn -0.4591 0.3985 0.7940
vn -0.7555 0.4294 0.4949
vn 0.7076 0.2625 -0.6561
vn 0.6875 0.2659 -0.6758
vn -0.3944 0.2827 0.8744
vn 0.9222 -0.3305 -0.2008
vn 0.0616 -0.1658 -0.9842
vn 0.9542 -0.2558 0.1552
vn 0.9542 -0.2558 0.1551
vn 0.7270 0.2590 -0.6359
vn 0.2002 -0.2152 -0.9558
vn 0.2002 -0.2153 -0.9558
vn -0.7998 0.3121 0.5128
vn -0.7506 0.3222 0.5769
vn -0.7569 0.3141 0.5731
vn -0.5844 0.2664 0.7665
vn -0.7203 0.1506 0.6771
vn 0.0794 -0.0349 -0.9962
vn -0.7850 0.1552 0.5997
vn -0.7850 0.1552 0.5998
vn -0.2194 0.0426 0.9747
vn -0.3712 -0.0175 0.9284
vn -0.7619 0.0426 0.6463
vn -0.7354 0.0455 0.6761
vn -0.7619 0.0427 0.6462
vn -0.5826 0.0308 0.8122
vn -0.5826 0.0309 0.8122
vn -0.3953 -0.9158 -0.0711
vn -0.1368 -0.9595 0.2463
vn -0.1367 -0.9595 0.2463
vn -0.0740 0.1349 -0.9881
vn 0.0388 0.0996 -0.9943
vn 0.0387 0.0996 -0.9943
vn 0.9976 -0.0553 0.0420
vn 0.9976 -0.0549 0.0419
vn 0.9667 -0.0270 0.2546
vn -0.0647 0.0081 -0.9979
vn -0.0647 0.0082 -0.9979
vn 0.9391 -0.1296 0.3183
vn 0.9775 -0.1492 0.1489
vn 0.9775 -0.1492 0.1488
vn 0.9635 -0.2657 -0.0327
vn -0.8031 0.3104 0.5087
vn -0.3549 0.4299 0.8302
vn -0.2349 0.6350 0.7359
vn -0.3319 0.5876 0.7380
vn -0.3386 0.5820 0.7393
vn -0.3391 0.5866 0.7354
vn -0.3304 0.5919 0.7352
vn -0.3319 0.5876 0.7379
vn -0.1939 0.7078 0.6793
vn -0.1847 0.7159 0.6733
vn -0.2436 0.6306 0.7369
vn -0.2435 0.6306 0.7369
vn -0.3162 0.5305 0.7865
vn -0.2015 0.7074 0.6775
vn -0.5934 0.7462 0.3017
vn -0.5935 0.7462 0.3017
vn -0.4839 0.8473 0.2191
vn -0.4838 0.8473 0.2191
vn -0.0127 0.6694 0.7428
vn -0.5118 0.7888 0.3405
vn -0.5982 0.6010 0.5300
vn -0.5981 0.6010 0.5301
vn -0.5399 0.7564 0.3693
vn -0.5437 0.6854 0.4843
vn -0.5437 0.6855 0.4843
vn -0.6413 0.5415 0.5435
vn -0.6437 0.6206 0.4478
vn -0.6437 0.6206 0.4477
vn -0.5858 0.6430 0.4934
vn -0.2962 0.3695 -0.8808
vn -0.3174 0.5090 -0.8001
vn -0.2220 0.4377 -0.8713
vn -0.2220 0.4378 -0.8713
vn -0.1840 0.5361 -0.8238
vn -0.1840 0.5362 -0.8238
vn -0.5839 0.4703 -0.6617
vn -0.5839 0.4704 -0.6617
vn -0.5865 0.4645 -0.6635
vn -0.6982 0.3992 -0.5942
vn -0.6983 0.3991 -0.5942
vn -0.5739 0.5791 -0.5790
vn -0.5742 0.5866 -0.5711
vn -0.5695 0.5898 -0.5726
vn -0.6908 0.5324 -0.4892
vn -0.1291 0.4947 -0.8594
vn -0.5804 0.4816 -0.6567
vn -0.2193 0.4341 -0.8737
vn -0.2220 0.4376 -0.8713
vn 0.5050 0.2140 0.8361
vn 0.5284 0.2132 0.8218
vn 0.5050 0.2139 0.8362
vn -0.6959 0.3820 -0.6081
vn -0.6959 0.3819 -0.6081
vn -0.0880 -0.2792 0.9562
vn 0.8972 -0.3167 0.3077
vn 0.8972 -0.3167 0.3078
vn -0.4173 -0.1458 0.8970
vn 0.4806 0.2158 0.8500
vn 0.8305 -0.3471 0.4357
vn -0.2487 0.3185 -0.9147
vn -0.3193 0.3454 -0.8825
vn -0.3170 0.3359 -0.8870
vn -0.5465 0.3326 -0.7686
vn -0.2428 -0.1850 0.9523
vn -0.2427 -0.1850 0.9523
vn -0.2416 0.3198 -0.9161
vn -0.6367 0.5230 -0.5666
vn -0.6367 0.5230 -0.5667
vn -0.5381 0.7215 -0.4358
vn -0.5380 0.7215 -0.4359
vn -0.5222 0.6661 -0.5325
vn -0.5275 0.6628 -0.5314
vn -0.5221 0.6728 -0.5242
vn -0.4821 0.7899 -0.3790
vn -0.4790 0.7925 -0.3775
vn -0.4799 0.7878 -0.3861
vn -0.5387 0.7157 -0.4444
vn -0.5388 0.7157 -0.4444
vn -0.5866 0.6190 -0.5223
vn -0.4778 0.7856 -0.3931
vn -0.0166 0.7317 -0.6814
vn 0.0466 0.8268 -0.5606
vn 0.0467 0.8267 -0.5606
vn -0.5953 0.7729 -0.2196
vn -0.0715 0.7888 -0.6105
vn -0.2589 0.6256 -0.7359
vn -0.2588 0.6256 -0.7360
vn -0.0871 0.7568 -0.6478
vn -0.2169 0.7059 -0.6743
vn -0.2726 0.5644 -0.7792
vn -0.2729 0.5644 -0.7791
vn -0.1672 0.6259 -0.7617
vn -0.2233 0.6598 -0.7175
vn -0.2232 0.6599 -0.7174
vn 0.9276 0.3721 -0.0326
vn 0.8545 0.5112 -0.0921
vn 0.8926 0.4498 0.0310
vn 0.8926 0.4497 0.0311
vn 0.8338 0.5507 0.0380
vn 0.8157 0.4326 -0.3840
vn 0.8158 0.4325 -0.3840
vn 0.7901 0.3473 -0.5051
vn 0.7901 0.3472 -0.5052
vn 0.7284 0.5457 -0.4144
vn 0.7252 0.5512 -0.4126
vn 0.6862 0.4803 -0.5463
vn 0.6862 0.4804 -0.5462
vn 0.8522 0.5118 0.1085
vn 0.8094 0.4408 -0.3879
vn 0.8927 0.4496 0.0310
vn -0.9580 0.2285 0.1734
vn -0.9527 0.2280 0.2011
vn 0.8023 0.3306 -0.4970
vn 0.8022 0.3308 -0.4970
vn -0.8709 -0.3297 -0.3645
vn -0.5886 -0.2367 0.7730
vn -0.7082 -0.2271 -0.6685
vn -0.7081 -0.2271 -0.6686
vn -0.9619 0.2277 0.1517
vn -0.6878 -0.2763 0.6713
vn -0.6878 -0.2763 0.6712
vn 0.9433 0.3306 0.0310
vn 0.9370 0.3466 -0.0430
vn 0.9371 0.3465 -0.0429
vn 0.9044 0.3070 -0.2963
vn -0.8152 -0.2524 -0.5214
vn -0.8152 -0.2523 -0.5214
vn 0.9427 0.3316 0.0381
vn 0.7431 0.4806 -0.4656
vn 0.5837 0.6806 -0.4429
vn 0.6610 0.6326 -0.4036
vn 0.6579 0.6371 -0.4017
vn 0.6578 0.6371 -0.4016
vn 0.6611 0.6293 -0.4086
vn 0.6577 0.6373 -0.4016
vn 0.5165 0.7469 -0.4188
vn 0.5057 0.7464 -0.4326
vn 0.5196 0.7434 -0.4212
vn 0.6827 0.5747 -0.4512
vn 0.5312 0.7402 -0.4122
vn 0.6695 0.7326 0.1228
vn 0.5047 0.8523 0.1373
vn 0.3989 0.7190 -0.5692
vn 0.3989 0.7189 -0.5693
vn 0.5924 0.8042 0.0489
vn 0.7612 0.6386 -0.1135
vn 0.6224 0.7827 -0.0076
vn 0.6223 0.7827 -0.0076
vn 0.8221 0.5658 -0.0638
vn 0.7491 0.6607 0.0487
vn 0.7436 0.6667 -0.0496
vn 0.7436 0.6668 -0.0496
vn -0.4563 0.7895 0.4104
vn -0.3049 -0.0000 0.9524
vn 0.9479 -0.0000 0.3186
vn 0.2344 -0.0000 -0.9721
vn -0.9329 -0.0000 -0.3600
vn 0.4226 0.8046 0.4171
vn 0.2786 -0.0000 0.9604
vn -0.2571 -0.0000 -0.9664
vn -0.4317 0.7661 -0.4762
vn 0.9231 -0.0000 -0.3845
vn -0.9548 -0.0000 0.2973
vn 0.3991 0.7793 -0.4831
vn -0.2640 0.2568 0.9297
vn 0.2665 0.2913 0.9188
vn 0.8985 0.3185 0.3021
vn 0.8752 0.3180 -0.3646
vn 0.2262 0.2619 -0.9382
vn -0.2490 0.2495 -0.9358
vn -0.8992 0.2497 -0.3593
vn -0.9291 0.2379 0.2832
vn -0.1788 0.6447 0.7433
vn 0.2355 0.5721 0.7856
vn 0.7071 0.6716 0.2213
vn 0.6332 0.7250 -0.2709
vn 0.1696 0.6925 -0.7012
vn -0.1851 0.6961 -0.6937
vn -0.5822 0.7606 -0.2872
vn -0.6270 0.7596 0.1729
vn -0.3188 -0.0174 0.9477
vn 0.2915 -0.0169 0.9564
vn 0.9509 -0.0469 0.3060
vn 0.9280 -0.0784 -0.3642
vn 0.2456 -0.1000 -0.9642
vn -0.2693 -0.0999 -0.9579
vn -0.9372 -0.0743 -0.3407
vn -0.9574 -0.0448 0.2854
vn -0.1826 0.8437 0.5049
vn 0.1676 0.8426 0.5117
vn 0.5478 0.8251 0.1383
vn 0.5309 0.8108 -0.2464
vn 0.1501 0.7650 -0.6262
vn -0.1639 0.7673 -0.6200
vn -0.5500 0.8007 -0.2375
vn -0.5666 0.8135 0.1315
vn -0.3179 -0.0528 0.9467
vn 0.2907 -0.0520 0.9554
vn 0.9481 -0.0840 0.3068
vn 0.9250 -0.1181 -0.3611
vn 0.2449 -0.1383 -0.9596
vn -0.2685 -0.1385 -0.9533
vn -0.9344 -0.1129 -0.3378
vn -0.9547 -0.0808 0.2863
vn -0.1835 0.8420 0.5074
vn 0.1683 0.8412 0.5139
vn 0.5493 0.8241 0.1386
vn 0.5327 0.8094 -0.2473
vn 0.1504 0.7640 -0.6275
vn -0.1643 0.7659 -0.6216
vn -0.5530 0.7982 -0.2387
vn -0.5693 0.8114 0.1322
vn -0.3139 0.1379 0.9394
vn 0.2870 0.1372 0.9480
vn 0.9448 0.0992 0.3122
vn 0.9331 0.0564 -0.3552
vn 0.2522 0.0123 -0.9676
vn -0.2768 0.0135 -0.9608
vn -0.9418 0.0564 -0.3315
vn -0.9516 0.0967 0.2916
vn -0.3107 0.0012 0.9505
vn 0.2840 0.0017 0.9588
vn 0.9410 -0.0484 0.3350
vn 0.9386 -0.1004 -0.3300
vn 0.2564 -0.1459 -0.9555
vn -0.2815 -0.1448 -0.9486
vn -0.9471 -0.0928 -0.3072
vn -0.9485 -0.0448 0.3137
vn -0.2352 0.7741 0.5878
vn 0.2156 0.7734 0.5962
vn 0.6785 0.7257 0.1143
vn 0.6372 0.6883 -0.3467
vn 0.1730 0.6187 -0.7663
vn -0.1892 0.6213 -0.7604
vn -0.6574 0.6757 -0.3335
vn -0.6971 0.7091 0.1063
vn -0.3163 0.0333 0.9481
vn 0.2892 0.0334 0.9567
vn 0.9501 0.0209 0.3113
vn 0.9324 0.0109 -0.3613
vn 0.2470 0.0006 -0.9690
vn -0.2709 0.0009 -0.9626
vn -0.9413 0.0109 -0.3374
vn -0.9566 0.0201 0.2906
vn -0.3191 -0.1432 0.9368
vn 0.2918 -0.1434 0.9457
vn 0.9485 -0.1146 0.2954
vn 0.9249 -0.0877 -0.3699
vn 0.2460 -0.0528 -0.9678
vn -0.2697 -0.0536 -0.9614
vn -0.9344 -0.0842 -0.3460
vn -0.9551 -0.1090 0.2754
vn -0.0583 0.9530 0.2973
vn 0.0535 0.9526 0.2995
vn 0.1767 0.9674 0.1812
vn 0.1719 0.9835 0.0571
vn 0.0507 0.9960 -0.0736
vn -0.0552 0.9959 -0.0712
vn -0.1808 0.9818 0.0587
vn -0.1858 0.9661 0.1795
vn -0.3200 -0.1077 0.9413
vn 0.2927 -0.1080 0.9501
vn 0.9516 -0.0757 0.2980
vn 0.9284 -0.0423 -0.3690
vn 0.2476 -0.0060 -0.9688
vn -0.2715 -0.0065 -0.9624
vn -0.9376 -0.0405 -0.3452
vn -0.9579 -0.0717 0.2779
vn -0.2370 0.6169 0.7505
vn 0.2171 0.6150 0.7580
vn 0.5927 0.7667 0.2467
vn 0.2710 0.9619 -0.0357
vn 0.0065 0.9988 0.0490
vn -0.0071 0.9988 0.0493
vn -0.2844 0.9581 -0.0330
vn -0.6128 0.7537 0.2378
vn -0.3193 0.0048 0.9476
vn 0.2920 0.0045 0.9564
vn 0.9526 0.0048 0.3042
vn 0.9298 0.0056 -0.3680
vn 0.2460 0.0060 -0.9693
vn -0.2697 0.0063 -0.9629
vn -0.9389 0.0063 -0.3442
vn -0.9589 0.0056 0.2837
vn -0.2976 0.3614 0.8836
vn 0.2723 0.3600 0.8923
vn 0.8949 0.3425 0.2861
vn 0.8785 0.3279 -0.3474
vn 0.2361 0.2825 -0.9298
vn -0.2586 0.2847 -0.9231
vn -0.8905 0.3173 -0.3261
vn -0.9049 0.3305 0.2681
vn -0.3193 0.0046 0.9476
vn 0.2920 0.0049 0.9564
vn 0.9526 0.0044 0.3042
vn 0.9298 0.0038 -0.3680
vn 0.2460 0.0026 -0.9693
vn -0.2697 0.0024 -0.9629
vn -0.9389 0.0030 -0.3442
vn -0.9589 0.0036 0.2837
vt 0.225780 0.310559
vt 0.153936 0.339861
vt 0.147854 0.289713
vt 0.175093 0.400935
vt 0.220160 0.403041
vt 0.236145 0.232723
vt 0.268232 0.408217
vt 0.221576 0.922936
vt 0.221576 0.815701
vt 0.270503 0.883592
vt 0.297919 0.353267
vt 0.313603 0.303286
vt 0.216493 0.442416
vt 0.210313 0.443535
vt 0.223207 0.443909
vt 0.918108 0.253110
vt 0.922646 0.251531
vt 0.922985 0.260921
vt 0.310298 0.722310
vt 0.316173 0.720215
vt 0.316173 0.809305
vt 0.475542 0.589918
vt 0.482206 0.584626
vt 0.484205 0.677428
vt 0.925224 0.376330
vt 0.916244 0.379898
vt 0.475542 0.768322
vt 0.916244 0.259854
vt 0.207346 0.610441
vt 0.203065 0.528182
vt 0.193415 0.621065
vt 0.482220 0.783503
vt 0.324031 0.243406
vt 0.324031 0.180007
vt 0.241698 0.170814
vt 0.319467 0.115354
vt 0.307442 0.065939
vt 0.247328 0.106650
vt 0.289443 0.036675
vt 0.251332 0.058866
vt 0.195630 0.057040
vt 0.214147 0.029222
vt 0.256359 0.000000
vt 0.175484 0.101948
vt 0.159005 0.166496
vt 0.147206 0.227154
vt 0.908716 0.543865
vt 0.875302 0.559896
vt 0.867854 0.532759
vt 0.888578 0.591588
vt 0.911917 0.592912
vt 0.911077 0.503678
vt 0.932334 0.593568
vt 0.911218 0.928882
vt 0.911218 0.874127
vt 0.934084 0.903768
vt 0.939656 0.562401
vt 0.944780 0.536122
vt 0.744288 0.751815
vt 0.747240 0.771556
vt 0.744636 0.772696
vt 0.915499 0.614275
vt 0.911857 0.613409
vt 0.909561 0.614376
vt 0.744288 0.863797
vt 0.950162 -0.000000
vt 0.951962 0.001770
vt 0.948683 0.004874
vt 0.961329 0.090144
vt 0.923517 0.705141
vt 0.917358 0.702393
vt 0.957497 0.092908
vt 0.960381 0.160718
vt 0.928028 0.766149
vt 0.954904 0.171325
vt 0.958889 0.220144
vt 0.947527 0.814836
vt 0.934597 0.815740
vt 0.935181 0.769838
vt 0.935968 0.091743
vt 0.939340 0.170105
vt 0.931343 0.163909
vt 0.934468 0.216858
vt 0.931308 0.092022
vt 0.802959 0.383534
vt 0.814575 0.373980
vt 0.814575 0.386500
vt 0.947050 0.217888
vt 0.947050 0.219100
vt 0.947050 0.003281
vt 0.943999 0.000000
vt 0.947050 0.000989
vt 0.707929 0.944495
vt 0.707929 0.895117
vt 0.731046 0.924191
vt 0.947527 0.473477
vt 0.946535 0.504561
vt 0.913097 0.453206
vt 0.945443 0.441389
vt 0.942430 0.418295
vt 0.934692 0.404394
vt 0.919600 0.417510
vt 0.890144 0.415960
vt 0.901716 0.403199
vt 0.605684 0.940782
vt 0.588176 0.940782
vt 0.596635 0.915887
vt 0.924429 0.389324
vt 0.881090 0.438884
vt 0.870931 0.470127
vt 0.867178 0.501430
vt 0.800454 0.214329
vt 0.758578 0.240097
vt 0.743655 0.204805
vt 0.781578 0.281278
vt 0.813230 0.279888
vt 0.797147 0.159486
vt 0.704302 0.872285
vt 0.676272 0.866386
vt 0.677477 0.801346
vt 0.723966 0.831583
vt 0.728778 0.799891
vt 0.676272 0.751815
vt 0.313246 0.621065
vt 0.317111 0.646783
vt 0.313246 0.648193
vt 0.953317 0.220144
vt 0.955119 0.249695
vt 0.950322 0.247925
vt 0.679249 0.895117
vt 0.813771 0.309078
vt 0.880932 0.000000
vt 0.884448 0.001437
vt 0.882975 0.006796
vt 0.315115 0.711385
vt 0.842847 0.004407
vt 0.847043 0.000000
vt 0.856169 0.063878
vt 0.870543 0.123824
vt 0.863909 0.124219
vt 0.858019 0.127257
vt 0.878350 0.002583
vt 0.955119 0.372907
vt 0.947050 0.311050
vt 0.141848 0.824766
vt 0.134783 0.833046
vt 0.134783 0.760832
vt 0.884448 0.295334
vt 0.876107 0.376529
vt 0.876487 0.301943
vt 0.864177 0.221067
vt 0.884448 0.383683
vt 0.863909 0.137017
vt 0.862704 0.221008
vt 0.854584 0.235259
vt 0.859230 0.302070
vt 0.570987 0.818490
vt 0.587608 0.895846
vt 0.570987 0.899914
vt 0.579083 0.823525
vt 0.897675 0.367628
vt 0.897675 0.388473
vt 0.884448 0.377370
vt 0.875259 0.229611
vt 0.867456 0.293338
vt 0.842847 0.300480
vt 0.731489 0.759908
vt 0.839897 0.115007
vt 0.842847 0.158042
vt 0.792399 0.090061
vt 0.832499 0.071172
vt 0.825800 0.039168
vt 0.184519 0.887040
vt 0.200663 0.869982
vt 0.200663 0.905338
vt 0.796289 0.039855
vt 0.756226 0.041909
vt 0.770412 0.022360
vt 0.190918 0.928500
vt 0.166774 0.948501
vt 0.166774 0.912502
vt 0.799203 0.000000
vt 0.747650 0.074326
vt 0.738128 0.118979
vt 0.738128 0.161957
vt 0.691381 0.935718
vt 0.676272 0.895117
vt 0.707929 0.895117
vt 0.862199 0.860098
vt 0.862199 0.921375
vt 0.836508 0.895931
vt 0.654477 0.843973
vt 0.663448 0.898030
vt 0.638697 0.903095
vt 0.371367 0.719221
vt 0.373376 0.764978
vt 0.331569 0.763027
vt 0.405516 0.815170
vt 0.377514 0.818673
vt 0.419347 0.779595
vt 0.423349 0.748987
vt 0.142753 0.760832
vt 0.145380 0.783707
vt 0.141848 0.785353
vt 0.220734 0.755861
vt 0.221554 0.778764
vt 0.217649 0.777870
vt 0.382613 0.841647
vt 0.663448 0.922786
vt 0.920148 -0.000000
vt 0.922676 0.002251
vt 0.918726 0.005821
vt 0.145380 0.834808
vt 0.927270 0.053437
vt 0.576954 0.617214
vt 0.561323 0.694506
vt 0.556943 0.696956
vt 0.926718 0.104981
vt 0.916244 0.001047
vt 0.414270 0.890801
vt 0.418739 0.841647
vt 0.418739 0.891801
vt 0.221554 0.886360
vt 0.215071 0.833795
vt 0.324032 0.875455
vt 0.316829 0.883474
vt 0.316829 0.828761
vt 0.937716 0.217888
vt 0.931656 0.297387
vt 0.931308 0.226309
vt 0.557499 0.761903
vt 0.938449 0.301623
vt 0.931308 0.112716
vt 0.929776 0.182406
vt 0.924112 0.195182
vt 0.929574 0.251531
vt 0.944527 0.363096
vt 0.931308 0.366571
vt 0.789303 0.388025
vt 0.800061 0.373980
vt 0.802959 0.388025
vt 0.565677 0.764555
vt 0.576954 0.809049
vt 0.563352 0.811683
vt 0.916244 0.250983
vt 0.423921 0.713378
vt 0.415745 0.677427
vt 0.362534 0.661281
vt 0.405561 0.641296
vt 0.391477 0.614980
vt 0.377809 0.600760
vt 0.358020 0.618553
vt 0.329850 0.624570
vt 0.334678 0.606546
vt 0.352137 0.584626
vt 0.324032 0.652750
vt 0.324369 0.691408
vt 0.324032 0.727542
vt 0.389354 0.288036
vt 0.324985 0.315052
vt 0.324032 0.266918
vt 0.340483 0.372998
vt 0.378570 0.375869
vt 0.401202 0.214928
vt 0.423357 0.380189
vt 0.456151 0.327091
vt 0.472386 0.279979
vt 0.373612 0.412989
vt 0.367543 0.414199
vt 0.379129 0.414566
vt 0.209429 0.755860
vt 0.215071 0.758534
vt 0.209781 0.764731
vt 0.353927 0.495237
vt 0.214249 0.844662
vt 0.210727 0.930318
vt 0.203198 0.930533
vt 0.475542 0.783503
vt 0.482421 0.865684
vt 0.475542 0.949795
vt 0.203198 0.758270
vt 0.349992 0.574317
vt 0.336133 0.584626
vt 0.480142 0.964329
vt 0.484816 0.223350
vt 0.484127 0.164754
vt 0.406663 0.121208
vt 0.480246 0.104669
vt 0.467272 0.059552
vt 0.450691 0.032509
vt 0.414068 0.053877
vt 0.367559 0.050852
vt 0.381467 0.026023
vt 0.416463 -0.000000
vt 0.349079 0.092630
vt 0.336424 0.151752
vt 0.324032 0.208655
vt 0.076203 0.230122
vt 0.013438 0.266726
vt 0.000115 0.217768
vt 0.037304 0.317105
vt 0.080927 0.316096
vt 0.081852 0.163653
vt 0.118676 0.304162
vt 0.132785 0.238749
vt 0.143078 0.192453
vt 0.418739 0.841646
vt 0.423179 0.873554
vt 0.418739 0.877844
vt 0.087014 0.351749
vt 0.080216 0.350555
vt 0.075969 0.354353
vt 0.984700 0.389324
vt 0.989178 0.392958
vt 0.982768 0.398800
vt 0.082369 0.439296
vt 0.994848 0.473912
vt 0.978201 0.396575
vt 0.955973 0.564889
vt 0.947527 0.564518
vt 0.992983 0.555903
vt 0.978201 0.391079
vt 0.972873 0.389324
vt 0.100136 0.522061
vt 0.090716 0.537026
vt 0.112434 0.651539
vt 0.947805 0.697462
vt 0.121133 0.654821
vt 0.110094 0.663399
vt 0.133637 0.753341
vt 0.119896 0.760832
vt 0.112466 0.919744
vt 0.102732 0.930850
vt 0.091128 0.915300
vt 0.091128 0.938894
vt 0.147206 0.753545
vt 0.962572 0.709729
vt 0.978201 0.795267
vt 0.954408 0.794795
vt 0.989295 0.700217
vt 0.998853 0.790240
vt 0.978201 0.790179
vt 0.996876 0.693007
vt 1.000000 0.567942
vt 0.147206 0.137309
vt 0.553780 0.750266
vt 0.556943 0.803070
vt 0.484816 0.818490
vt 0.490200 0.766897
vt 0.550819 0.699201
vt 0.535077 0.660043
vt 0.491934 0.712032
vt 0.521835 0.641749
vt 0.489644 0.669916
vt 0.093831 0.068623
vt 0.045998 0.037095
vt 0.101115 0.037046
vt 0.068322 0.021376
vt 0.484816 0.617214
vt 0.111427 0.000000
vt 0.028321 0.075217
vt 0.086662 0.115296
vt 0.007979 0.118829
vt -0.000000 0.170883
vt 0.414270 0.927387
vt 0.368336 0.863463
vt 0.414270 0.841647
vt 0.221576 0.626291
vt 0.147206 0.690245
vt 0.149573 0.621065
vt 0.188246 0.714691
vt 0.677472 0.627269
vt 0.676016 0.706376
vt 0.591825 0.683935
vt 0.112621 0.831849
vt 0.067403 0.844291
vt 0.067403 0.760832
vt 0.134783 0.765746
vt 0.739298 0.751815
vt 0.747370 0.701268
vt 0.171307 0.750974
vt 0.166911 0.749773
vt 0.177241 0.755860
vt 0.221576 0.739264
vt 0.583847 0.810155
vt 0.585942 0.816594
vt 0.576954 0.816510
vt 0.731489 0.755841
vt 0.736921 0.751815
vt 0.731628 0.840603
vt 0.317397 0.627619
vt 0.320645 0.621065
vt 0.324031 0.718444
vt 0.966148 0.005193
vt 0.968400 0.187494
vt 0.961329 0.190181
vt 0.317397 0.813648
vt 0.576954 0.806901
vt 0.961329 -0.000000
vt 0.744288 0.753784
vt 0.744288 0.924757
vt 0.732017 0.939649
vt 0.321495 0.828761
vt 0.748087 0.640588
vt 0.748087 0.575661
vt 0.679161 0.564149
vt 0.741622 0.509458
vt 0.734407 0.458412
vt 0.683440 0.498603
vt 0.717922 0.428051
vt 0.688882 0.449670
vt 0.628605 0.447024
vt 0.651644 0.418652
vt 0.697126 0.389324
vt 0.612000 0.492489
vt 0.593209 0.558408
vt 0.588176 0.619999
vt 0.665519 0.110746
vt 0.610216 0.134771
vt 0.598175 0.088782
vt 0.636621 0.183798
vt 0.674096 0.189048
vt 0.662647 0.051305
vt 0.715138 0.184074
vt 0.732379 0.127437
vt 0.738128 0.087051
vt 0.676803 0.220141
vt 0.671753 0.222889
vt 0.682543 0.222170
vt 0.582262 0.617214
vt 0.587573 0.619354
vt 0.583422 0.625774
vt 0.677575 0.300282
vt 0.947527 0.800640
vt 0.951535 0.795267
vt 0.954078 0.875874
vt 0.587573 0.769585
vt 0.580131 0.769447
vt 0.947527 0.954535
vt 0.576954 0.620102
vt 0.692528 0.377287
vt 0.682352 0.389324
vt 0.952012 0.967099
vt 0.738128 0.037805
vt 0.000000 0.846479
vt 0.039692 0.877295
vt -0.000000 0.934129
vt 0.044641 0.765181
vt 0.067404 0.846479
vt 0.000000 0.829358
vt 0.000000 0.760832
vt 0.800344 0.309078
vt 0.840918 0.309078
vt 0.845876 0.373980
vt 0.147206 0.929060
vt 0.166774 0.912502
vt 0.166774 0.961349
vt 0.789303 0.351423
vt 0.911218 0.926756
vt 0.867178 0.865945
vt 0.910475 0.865685
vt 0.882337 0.841260
vt 0.147206 0.869982
vt 0.184519 0.880227
vt 0.147206 0.912502
vt 0.911218 0.815741
vt 0.875211 0.380557
vt 0.845876 0.325476
vt 0.875211 0.309078
vt 0.203198 0.808250
vt 0.147206 0.783725
vt 0.194356 0.755861
vt 0.588176 0.046047
vt 0.589009 0.000000
vt 0.147206 0.869982
vt 0.429569 0.600661
vt 0.446981 0.584626
vt 0.454991 0.600651
vt 0.439161 0.600995
vt 0.748087 0.858392
vt 0.748087 0.831769
vt 0.781640 0.833474
vt 0.781640 0.860098
vt 0.633780 0.843973
vt 0.633712 0.817409
vt 0.676203 0.814458
vt 0.676272 0.841021
vt 0.308262 0.765504
vt 0.281961 0.766913
vt 0.283997 0.721625
vt 0.310298 0.720216
vt 0.835764 0.859770
vt 0.835764 0.833146
vt 0.867178 0.831642
vt 0.867178 0.858265
vt 0.505193 0.025286
vt 0.492006 0.019701
vt 0.507073 0.000000
vt 0.519499 0.021365
vt 0.531454 0.617214
vt 0.530308 0.596993
vt 0.580976 0.582566
vt 0.582123 0.602787
vt 0.310298 0.814291
vt 0.283997 0.815701
vt 0.071342 0.935281
vt 0.067403 0.922703
vt 0.073259 0.915299
vt 0.091128 0.924508
vt 0.588245 0.843973
vt 0.588176 0.817409
vt 0.080748 0.946992
vt 0.091128 0.947821
vt 0.766784 0.767462
vt 0.788315 0.765153
vt 0.532310 0.533430
vt 0.567455 0.523423
vt 0.484816 0.578431
vt 0.500756 0.520555
vt 0.594513 0.751815
vt 0.626098 0.751815
vt 0.313246 0.716141
vt 0.259817 0.720216
vt 0.260309 0.662179
vt 0.297369 0.659353
vt 0.222988 0.811292
vt 0.221576 0.777452
vt 0.827584 0.764888
vt 0.849388 0.767374
vt 0.588176 0.502663
vt 0.559406 0.505562
vt 0.572359 0.492909
vt 0.535738 0.512295
vt 0.513964 0.503883
vt 0.313246 0.640187
vt 0.287255 0.640685
vt 0.297983 0.626582
vt 0.262476 0.642964
vt 0.228914 0.653181
vt 0.241556 0.636565
vt 0.221576 0.629388
vt 0.236794 0.621065
vt 0.792978 0.752133
vt 0.819173 0.753014
vt 0.777113 0.751043
vt 0.775991 0.680630
vt 0.794142 0.681896
vt 0.530127 0.460379
vt 0.557204 0.452662
vt 0.791079 0.929803
vt 0.770118 0.930774
vt 0.773295 0.861271
vt 0.797280 0.860098
vt 0.748087 0.930087
vt 0.748087 0.860535
vt 0.115660 0.915299
vt 0.094800 0.914561
vt 0.093376 0.844291
vt 0.117240 0.845121
vt 0.072099 0.915299
vt 0.067403 0.845121
vt 0.834634 0.753152
vt 0.824111 0.682967
vt 0.841799 0.683174
vt 0.572023 0.438200
vt 0.552749 0.446162
vt 0.564834 0.434378
vt 0.530671 0.452463
vt 0.505218 0.450802
vt 0.510361 0.444682
vt 0.062053 0.916768
vt 0.044845 0.905996
vt 0.051165 0.901049
vt 0.065219 0.909831
vt 0.039692 0.877996
vt 0.046958 0.878219
vt 0.044845 0.853501
vt 0.051165 0.858244
vt 0.062053 0.846479
vt 0.065219 0.852517
vt 0.796967 0.677391
vt 0.821404 0.678302
vt 0.782166 0.676349
vt 0.778615 0.604170
vt 0.797254 0.605478
vt 0.524374 0.401123
vt 0.552178 0.393193
vt 0.629011 0.915087
vt 0.609441 0.915887
vt 0.614054 0.844962
vt 0.638697 0.843973
vt 0.588890 0.915114
vt 0.588176 0.843973
vt 0.784851 0.382213
vt 0.765393 0.381545
vt 0.764799 0.309078
vt 0.789303 0.309924
vt 0.744213 0.382213
vt 0.738128 0.309924
vt 0.835827 0.678501
vt 0.828028 0.606606
vt 0.846190 0.606842
vt 0.567396 0.378349
vt 0.548894 0.388379
vt 0.562072 0.375525
vt 0.524817 0.395247
vt 0.498797 0.391311
vt 0.502669 0.386750
vt 0.140223 0.916467
vt 0.122536 0.905407
vt 0.127322 0.901710
vt 0.142638 0.911287
vt 0.117240 0.876656
vt 0.122735 0.876813
vt 0.122536 0.851503
vt 0.127322 0.855032
vt 0.140223 0.844291
vt 0.142638 0.848786
vt 0.799318 0.602127
vt 0.825966 0.603103
vt 0.783177 0.600994
vt 0.791393 0.538911
vt 0.804291 0.540354
vt 0.521135 0.343017
vt 0.540539 0.336906
vt 0.570987 0.919212
vt 0.549644 0.919946
vt 0.550447 0.859746
vt 0.567648 0.857287
vt 0.527240 0.918961
vt 0.531175 0.860351
vt 0.368336 0.938448
vt 0.347138 0.937250
vt 0.345237 0.879749
vt 0.363511 0.880431
vt 0.324032 0.937476
vt 0.325093 0.879590
vt 0.841694 0.603308
vt 0.826337 0.542962
vt 0.840290 0.544555
vt 0.791380 0.499373
vt 0.806161 0.501182
vt 0.516774 0.313846
vt 0.538873 0.306877
vt 0.551231 0.821816
vt 0.570987 0.818490
vt 0.530011 0.823005
vt 0.345911 0.842040
vt 0.365897 0.842565
vt 0.324032 0.841647
vt 0.830876 0.504722
vt 0.845870 0.507025
vt 0.551130 0.295658
vt 0.536112 0.302360
vt 0.546683 0.292675
vt 0.517034 0.308372
vt 0.496167 0.308171
vt 0.499292 0.303461
vt 0.932019 0.874127
vt 0.916060 0.865562
vt 0.921011 0.862305
vt 0.934747 0.869711
vt 0.911218 0.842069
vt 0.916858 0.842106
vt 0.916060 0.821454
vt 0.921011 0.824377
vt 0.932018 0.815741
vt 0.934747 0.819425
vt 0.807942 0.497621
vt 0.829249 0.500685
vt 0.795177 0.496057
vt 0.796523 0.453447
vt 0.809029 0.453355
vt 0.514646 0.273893
vt 0.533362 0.269286
vt 0.520104 0.924504
vt 0.503334 0.928790
vt 0.502247 0.879003
vt 0.518669 0.880388
vt 0.485220 0.931342
vt 0.484816 0.877000
vt 0.314122 0.930196
vt 0.296926 0.929914
vt 0.294676 0.874795
vt 0.311240 0.876372
vt 0.278116 0.929743
vt 0.276703 0.875938
vt 0.842126 0.502682
vt 0.829714 0.450774
vt 0.841979 0.448236
vt 0.788621 0.396097
vt 0.804195 0.395945
vt 0.512939 0.235640
vt 0.536276 0.229902
vt 0.506788 0.821081
vt 0.527240 0.822926
vt 0.484816 0.818490
vt 0.293234 0.815701
vt 0.314122 0.817733
vt 0.270503 0.817185
vt 0.830109 0.392599
vt 0.845697 0.389324
vt 0.549033 0.216533
vt 0.531399 0.224327
vt 0.540952 0.214310
vt 0.513913 0.228624
vt 0.491099 0.224247
vt 0.497581 0.220078
vt 0.484816 0.208778
vt 0.492900 0.208508
vt 0.581880 0.953050
vt 0.572316 0.930074
vt 0.577698 0.929394
vt 0.584861 0.946563
vt 0.570987 0.908412
vt 0.576721 0.913204
vt 0.581883 0.899915
vt 0.584861 0.906833
vt 0.539815 0.198459
vt 0.534021 0.200788
vt 0.444572 0.867353
vt 0.432902 0.867628
vt 0.423921 0.791439
vt 0.438194 0.791053
vt 0.512122 0.175740
vt 0.533479 0.170558
vt 0.462698 0.944628
vt 0.447304 0.944948
vt 0.443877 0.867945
vt 0.462698 0.867733
vt 0.430760 0.944833
vt 0.423921 0.867628
vt 0.836508 0.938858
vt 0.820901 0.937361
vt 0.817686 0.860098
vt 0.836508 0.861928
vt 0.803910 0.938501
vt 0.797280 0.861497
vt 0.475542 0.861970
vt 0.463935 0.864580
vt 0.461696 0.787499
vt 0.475542 0.784186
vt 0.545101 0.158282
vt 0.530059 0.163108
vt 0.539513 0.153685
vt 0.512748 0.167853
vt 0.492366 0.165134
vt 0.496790 0.161099
vt 0.820268 0.373980
vt 0.820137 0.388149
vt 0.815454 0.388149
vt 0.814575 0.375578
vt 0.581453 0.806901
vt 0.576954 0.788757
vt 0.580891 0.787554
vt 0.584137 0.802085
vt 0.581453 0.769585
vt 0.584137 0.771801
vt 0.820268 0.386360
vt 0.820268 0.373980
vt 0.825660 0.374121
vt 0.825158 0.385535
vt 0.439963 0.785110
vt 0.459119 0.784698
vt 0.428356 0.784705
vt 0.427465 0.693980
vt 0.438798 0.694375
vt 0.508932 0.098646
vt 0.525836 0.094013
vt 0.915812 0.366726
vt 0.900557 0.367628
vt 0.900917 0.277070
vt 0.915812 0.276192
vt 0.884448 0.367523
vt 0.885186 0.276964
vt 0.916244 0.183068
vt 0.901046 0.181567
vt 0.900656 0.091897
vt 0.915495 0.093363
vt 0.884448 0.181455
vt 0.884448 0.091788
vt 0.470422 0.784004
vt 0.457503 0.693969
vt 0.468539 0.693288
vt 0.430361 0.685632
vt 0.440125 0.685972
vt 0.508833 0.090111
vt 0.523396 0.086120
vt 0.493350 0.092047
vt 0.495408 0.084426
vt 0.886193 0.268522
vt 0.899746 0.268613
vt 0.671020 0.843973
vt 0.671020 0.861720
vt 0.663448 0.860708
vt 0.663448 0.845417
vt 0.885901 0.084028
vt 0.899865 0.084121
vt 0.456240 0.685622
vt 0.465748 0.685036
vt 0.912579 0.267857
vt 0.899943 0.183810
vt 0.912549 0.183068
vt 0.886630 0.183720
vt 0.912650 0.085385
vt 0.899528 0.000092
vt 0.912088 0.001333
vt 0.885811 0.000000
vt 0.464331 0.600075
s 1
usemtl M_Leaves
f 1/1/1 2/2/1 4/3/1
f 1/1/2 3/4/2 2/2/2
f 1/1/3 9/5/4 3/4/4
f 7/6/5 1/1/5 4/3/5
f 5/7/6 9/5/6 1/1/7
f 5/8/8 1/9/9 6/10/9
f 6/11/10 1/1/11 8/12/12
f 8/12/12 1/1/11 7/6/13
f 9/5/14 10/13/14 12/14/14
f 9/5/15 11/15/15 10/13/15
f 9/5/6 5/7/6 11/15/16
f 9/5/17 12/14/17 3/4/17
f 10/16/18 12/17/19 14/18/18
f 12/19/20 10/20/20 13/21/20
f 14/22/21 12/23/21 13/24/21
f 14/18/22 15/25/22 16/26/22
f 14/22/23 13/24/23 15/27/23
f 11/28/24 10/16/18 14/18/18
f 14/18/25 16/26/25 11/28/25
f 11/15/26 16/29/27 13/30/28
f 16/29/29 17/31/29 13/30/29
f 15/27/30 13/24/31 17/32/31
f 11/15/26 13/30/28 10/13/32
f 8/12/33 7/6/33 18/33/33
f 19/34/34 18/33/35 7/6/35
f 19/34/36 7/6/37 20/35/36
f 21/36/38 19/34/39 20/35/39
f 23/37/40 21/36/41 22/38/42
f 21/36/43 20/35/43 22/38/43
f 24/39/44 23/37/44 25/40/44
f 23/37/40 22/38/42 25/40/45
f 22/38/46 26/41/46 25/40/46
f 25/40/47 26/41/47 28/42/47
f 24/39/48 25/40/48 27/43/48
f 25/40/49 28/42/50 27/43/49
f 22/38/51 29/44/51 26/41/51
f 20/35/52 30/45/52 29/44/52
f 20/35/53 29/44/53 22/38/53
f 7/6/54 31/46/54 30/45/54
f 7/6/55 30/45/55 20/35/55
f 7/6/56 4/3/56 31/46/56
f 32/47/57 33/48/57 35/49/57
f 32/47/58 34/50/59 33/48/58
f 32/47/60 40/51/61 34/50/61
f 38/52/62 32/47/62 35/49/62
f 36/53/63 40/51/64 32/47/65
f 36/54/66 32/55/66 37/56/66
f 37/57/67 32/47/68 39/58/69
f 39/58/69 32/47/68 38/52/70
f 40/59/71 41/60/71 43/61/71
f 40/51/72 42/62/73 41/63/72
f 40/51/64 36/53/63 42/62/74
f 40/51/61 43/64/61 34/50/61
f 43/61/75 41/60/75 45/65/75
f 41/66/76 43/67/77 44/68/76
f 44/68/78 43/67/79 45/69/78
f 42/62/80 47/70/80 45/71/80
f 42/62/81 45/71/81 41/63/81
f 44/68/82 45/69/82 46/72/82
f 46/72/83 45/69/83 48/73/83
f 47/70/84 48/74/85 45/71/86
f 46/72/87 48/73/87 49/75/87
f 49/75/88 48/73/88 50/76/88
f 48/74/89 51/77/90 50/78/90
f 52/79/91 51/77/90 48/74/89
f 47/70/84 52/79/92 48/74/85
f 46/80/93 49/81/94 52/82/94
f 49/81/95 51/83/95 52/82/95
f 46/80/96 52/82/96 47/84/96
f 50/85/97 51/86/98 53/87/99
f 49/81/100 53/88/100 51/83/100
f 49/75/101 50/76/101 53/89/101
f 44/90/102 46/80/103 47/84/103
f 44/90/104 47/84/104 42/91/104
f 42/92/105 41/66/76 44/68/76
f 39/93/106 38/94/106 54/95/106
f 55/96/107 54/97/108 38/52/108
f 55/96/109 38/52/110 56/98/109
f 57/99/111 55/96/111 56/98/109
f 58/100/112 57/99/113 56/98/112
f 59/101/114 58/100/115 60/102/114
f 58/100/112 56/98/112 60/102/116
f 56/98/117 61/103/118 60/102/118
f 60/102/119 61/103/120 63/104/121
f 59/105/122 60/106/123 62/107/123
f 60/102/124 63/104/125 62/108/124
f 56/98/126 64/109/126 61/103/126
f 56/98/127 65/110/128 64/109/127
f 38/52/129 66/111/129 65/110/129
f 38/52/130 65/110/130 56/98/130
f 38/52/131 35/49/131 66/111/132
f 67/112/133 68/113/133 70/114/133
f 67/112/134 69/115/134 68/113/134
f 67/112/135 75/116/135 69/115/135
f 73/117/136 67/112/136 70/114/136
f 71/118/137 75/119/138 67/120/137
f 71/118/139 67/120/140 72/121/139
f 72/121/141 67/120/141 74/122/141
f 74/122/141 67/120/141 73/123/142
f 75/124/143 76/125/143 78/126/143
f 75/127/144 77/128/144 76/129/145
f 75/119/138 71/118/137 77/130/146
f 75/116/135 78/131/147 69/115/135
f 76/132/148 78/133/149 80/134/150
f 78/126/151 76/125/151 79/135/151
f 80/136/152 78/137/153 79/138/153
f 80/134/154 81/139/154 82/140/154
f 80/136/155 79/138/155 81/141/155
f 77/142/156 76/132/148 80/134/150
f 80/134/157 82/140/158 77/142/157
f 77/128/159 82/143/160 79/144/161
f 82/145/162 83/146/162 79/147/162
f 82/148/163 85/149/164 83/150/165
f 81/139/166 84/151/166 82/140/166
f 82/148/163 84/152/167 85/149/164
f 81/141/168 83/153/168 85/154/168
f 81/141/169 85/154/169 86/155/169
f 86/155/170 85/154/170 87/156/170
f 85/157/171 88/158/172 87/159/173
f 84/160/174 88/158/172 85/157/171
f 87/161/175 88/162/175 89/163/175
f 86/164/176 89/148/176 88/165/176
f 86/164/177 88/165/177 84/151/177
f 86/155/178 87/156/178 89/166/178
f 81/139/179 86/164/180 84/151/181
f 81/141/182 79/138/182 83/153/182
f 77/128/159 79/144/161 76/129/183
f 74/122/184 73/123/184 90/167/184
f 91/168/185 90/169/185 73/117/185
f 91/168/186 73/117/186 92/170/186
f 93/171/187 91/168/186 92/170/186
f 94/172/188 93/171/189 92/170/190
f 95/173/191 94/174/191 96/175/191
f 94/172/188 92/170/190 96/176/192
f 92/170/193 97/177/193 96/176/193
f 96/176/194 97/177/194 99/178/194
f 95/179/195 96/180/195 98/181/195
f 96/176/196 99/178/196 98/182/196
f 92/170/197 100/183/197 97/177/197
f 92/170/198 101/184/198 100/183/198
f 73/117/199 102/185/199 101/184/199
f 73/117/200 101/184/200 92/170/200
f 73/117/201 70/114/202 102/185/201
f 103/186/203 104/187/203 106/188/204
f 103/189/205 105/190/205 104/191/205
f 103/192/206 111/193/206 105/194/206
f 109/195/207 103/196/207 106/197/207
f 107/198/208 111/199/208 103/196/209
f 107/198/210 103/196/210 108/200/210
f 108/200/211 103/196/212 110/201/212
f 110/201/212 103/196/212 109/195/212
f 111/202/213 112/203/213 114/204/213
f 111/205/214 113/206/215 112/207/215
f 111/199/208 107/198/208 113/208/216
f 111/193/217 114/209/218 105/194/217
f 112/210/219 114/211/220 116/212/219
f 114/204/221 112/203/222 115/213/222
f 116/212/223 114/211/223 115/214/223
f 116/215/224 117/216/224 118/217/224
f 116/212/225 115/214/225 117/218/225
f 113/219/226 112/210/219 116/212/219
f 116/220/227 118/221/227 113/222/227
f 113/206/228 118/223/229 115/224/230
f 118/225/231 119/226/232 115/227/233
f 118/228/234 121/229/235 119/230/236
f 117/216/237 120/231/237 118/217/237
f 118/228/234 120/232/235 121/229/235
f 117/218/238 119/233/239 121/234/238
f 117/218/240 121/234/240 122/235/240
f 122/235/241 121/234/241 123/236/241
f 121/229/242 124/237/243 123/238/243
f 120/232/244 124/237/243 121/229/242
f 123/239/245 124/240/245 125/241/245
f 122/242/246 125/243/246 124/244/246
f 122/242/247 124/244/247 120/231/247
f 122/235/248 123/236/248 125/245/248
f 117/216/249 122/242/249 120/231/249
f 117/218/250 115/214/250 119/233/250
f 113/206/228 115/224/230 112/207/251
f 110/201/252 109/195/252 126/246/252
f 127/247/253 126/246/253 109/195/253
f 127/247/254 109/195/255 128/248/255
f 129/249/256 127/247/255 128/248/255
f 130/250/257 129/249/258 128/248/259
f 131/251/260 130/250/260 132/252/260
f 130/250/257 128/248/259 132/252/261
f 128/248/262 133/253/262 132/252/262
f 132/252/263 133/253/263 135/254/263
f 131/251/264 132/252/264 134/255/264
f 132/252/265 135/254/265 134/255/265
f 128/248/266 136/256/266 133/253/266
f 128/248/267 137/257/267 136/256/267
f 109/195/268 138/258/269 137/257/268
f 109/195/270 137/257/270 128/248/271
f 109/195/272 106/197/272 138/258/272
f 139/259/273 140/260/273 142/261/273
f 139/259/274 141/262/274 140/260/274
f 139/259/275 147/263/275 141/262/276
f 145/264/277 139/259/277 142/261/278
f 143/265/279 147/263/279 139/259/280
f 143/265/281 139/259/281 144/266/282
f 144/266/283 139/259/284 146/267/284
f 146/267/284 139/259/284 145/264/284
f 147/263/285 148/268/286 150/269/285
f 147/263/287 149/270/287 148/268/287
f 147/263/279 143/265/279 149/270/288
f 147/263/289 150/269/289 141/262/289
f 148/271/290 150/272/291 152/273/290
f 150/269/292 148/268/293 151/274/293
f 152/273/294 150/272/294 151/275/294
f 152/273/295 153/276/295 154/277/295
f 152/278/296 151/279/296 153/280/296
f 149/281/297 148/271/290 152/273/290
f 152/273/298 154/277/299 149/281/299
f 149/270/300 154/282/301 151/274/302
f 154/282/303 155/283/303 151/274/303
f 153/280/304 151/279/304 155/284/305
f 149/270/300 151/274/302 148/268/306
f 146/267/307 145/264/307 156/285/307
f 157/286/308 156/285/308 145/264/308
f 157/286/309 145/264/310 158/287/311
f 159/288/312 157/286/309 158/287/313
f 160/289/314 159/288/315 158/287/316
f 161/290/317 160/289/317 162/291/317
f 160/289/314 158/287/316 162/291/318
f 158/287/319 163/292/319 162/291/319
f 162/291/320 163/292/320 165/293/320
f 161/290/321 162/291/322 164/294/323
f 162/291/324 165/293/324 164/294/324
f 158/287/325 166/295/325 163/292/325
f 158/287/326 167/296/327 166/295/327
f 145/264/328 168/297/329 167/296/328
f 145/264/330 167/296/330 158/287/330
f 145/264/331 142/261/331 168/297/332
f 169/298/333 170/299/333 172/300/333
f 169/298/334 171/301/334 170/299/334
f 169/298/335 177/302/335 171/301/335
f 175/303/336 169/298/336 172/300/337
f 173/304/338 177/302/339 169/298/340
f 173/304/341 169/298/341 174/305/341
f 174/305/342 169/298/343 176/306/344
f 176/306/344 169/298/343 175/303/345
f 177/307/346 178/308/346 180/309/346
f 177/302/347 179/310/347 178/311/347
f 177/302/339 173/304/338 179/310/348
f 177/302/349 180/312/349 171/301/349
f 178/313/350 180/314/351 182/315/350
f 180/312/352 178/311/352 181/316/352
f 182/315/353 180/314/353 181/317/353
f 182/318/354 183/319/354 184/320/354
f 182/315/355 181/317/356 183/321/356
f 179/322/357 178/313/350 182/315/350
f 182/318/358 184/320/359 179/323/358
f 179/310/360 184/324/361 181/316/362
f 184/324/363 185/325/363 181/316/363
f 184/324/364 187/326/364 185/325/364
f 183/319/365 186/327/365 184/320/365
f 184/324/366 186/328/367 187/326/366
f 185/325/368 187/326/368 188/329/368
f 188/329/369 187/326/369 189/330/369
f 186/328/370 189/330/371 187/326/372
f 188/329/373 189/330/374 190/331/373
f 190/332/375 189/333/375 191/334/375
f 189/333/376 192/335/377 191/334/376
f 186/328/370 192/336/371 189/330/371
f 193/337/378 191/338/378 192/339/378
f 193/337/379 192/339/379 186/327/380
f 193/340/381 190/341/381 191/342/382
f 193/340/383 188/343/383 190/341/383
f 183/319/384 193/337/385 186/327/385
f 183/321/386 188/343/386 193/340/386
f 183/321/387 185/344/388 188/343/388
f 183/321/389 181/317/389 185/344/389
f 179/310/360 181/316/362 178/311/390
f 176/306/391 175/303/391 194/345/391
f 195/346/392 194/347/392 175/348/392
f 195/346/393 175/348/394 196/349/395
f 197/350/396 195/346/397 196/349/395
f 199/351/398 197/350/399 198/352/398
f 197/350/400 196/349/401 198/352/400
f 200/353/402 199/351/402 201/354/402
f 199/351/398 198/352/398 201/354/403
f 198/355/404 202/356/405 201/357/405
f 201/357/406 202/356/407 204/358/407
f 200/353/408 201/354/408 203/359/408
f 201/357/409 204/358/409 203/360/409
f 198/355/410 205/361/411 202/356/411
f 196/362/412 206/363/412 205/361/412
f 196/362/413 205/361/413 198/355/414
f 175/303/415 207/364/415 206/363/415
f 175/303/416 206/363/417 196/362/417
f 175/303/418 172/300/418 207/364/418
f 208/365/419 209/366/419 211/367/419
f 208/368/420 210/369/420 209/370/420
f 208/368/421 216/371/422 210/369/421
f 214/372/423 208/373/423 211/374/424
f 212/375/425 216/376/426 208/377/427
f 212/375/428 208/377/429 213/378/429
f 213/379/430 208/373/431 215/380/431
f 215/380/431 208/373/431 214/372/432
f 216/371/433 217/381/433 219/382/433
f 216/371/434 218/383/434 217/381/434
f 216/371/426 212/384/425 218/383/435
f 216/371/421 219/382/436 210/369/437
f 217/385/438 219/386/439 221/387/440
f 219/388/441 217/389/442 220/390/441
f 221/391/443 219/392/443 220/393/443
f 221/394/444 222/395/444 223/396/445
f 221/391/446 220/393/446 222/397/446
f 218/398/447 217/385/438 221/387/440
f 221/394/448 223/396/448 218/399/448
f 218/400/449 223/401/450 220/390/451
f 223/401/452 224/402/452 220/390/452
f 222/397/453 220/393/454 224/403/453
f 218/400/449 220/390/451 217/389/455
f 215/380/456 214/372/457 225/404/457
f 226/405/458 225/404/459 214/372/458
f 226/405/460 214/372/461 227/406/460
f 228/407/462 226/405/460 227/406/460
f 230/408/463 228/407/464 229/409/465
f 228/407/466 227/406/467 229/409/466
f 231/410/468 230/408/468 232/411/468
f 230/408/463 229/409/465 232/411/469
f 229/409/470 233/412/470 232/411/470
f 232/411/471 233/412/471 235/413/472
f 231/410/473 232/411/473 234/414/473
f 232/411/474 235/413/474 234/414/474
f 229/409/475 236/415/475 233/412/476
f 227/406/477 237/416/477 236/415/477
f 227/406/478 236/415/478 229/409/478
f 214/372/479 238/417/479 237/416/480
f 214/372/481 237/416/481 227/406/481
f 214/372/482 211/374/483 238/417/482
f 239/418/484 240/419/484 242/420/484
f 239/418/485 241/421/485 240/419/485
f 239/418/486 247/422/486 241/421/487
f 245/423/488 239/418/488 242/420/488
f 243/424/489 247/422/489 239/418/490
f 243/424/491 239/418/491 244/425/492
f 244/425/493 239/418/494 246/426/494
f 246/426/494 239/418/494 245/423/494
f 247/422/495 248/427/496 250/428/495
f 247/422/497 249/429/497 248/427/497
f 247/422/489 243/424/489 249/429/498
f 247/422/499 250/428/499 241/421/499
f 248/430/500 250/431/501 252/432/500
f 250/428/502 248/427/503 251/433/503
f 252/434/504 250/435/504 251/436/504
f 252/432/505 253/437/505 254/438/505
f 252/434/506 251/436/507 253/439/506
f 249/440/508 248/430/500 252/432/500
f 252/432/509 254/438/510 249/440/510
f 249/429/511 254/441/512 251/433/513
f 254/441/514 255/442/514 251/433/514
f 253/439/515 251/436/515 255/443/516
f 249/429/511 251/433/513 248/427/517
f 246/426/518 245/423/518 256/444/518
f 257/445/519 256/446/519 245/447/519
f 257/448/520 245/449/521 258/450/522
f 259/451/523 257/448/520 258/450/524
f 260/452/525 259/453/526 258/454/527
f 261/455/528 260/456/528 262/457/528
f 260/452/525 258/454/527 262/458/529
f 258/459/530 263/460/530 262/461/530
f 262/461/531 263/460/531 265/462/531
f 261/463/532 262/464/532 264/465/533
f 262/461/534 265/462/534 264/466/534
f 258/467/535 266/468/535 263/469/535
f 258/470/536 267/471/537 266/472/537
f 245/423/538 268/473/538 267/474/538
f 245/475/539 267/471/539 258/470/539
f 245/423/540 242/420/540 268/473/541
s 0
usemtl M_Trunk
f 415/476/542 282/477/542 421/478/542 414/479/542
f 279/480/543 278/481/543 273/482/543 269/483/543
f 284/484/544 283/485/544 274/486/544 270/487/544
f 280/488/545 277/489/545 276/490/545 272/491/545
f 285/492/546 281/493/546 275/494/546 271/495/546
f 416/496/547 417/497/547 282/498/547 415/499/547
f 270/500/548 274/501/548 278/502/548 279/503/548
f 271/504/549 275/505/549 277/489/549 280/488/549
f 419/506/550 420/507/550 421/508/550 282/509/550
f 272/510/551 276/511/551 283/485/551 284/484/551
f 269/483/552 273/482/552 281/493/552 285/492/552
f 418/512/553 419/506/553 282/509/553 417/513/553
f 273/482/554 278/481/554 287/514/554 286/515/554
f 278/502/555 274/501/555 288/516/555 287/517/555
f 274/501/556 283/518/556 289/519/556 288/516/556
f 283/485/557 276/511/557 290/520/557 289/521/557
f 276/522/558 277/523/558 291/524/558 290/525/558
f 277/489/559 275/505/559 292/526/559 291/527/559
f 275/494/560 281/493/560 293/528/560 292/529/560
f 281/493/561 273/482/561 286/515/561 293/528/561
f 286/530/562 287/517/562 295/531/562 294/532/562
f 287/517/563 288/516/563 296/533/563 295/531/563
f 288/516/564 289/519/564 297/534/564 296/533/564
f 289/535/565 290/525/565 298/536/565 297/537/565
f 290/525/566 291/524/566 299/538/566 298/536/566
f 291/524/567 292/539/567 300/540/567 299/538/567
f 292/539/568 293/541/568 301/542/568 300/540/568
f 293/528/569 286/515/569 294/543/569 301/544/569
f 294/543/570 295/545/570 303/546/570 302/547/570
f 295/531/571 296/533/571 304/548/571 303/549/571
f 296/550/572 297/551/572 305/552/572 304/553/572
f 297/551/573 298/554/573 306/555/573 305/552/573
f 298/556/574 299/557/574 307/558/574 306/559/574
f 299/557/575 300/560/575 308/561/575 307/558/575
f 300/562/576 301/544/576 309/563/576 308/564/576
f 301/544/577 294/543/577 302/547/577 309/563/577
f 302/565/578 303/549/578 311/566/578 310/567/578
f 303/549/579 304/548/579 312/568/579 311/566/579
f 304/548/580 305/569/580 313/570/580 312/568/580
f 305/571/581 306/572/581 314/573/581 313/574/581
f 306/572/582 307/575/582 315/576/582 314/573/582
f 307/575/583 308/577/583 316/578/583 315/576/583
f 308/577/584 309/579/584 317/580/584 316/578/584
f 309/563/585 302/547/585 310/581/585 317/582/585
f 310/581/586 311/583/586 319/584/586 318/585/586
f 311/566/587 312/568/587 320/586/587 319/587/587
f 312/588/588 313/589/588 321/590/588 320/591/588
f 313/589/589 314/592/589 322/593/589 321/590/589
f 314/594/590 315/595/590 323/596/590 322/597/590
f 315/595/591 316/598/591 324/599/591 323/596/591
f 316/600/592 317/582/592 325/601/592 324/602/592
f 317/582/593 310/581/593 318/585/593 325/601/593
f 318/603/594 319/587/594 327/604/594 326/605/594
f 319/587/595 320/586/595 328/606/595 327/604/595
f 320/586/596 321/607/596 329/608/596 328/606/596
f 321/609/597 322/610/597 330/611/597 329/612/597
f 322/610/598 323/613/598 331/614/598 330/611/598
f 323/613/599 324/615/599 332/616/599 331/614/599
f 324/615/600 325/617/600 333/618/600 332/616/600
f 325/601/601 318/585/601 326/619/601 333/620/601
f 326/619/602 327/621/602 335/622/602 334/623/602
f 327/604/603 328/606/603 336/624/603 335/625/603
f 328/626/604 329/627/604 337/628/604 336/629/604
f 329/627/605 330/630/605 338/631/605 337/628/605
f 330/632/606 331/633/606 339/634/606 338/635/606
f 331/633/607 332/636/607 340/637/607 339/634/607
f 332/638/608 333/620/608 341/639/608 340/640/608
f 333/620/609 326/619/609 334/623/609 341/639/609
f 334/623/610 335/622/610 343/641/610 342/642/610
f 335/625/611 336/624/611 344/643/611 343/644/611
f 336/629/612 337/628/612 345/645/612 344/646/612
f 337/628/613 338/631/613 346/647/613 345/645/613
f 338/635/614 339/634/614 347/648/614 346/649/614
f 339/634/615 340/637/615 348/650/615 347/648/615
f 340/640/616 341/639/616 349/651/616 348/652/616
f 341/639/617 334/623/617 342/642/617 349/651/617
f 342/653/618 343/644/618 351/654/618 350/655/618
f 343/644/619 344/643/619 352/656/619 351/654/619
f 344/643/620 345/657/620 353/658/620 352/656/620
f 345/659/621 346/660/621 354/661/621 353/662/621
f 346/660/622 347/663/622 355/664/622 354/661/622
f 347/663/623 348/665/623 356/666/623 355/664/623
f 348/665/624 349/667/624 357/668/624 356/666/624
f 349/651/625 342/642/625 350/669/625 357/670/625
f 350/669/626 351/671/626 359/672/626 358/673/626
f 351/654/627 352/656/627 360/674/627 359/675/627
f 352/676/628 353/677/628 361/678/628 360/679/628
f 353/677/629 354/680/629 362/681/629 361/678/629
f 354/682/630 355/683/630 363/684/630 362/685/630
f 355/683/631 356/686/631 364/687/631 363/684/631
f 356/688/632 357/670/632 365/689/632 364/690/632
f 357/670/633 350/669/633 358/673/633 365/689/633
f 358/673/634 359/672/634 367/691/634 366/692/634
f 359/675/635 360/674/635 368/693/635 367/694/635
f 360/679/636 361/678/636 369/695/636 368/696/636
f 361/678/637 362/681/637 370/697/637 369/695/637
f 362/685/638 363/684/638 371/698/638 370/699/638
f 363/684/639 364/687/639 372/700/639 371/698/639
f 364/690/640 365/689/640 373/701/640 372/702/640
f 365/689/641 358/673/641 366/692/641 373/701/641
f 366/703/642 367/694/642 375/704/642 374/705/642
f 367/694/643 368/693/643 376/706/643 375/704/643
f 368/693/644 369/707/644 377/708/644 376/706/644
f 369/707/645 370/709/645 378/710/645 377/708/645
f 370/711/646 371/712/646 379/713/646 378/714/646
f 371/712/647 372/715/647 380/716/647 379/713/647
f 372/715/648 373/717/648 381/718/648 380/716/648
f 373/719/649 366/703/649 374/705/649 381/720/649
f 374/721/650 375/722/650 383/723/650 382/724/650
f 375/704/651 376/706/651 384/725/651 383/726/651
f 376/727/652 377/728/652 385/729/652 384/730/652
f 377/728/653 378/731/653 386/732/653 385/729/653
f 378/733/654 379/734/654 387/735/654 386/736/654
f 379/734/655 380/737/655 388/738/655 387/735/655
f 380/739/656 381/740/656 389/741/656 388/742/656
f 381/740/657 374/721/657 382/724/657 389/741/657
f 382/743/658 383/726/658 391/744/658 390/745/658
f 383/726/659 384/725/659 392/746/659 391/744/659
f 384/725/660 385/747/660 393/748/660 392/746/660
f 385/749/661 386/750/661 394/751/661 393/752/661
f 386/753/662 387/754/662 395/755/662 394/756/662
f 387/754/663 388/757/663 396/758/663 395/755/663
f 388/759/664 389/760/664 397/761/664 396/762/664
f 389/741/665 382/724/665 390/763/665 397/764/665
f 390/763/666 391/765/666 399/766/666 398/767/666
f 391/744/667 392/746/667 400/768/667 399/769/667
f 392/770/668 393/771/668 401/772/668 400/773/668
f 393/771/669 394/774/669 402/775/669 401/772/669
f 394/776/670 395/777/670 403/778/670 402/779/670
f 395/777/671 396/780/671 404/781/671 403/778/671
f 396/782/672 397/764/672 405/783/672 404/784/672
f 397/764/673 390/763/673 398/767/673 405/783/673
f 398/767/674 399/766/674 407/785/674 406/786/674
f 399/769/675 400/768/675 408/787/675 407/788/675
f 400/768/676 401/789/676 409/790/676 408/787/676
f 401/772/677 402/775/677 410/791/677 409/792/677
f 402/793/678 403/794/678 411/795/678 410/796/678
f 403/778/679 404/781/679 412/797/679 411/798/679
f 404/784/680 405/783/680 413/799/680 412/800/680
f 405/783/681 398/767/681 406/786/681 413/799/681
f 406/786/682 407/785/682 415/476/682 414/479/682
f 407/788/683 408/787/683 416/496/683 415/499/683
f 408/801/684 409/792/684 417/802/684 416/803/684
f 409/792/685 410/791/685 418/804/685 417/802/685
f 410/805/686 411/798/686 419/806/686 418/807/686
f 411/798/687 412/797/687 420/808/687 419/806/687
f 412/800/688 413/799/688 421/478/688 420/809/688
f 413/799/689 406/786/689 414/479/689 421/478/689
