# Blender 5.1.2
# www.blender.org
mtllib SM_BirdOfParadise.mtl
o SM_BirdOfParadise
v -0.114229 1.774480 0.714448
v -0.324528 1.706819 0.581664
v -0.216872 1.533220 0.479270
v -0.374534 1.873966 0.659098
v 0.087511 1.518944 0.543436
v 0.151315 1.723620 0.646062
v -0.133517 1.973155 0.893512
v 0.168661 1.859689 0.763324
v -0.073085 1.500684 0.533260
v -0.058716 1.394997 0.447597
v -0.036643 1.385466 0.454204
v -0.078464 1.384519 0.444822
v -0.049870 1.107328 0.295164
v -0.059308 1.360698 0.451131
v -0.015317 0.821812 0.181443
v 0.013334 0.826988 0.167255
v -0.025596 0.784081 0.142380
v 0.042897 0.369519 0.025389
v 0.014461 0.387317 0.020237
v -0.006218 0.347117 0.016984
v 0.032995 0.026133 -0.050265
v -0.026854 0.008921 -0.057237
v 0.013433 -0.002859 0.010612
v 0.081102 0.015346 -0.039550
v 0.002829 0.317380 0.043107
v 0.163098 2.028611 0.892358
v 0.116790 2.150241 1.057972
v -0.159074 2.113022 1.045865
v 0.055992 2.286771 1.214313
v -0.187314 2.242422 1.214213
v -0.020862 2.356806 1.349494
v -0.100355 2.409282 1.412390
v -0.210194 2.324479 1.349134
v -0.386660 2.371083 1.275026
v -0.238811 2.417047 1.521205
v -0.350290 2.392481 1.385888
v -0.419850 2.269970 1.149916
v -0.424027 2.164518 0.954144
v -0.420762 2.011810 0.809841
v -0.454910 0.844002 -0.010922
v -0.411779 0.806389 -0.122596
v -0.351227 0.724724 -0.077439
v -0.454730 0.886330 -0.142604
v -0.351859 0.724856 0.074163
v -0.395906 0.825689 0.109981
v -0.543517 0.939800 -0.007024
v -0.451030 0.892032 0.126675
v -0.362642 0.712198 -0.002909
v -0.319677 0.661316 -0.002082
v -0.320598 0.657190 0.009298
v -0.320222 0.655759 -0.011521
v -0.321190 0.644616 -0.001236
v -0.178356 0.395382 -0.002854
v -0.184664 0.384150 0.005467
v -0.175122 0.387373 0.017600
v -0.105381 0.177390 0.004871
v -0.113535 0.139567 0.011993
v -0.066530 -0.010930 -0.004987
v -0.063738 -0.000941 0.043062
v -0.101505 0.165903 0.028146
v -0.094848 -0.015840 0.021140
v -0.514235 0.973785 0.132867
v -0.598562 1.031506 0.124328
v -0.669337 1.044995 -0.013389
v -0.679989 1.096147 0.107637
v -0.752456 1.128116 0.082732
v -0.790598 1.151628 0.049862
v -0.770645 1.107918 -0.006740
v -0.752938 1.126552 -0.099133
v -0.856120 1.151912 -0.005557
v -0.802373 1.137598 -0.071397
v -0.695862 1.076847 -0.124941
v -0.602218 1.025859 -0.143779
v -0.532067 0.951966 -0.152937
v 0.425878 1.007167 -0.042926
v 0.401878 0.962910 0.094362
v 0.328920 0.862965 0.055724
v 0.449660 1.059158 0.107779
v 0.298669 0.859977 -0.118308
v 0.334869 0.979429 -0.169343
v 0.519975 1.124374 -0.066440
v 0.390030 1.059893 -0.200401
v 0.327630 0.847583 -0.031997
v 0.281753 0.785539 -0.023672
v 0.280766 0.780562 -0.036876
v 0.284686 0.779309 -0.012905
v 0.205748 0.618517 -0.002079
v 0.284460 0.766195 -0.024802
v 0.144633 0.454050 -0.002126
v 0.131006 0.456915 -0.014115
v 0.127048 0.431499 0.010743
v 0.059760 0.194204 -0.009107
v 0.068164 0.208312 0.016693
v 0.078645 0.164701 0.007193
v 0.038622 -0.013112 0.037676
v 0.024924 -0.002686 -0.016958
v 0.066054 -0.017502 0.001941
v 0.455532 1.159037 -0.221209
v 0.549883 1.231929 -0.229235
v 0.658139 1.255186 -0.085901
v 0.642104 1.312852 -0.227376
v 0.727985 1.355349 -0.213963
v 0.776765 1.385908 -0.184295
v 0.768478 1.334932 -0.114880
v 0.765791 1.357379 -0.005433
v 0.863101 1.391729 -0.134168
v 0.815981 1.372910 -0.047489
v 0.709113 1.296332 0.036329
v 0.609221 1.231231 0.077609
v 0.535830 1.140834 0.103173
v -0.286288 1.056542 0.451966
v -0.366253 1.018156 0.335712
v -0.287226 0.919668 0.306392
v -0.409640 1.112983 0.364906
v -0.142863 0.911568 0.407905
v -0.132540 1.027687 0.475681
v -0.336381 1.169256 0.541021
v -0.149714 1.104883 0.540701
v -0.224325 0.901209 0.366692
v -0.197679 0.841250 0.325239
v -0.187648 0.835843 0.333619
v -0.207356 0.835306 0.319376
v -0.158986 0.678046 0.247735
v -0.198779 0.821791 0.326949
v -0.115543 0.516065 0.196165
v -0.097432 0.519002 0.195173
v -0.112169 0.494659 0.173499
v -0.050298 0.259466 0.127812
v -0.074487 0.274168 0.116234
v -0.075152 0.229887 0.128092
v -0.068194 0.054888 0.069135
v -0.019911 0.063850 0.098625
v -0.062358 0.048205 0.113520
v -0.181464 1.200717 0.606737
v -0.242638 1.269722 0.682737
v -0.420539 1.294067 0.659002
v -0.309295 1.347179 0.750662
v -0.379592 1.386912 0.803964
v -0.435103 1.416683 0.818986
v -0.478231 1.368572 0.761445
v -0.553674 1.395012 0.683349
v -0.531625 1.421089 0.844766
v -0.559498 1.407152 0.749285
v -0.543007 1.337648 0.610693
v -0.501414 1.277822 0.507682
v -0.467447 1.191186 0.433170
v -0.027352 1.734047 -0.392729
v 0.156193 1.663978 -0.374538
v 0.102467 1.524049 -0.284385
v 0.177331 1.797689 -0.429530
v -0.130095 1.526911 -0.232145
v -0.193516 1.694306 -0.264724
v -0.057549 1.903081 -0.505210
v -0.233726 1.810200 -0.328244
v -0.016527 1.508355 -0.278264
v -0.006341 1.419542 -0.223724
v -0.024372 1.413518 -0.222018
v 0.007571 1.410861 -0.229056
v 0.016952 1.185641 -0.140654
v -0.009264 1.393909 -0.229317
v 0.010326 0.958043 -0.075838
v -0.004765 0.961118 -0.056410
v 0.027338 0.925091 -0.055466
v -0.010655 0.605049 0.011199
v 0.026243 0.628261 -0.001482
v 0.009034 0.577776 -0.019574
v 0.020905 0.318871 0.014579
v -0.019483 0.323838 0.029471
v -0.005986 0.318416 -0.004124
v -0.259608 1.951714 -0.404394
v -0.271785 2.060328 -0.522936
v -0.084228 2.094925 -0.675739
v -0.270009 2.178924 -0.638448
v -0.254716 2.244531 -0.750275
v -0.215936 2.289137 -0.814625
v -0.125195 2.215699 -0.813604
v 0.023749 2.239187 -0.815128
v -0.153575 2.303371 -0.933433
v -0.035077 2.267936 -0.878043
v 0.079700 2.148596 -0.748262
v 0.137495 2.047913 -0.623734
v 0.170837 1.917021 -0.536391
v -0.680553 1.644733 0.314899
v -0.678641 1.581394 0.082080
v -0.544070 1.418881 0.117225
v -0.764916 1.737866 0.080490
v -0.444978 1.405516 0.391054
v -0.495157 1.597121 0.492441
v -0.832536 1.830720 0.387881
v -0.516100 1.388423 0.258259
v -0.579899 1.724500 0.564085
v -0.685305 1.882633 0.623307
v -0.839915 1.996496 0.668157
v -0.966359 1.961655 0.442698
v -0.994295 2.124306 0.696903
v -1.114232 2.082790 0.503272
v -1.139760 2.189869 0.702437
v -1.229013 2.238993 0.670214
v -1.232865 2.159606 0.551621
v -1.260948 2.203234 0.374663
v -1.383886 2.246263 0.613730
v -1.331213 2.223266 0.458285
v -1.177779 2.108579 0.286542
v -1.024077 2.009861 0.186650
v -0.907655 1.866906 0.118066
v -0.440855 1.289485 0.227436
v -0.435224 1.280563 0.248257
v -0.448389 1.279677 0.210355
v -0.315212 1.020188 0.159283
v -0.443960 1.257377 0.228708
v -0.207688 0.752907 0.130678
v -0.182267 0.757752 0.146475
v -0.181679 0.717586 0.103231
v -0.054812 0.329499 0.100017
v -0.064740 0.346161 0.074851
v -0.072352 0.308529 0.056793
v 0.000495 0.008044 0.054820
v -0.023479 -0.008069 0.003763
v -0.057590 -0.019097 0.069285
v 0.015700 -0.002054 0.098381
v -0.088674 0.280692 0.076878
v -0.548873 1.348294 -0.298306
v -0.404076 1.296501 -0.421919
v -0.353647 1.163613 -0.319979
v -0.449338 1.424451 -0.476049
v -0.469631 1.152684 -0.112011
v -0.559137 1.309361 -0.088654
v -0.675407 1.500379 -0.353041
v -0.648802 1.413521 -0.102582
v -0.425748 1.138706 -0.227111
v -0.366382 1.057804 -0.197166
v -0.376221 1.050508 -0.182529
v -0.359872 1.049784 -0.210974
v -0.256949 0.837596 -0.156109
v -0.368832 1.031548 -0.198402
v -0.181651 0.619036 -0.105043
v -0.177780 0.622998 -0.080877
v -0.150761 0.590153 -0.103693
v -0.080774 0.272810 -0.027072
v -0.070554 0.286435 -0.046692
v -0.037345 0.008869 0.009614
v -0.063483 0.255663 -0.061072
v -0.004539 -0.003224 -0.059316
v -0.084635 0.232899 -0.060386
v -0.063285 -0.012241 -0.045260
v -0.741873 1.542829 -0.135930
v -0.852441 1.635936 -0.207367
v -0.780989 1.607446 -0.406298
v -0.952942 1.740448 -0.287293
v -0.897657 1.706500 -0.465146
v -1.034330 1.794060 -0.374155
v -1.062273 1.834230 -0.446544
v -0.991103 1.769314 -0.512490
v -0.896878 1.804989 -0.624684
v -1.110406 1.840174 -0.572459
v -0.986181 1.821369 -0.623253
v -0.797881 1.727588 -0.620558
v -0.653809 1.646865 -0.579186
v -0.549052 1.529969 -0.544053
v 0.404053 1.380692 -0.453561
v 0.484118 1.328200 -0.278006
v 0.370729 1.193521 -0.257299
v 0.549481 1.457874 -0.307012
v 0.200438 1.182446 -0.428303
v 0.202640 1.341235 -0.522026
v 0.492671 1.534826 -0.561585
v 0.241215 1.446798 -0.605507
v 0.300349 1.168280 -0.353447
v 0.254617 1.086287 -0.303955
v 0.243099 1.078893 -0.317624
v 0.266255 1.078158 -0.293762
v 0.184095 0.863111 -0.208779
v 0.256504 1.059677 -0.305997
v 0.113340 0.641606 -0.149654
v 0.088715 0.645622 -0.152621
v 0.103411 0.612334 -0.119932
v 0.009238 0.290716 -0.073109
v 0.025505 0.304524 -0.057680
v 0.037544 0.273337 -0.046781
v -0.016486 0.024314 -0.019798
v 0.019396 0.010961 0.010161
v 0.022082 0.001822 -0.050998
v -0.043156 0.015946 -0.047198
v 0.042774 0.250265 -0.067581
v 0.299662 1.577849 -0.686891
v 0.400101 1.672211 -0.774702
v 0.574005 1.643336 -0.649608
v 0.506003 1.778132 -0.850336
v 0.663879 1.743725 -0.746872
v 0.613334 1.832466 -0.905414
v 0.691659 1.873177 -0.912454
v 0.736067 1.807386 -0.824719
v 0.819108 1.843541 -0.701624
v 0.827767 1.879201 -0.924239
v 0.842616 1.860142 -0.789035
v 0.787481 1.765097 -0.606316
v 0.706993 1.683286 -0.477476
v 0.643548 1.564814 -0.385204
v 0.402264 1.491643 0.546086
v 0.195823 1.434270 0.589199
v 0.201034 1.287067 0.463323
v 0.211019 1.576002 0.665869
v 0.424336 1.274961 0.322918
v 0.523732 1.448517 0.347822
v 0.496109 1.660110 0.666565
v 0.603453 1.563897 0.409041
v 0.320483 1.259478 0.411425
v 0.278721 1.169860 0.350756
v 0.296067 1.161779 0.341765
v 0.265052 1.160976 0.360711
v 0.194218 0.925931 0.252661
v 0.280445 1.140776 0.353259
v 0.148209 0.683828 0.162994
v 0.157298 0.688217 0.137454
v 0.118910 0.651833 0.145255
v 0.091651 0.300306 0.033580
v 0.071287 0.315397 0.047211
v 0.056768 0.281311 0.057423
v 0.041004 0.009131 -0.006677
v 0.000426 -0.005464 0.024369
v 0.064985 -0.015453 0.041952
v 0.076634 -0.000016 -0.028518
v 0.077687 0.256095 0.068005
v 0.676156 1.707134 0.490942
v 0.745607 1.810271 0.619159
v 0.570383 1.778711 0.774465
v 0.800760 1.926041 0.750273
v 0.652454 1.888435 0.893694
v 0.833651 1.985427 0.877961
v 0.822307 2.029924 0.963162
v 0.718079 1.958015 0.989394
v 0.566854 1.997533 1.048306
v 0.802116 2.036508 1.111114
v 0.654392 2.015677 1.094407
v 0.472852 1.911794 0.991649
v 0.354856 1.822376 0.874828
v 0.271747 1.692887 0.784979
vn 0.3506 0.4805 -0.8039
vn 0.2768 0.6070 -0.7449
vn 0.4026 0.5424 -0.7374
vn 0.3833 0.6368 -0.6691
vn -0.0120 0.5575 -0.8301
vn -0.0121 0.5575 -0.8301
vn -0.0120 0.5520 -0.8337
vn -0.1335 0.4795 -0.8673
vn -0.0653 0.6539 -0.7538
vn -0.0666 0.6621 -0.7465
vn -0.0743 0.6611 -0.7466
vn -0.2071 0.6007 -0.7721
vn 0.4543 0.5991 -0.6592
vn 0.4544 0.5991 -0.6593
vn -0.0134 0.5665 -0.8240
vn 0.4025 0.5424 -0.7374
vn -0.2188 0.1026 0.9704
vn -0.1956 0.1026 0.9753
vn -0.1248 0.4652 -0.8764
vn -0.6930 -0.3943 0.6035
vn 0.4654 -0.3634 0.8070
vn -0.9024 -0.2512 0.3501
vn -0.2416 0.1023 0.9650
vn 0.3273 -0.4087 0.8519
vn 0.4206 0.4321 -0.7977
vn 0.3451 0.4565 -0.8201
vn 0.3535 0.4495 -0.8203
vn 0.0943 0.4338 -0.8960
vn 0.2500 0.3077 -0.9181
vn 0.2500 0.3077 -0.9180
vn 0.4645 -0.2365 0.8534
vn 0.4645 -0.2366 0.8534
vn 0.3481 0.2983 -0.8888
vn -0.3343 0.2441 -0.9103
vn -0.3343 0.2442 -0.9103
vn -0.1963 0.1804 -0.9638
vn 0.2930 0.1974 -0.9355
vn 0.2542 0.2043 -0.9453
vn 0.2932 0.1976 -0.9354
vn 0.0516 0.2131 -0.9757
vn 0.0517 0.2130 -0.9757
vn 0.2948 -0.8957 -0.3329
vn 0.2948 -0.8957 -0.3330
vn -0.0987 -0.8857 -0.4537
vn -0.0988 -0.8857 -0.4537
vn 0.6017 -0.0630 0.7962
vn 0.5120 -0.1024 0.8529
vn -0.8630 -0.0787 0.4991
vn -0.8630 -0.0786 0.4991
vn -0.9496 -0.0079 0.3133
vn 0.5968 -0.1892 0.7797
vn 0.5968 -0.1893 0.7797
vn -0.9692 -0.0942 0.2274
vn -0.9116 -0.1498 0.3828
vn -0.8110 -0.2993 0.5028
vn -0.8110 -0.2992 0.5027
vn 0.4289 0.4340 -0.7922
vn -0.1143 0.5981 -0.7932
vn -0.1439 0.7769 -0.6130
vn -0.1439 0.7769 -0.6129
vn -0.0706 0.7337 -0.6758
vn -0.0689 0.7299 -0.6801
vn -0.0701 0.7375 -0.6717
vn -0.1510 0.8353 -0.5287
vn -0.1519 0.8408 -0.5195
vn -0.1435 0.8368 -0.5284
vn -0.1447 0.7738 -0.6167
vn -0.1180 0.6833 -0.7206
vn -0.1416 0.8335 -0.5340
vn 0.3923 0.8129 -0.4304
vn 0.3591 0.8871 -0.2900
vn -0.3412 0.8031 -0.4884
vn 0.3084 0.8579 -0.4110
vn 0.3084 0.8579 -0.4111
vn 0.2602 0.7147 -0.6492
vn 0.3153 0.8320 -0.4565
vn 0.2465 0.7872 -0.5653
vn 0.2914 0.6602 -0.6923
vn 0.2915 0.6602 -0.6922
vn 0.3488 0.7165 -0.6041
vn 0.2768 0.7495 -0.6014
vn 0.8531 0.4969 0.1591
vn 0.7767 0.6233 0.0903
vn 0.7768 0.6232 0.0903
vn 0.7935 0.5671 0.2209
vn 0.7953 0.5674 0.2133
vn 0.7218 0.6599 0.2087
vn 0.8029 0.5609 -0.2018
vn 0.8085 0.5507 -0.2074
vn 0.8198 0.4717 -0.3248
vn 0.7137 0.6550 -0.2484
vn 0.7060 0.6628 -0.2496
vn 0.7100 0.6594 -0.2470
vn 0.7059 0.6628 -0.2496
vn 0.7048 0.5907 -0.3929
vn 0.7290 0.6236 0.2824
vn 0.7290 0.6235 0.2824
vn 0.7993 0.5663 -0.2009
vn 0.8387 0.4465 -0.3117
vn -0.9960 0.0868 -0.0231
vn -0.9963 0.0865 0.0003
vn -0.7425 -0.4174 -0.5238
vn -0.7426 -0.4174 -0.5238
vn 0.8800 0.4730 0.0437
vn 0.8581 0.4581 0.2320
vn -0.5266 -0.2981 -0.7962
vn -0.6007 -0.2292 -0.7659
vn -0.6008 -0.2292 -0.7659
vn 0.9485 0.3156 -0.0250
vn 0.9492 0.3146 -0.0003
vn 0.9485 0.3157 -0.0249
vn -0.3047 -0.1103 -0.9460
vn -0.4948 -0.0552 -0.8673
vn 0.9749 0.2121 -0.0673
vn 0.9738 0.2045 -0.0998
vn 0.9757 0.2128 -0.0521
vn -0.6444 -0.1654 0.7466
vn -0.7138 -0.1021 0.6929
vn -0.7402 -0.2136 0.6375
vn -0.7403 -0.2135 0.6375
vn 0.3226 -0.9304 0.1740
vn 0.3225 -0.9304 0.1742
vn 0.3226 -0.9304 0.1741
vn -0.5688 -0.0236 0.8222
vn -0.6587 -0.1261 -0.7418
vn -0.6899 -0.3469 0.6354
vn -0.6899 -0.3468 0.6354
vn -0.7644 -0.3938 0.5106
vn -0.9951 0.0864 -0.0476
vn 0.7441 0.5980 -0.2981
vn 0.7441 0.5980 -0.2980
vn 0.5609 0.7700 -0.3042
vn 0.5608 0.7700 -0.3042
vn 0.6329 0.7318 -0.2529
vn 0.6243 0.7388 -0.2539
vn 0.6328 0.7318 -0.2531
vn 0.4802 0.8262 -0.2944
vn 0.4677 0.8292 -0.3059
vn 0.4803 0.8262 -0.2945
vn 0.6704 0.6845 -0.2865
vn 0.6703 0.6845 -0.2865
vn 0.4957 0.8204 -0.2848
vn 0.5226 0.8109 0.2633
vn 0.3417 0.9062 0.2491
vn 0.3417 0.9062 0.2492
vn 0.3985 0.7884 -0.4687
vn 0.3986 0.7884 -0.4686
vn 0.3985 0.7884 -0.4686
vn 0.4495 0.8751 0.1793
vn 0.4496 0.8751 0.1793
vn 0.6696 0.7406 0.0564
vn 0.4968 0.8579 0.1312
vn 0.4968 0.8579 0.1313
vn 0.7289 0.6750 0.1143
vn 0.6203 0.7563 0.2079
vn 0.6202 0.7564 0.2079
vn 0.6353 0.7637 0.1145
vn -0.8932 0.4494 -0.0139
vn -0.8160 0.5761 0.0471
vn -0.8503 0.5204 -0.0787
vn -0.7846 0.6143 -0.0837
vn -0.7903 0.5112 0.3379
vn -0.7838 0.5199 0.3397
vn -0.7734 0.4338 0.4622
vn -0.7734 0.4339 0.4622
vn -0.6926 0.6230 0.3636
vn -0.6926 0.6230 0.3635
vn -0.6892 0.6277 0.3618
vn -0.6589 0.5586 0.5038
vn -0.8031 0.5743 -0.1586
vn -0.8031 0.5744 -0.1587
vn -0.8557 0.5112 -0.0797
vn 0.9764 0.1496 -0.1556
vn 0.9722 0.1496 -0.1802
vn 0.9764 0.1497 -0.1556
vn -0.7857 0.4163 0.4576
vn 0.8337 -0.3776 0.4030
vn 0.8336 -0.3776 0.4031
vn 0.5872 -0.3143 -0.7460
vn 0.5872 -0.3143 -0.7459
vn 0.6688 -0.2505 0.6999
vn 0.9812 0.1419 -0.1311
vn 0.6814 -0.3621 -0.6360
vn 0.6814 -0.3622 -0.6360
vn -0.9123 0.4015 -0.0812
vn -0.9090 0.4169 -0.0010
vn -0.9090 0.4168 -0.0010
vn -0.8846 0.3871 0.2601
vn -0.9587 0.2589 0.1177
vn -0.9514 0.2591 0.1668
vn -0.9594 0.2595 0.1102
vn 0.6293 -0.1809 -0.7558
vn -0.9513 0.2591 0.1668
vn 0.7149 -0.1729 0.6776
vn 0.4695 -0.0787 0.8794
vn 0.6378 -0.0158 0.7701
vn -0.9583 0.1575 0.2385
vn -0.9532 0.1494 0.2628
vn -0.9514 0.1490 0.2696
vn -0.9624 0.1573 0.2214
vn -0.2930 -0.9503 -0.1049
vn 0.4153 -0.0000 -0.9097
vn 0.5848 -0.0712 -0.8081
vn 0.7869 -0.0711 0.6129
vn 0.5096 -0.1418 -0.8487
vn 0.5096 -0.1417 -0.8486
vn 0.7791 -0.2919 0.5548
vn -0.7112 0.5602 0.4247
vn -0.5457 0.7423 0.3889
vn -0.6189 0.7021 0.3521
vn -0.6190 0.7021 0.3521
vn -0.6181 0.6996 0.3585
vn -0.4688 0.8029 0.3683
vn -0.4559 0.8050 0.3797
vn -0.4689 0.8028 0.3683
vn -0.6498 0.6453 0.4016
vn -0.6499 0.6453 0.4017
vn -0.4846 0.7976 0.3591
vn -0.6066 0.7759 -0.1735
vn -0.4308 0.8818 -0.1920
vn -0.3596 0.7726 0.5232
vn -0.3595 0.7726 0.5233
vn -0.5263 0.8439 -0.1043
vn -0.5262 0.8439 -0.1043
vn -0.7116 0.7004 0.0562
vn -0.5596 0.8275 -0.0459
vn -0.7766 0.6299 0.0134
vn -0.6921 0.7148 -0.1002
vn -0.6876 0.7261 -0.0033
vn -0.6876 0.7261 -0.0032
vn 0.6413 0.4783 -0.6000
vn 0.6414 0.4783 -0.5999
vn 0.5444 0.6064 -0.5795
vn 0.6560 0.5448 -0.5224
vn 0.6187 0.6359 -0.4614
vn 0.3196 0.5574 -0.7663
vn 0.3210 0.5520 -0.7696
vn 0.2222 0.4801 -0.8486
vn 0.2326 0.6539 -0.7199
vn 0.2315 0.6623 -0.7126
vn 0.2314 0.6623 -0.7126
vn 0.1094 0.5973 -0.7945
vn 0.6777 0.5976 -0.4285
vn 0.6778 0.5976 -0.4284
vn 0.3116 0.5672 -0.7624
vn 0.6608 0.5424 -0.5188
vn -0.5830 0.1025 0.8060
vn -0.5601 0.1022 0.8221
vn -0.5831 0.1026 0.8059
vn 0.2312 0.4643 -0.8550
vn -0.8752 -0.3924 0.2830
vn 0.1096 -0.3640 0.9249
vn -0.9672 -0.2517 -0.0346
vn -0.6028 0.1022 0.7913
vn -0.0333 -0.4091 0.9119
vn 0.7007 0.4322 -0.5676
vn 0.6438 0.4547 -0.6155
vn 0.6461 0.4485 -0.6176
vn 0.4425 0.4320 -0.7859
vn 0.4426 0.4319 -0.7859
vn 0.4426 0.4318 -0.7859
vn 0.5957 0.2989 -0.7455
vn 0.5535 0.2992 -0.7773
vn 0.6012 0.2978 -0.7415
vn 0.0936 -0.2365 0.9671
vn -0.9847 -0.1731 0.0183
vn -0.9847 -0.1732 0.0184
vn -0.9534 -0.0628 -0.2952
vn -0.9961 -0.0079 -0.0876
vn 0.5151 0.2048 -0.8323
vn 0.4858 0.1967 -0.8516
vn 0.4858 0.1967 -0.8517
vn 0.5212 0.2043 -0.8286
vn 0.2843 -0.9426 -0.1753
vn 0.3462 -0.0473 0.9370
vn 0.1563 -0.1186 0.9806
vn -0.9894 -0.0790 0.1223
vn 0.2402 -0.1893 0.9521
vn -0.9439 -0.3001 0.1379
vn 0.7033 0.4343 -0.5628
vn 0.2095 0.5994 -0.7725
vn 0.1040 0.7778 -0.6198
vn 0.1040 0.7778 -0.6199
vn 0.1882 0.7394 -0.6464
vn 0.1896 0.7319 -0.6545
vn 0.0689 0.8306 -0.5525
vn 0.0523 0.8338 -0.5496
vn 0.0689 0.8306 -0.5526
vn 0.1744 0.6860 -0.7063
vn 0.0849 0.8283 -0.5538
vn 0.5502 0.7907 -0.2685
vn 0.4431 0.8878 -0.1248
vn -0.1170 0.8020 -0.5857
vn 0.4426 0.8601 -0.2538
vn 0.4592 0.7310 -0.5047
vn 0.4297 0.8444 -0.3200
vn 0.5411 0.6593 -0.5220
vn 0.5411 0.6594 -0.5220
vn 0.5610 0.7359 -0.3792
vn 0.5610 0.7358 -0.3793
vn 0.4904 0.7490 -0.4454
vn 0.0488 0.3721 0.9269
vn 0.0487 0.3721 0.9269
vn 0.1070 0.5112 0.8528
vn -0.0155 0.4497 0.8930
vn -0.0235 0.5507 0.8344
vn -0.0234 0.5507 0.8344
vn 0.3982 0.4326 0.8089
vn 0.3982 0.4325 0.8089
vn 0.5189 0.3473 0.7811
vn 0.5189 0.3472 0.7811
vn 0.4270 0.5457 0.7210
vn 0.4252 0.5512 0.7179
vn 0.5582 0.4803 0.6766
vn 0.5581 0.4804 0.6766
vn -0.0937 0.5118 0.8540
vn 0.4019 0.4408 0.8026
vn -0.0154 0.4496 0.8931
vn -0.1901 0.2285 -0.9548
vn -0.2177 0.2280 -0.9490
vn 0.5109 0.3306 0.7935
vn 0.5109 0.3307 0.7935
vn 0.3492 -0.3297 -0.8771
vn -0.7832 -0.2367 -0.5750
vn 0.6561 -0.2271 -0.7197
vn -0.1685 0.2277 -0.9591
vn -0.6832 -0.2763 -0.6760
vn -0.6831 -0.2763 -0.6760
vn -0.0145 0.3306 0.9437
vn 0.0593 0.3466 0.9361
vn 0.0593 0.3465 0.9362
vn 0.3121 0.3070 0.8991
vn 0.1767 0.1739 0.9688
vn 0.2151 0.1814 0.9596
vn 0.1659 0.1736 0.9708
vn -0.7952 -0.1022 -0.5976
vn 0.2151 0.1815 0.9596
vn 0.6334 -0.1416 -0.7608
vn 0.6334 -0.1415 -0.7607
vn 0.8291 -0.0863 -0.5523
vn 0.8292 -0.0863 -0.5523
vn 0.8291 -0.0862 -0.5523
vn 0.7837 -0.0472 -0.6193
vn 0.3014 0.0549 0.9519
vn 0.3489 0.0395 0.9363
vn 0.2959 0.0552 0.9536
vn -0.0714 -0.9888 0.1312
vn -0.9243 0.0314 -0.3804
vn -0.8530 -0.0315 -0.5209
vn -0.8451 -0.0079 -0.5345
vn -0.8606 -0.0474 -0.5071
vn 0.5726 -0.0787 -0.8160
vn -0.8672 -0.0709 -0.4928
vn 0.5071 -0.2524 -0.8241
vn 0.5071 -0.2523 -0.8242
vn -0.0217 0.3316 0.9432
vn 0.4785 0.4806 0.7349
vn 0.4530 0.6806 0.5758
vn 0.4151 0.6326 0.6538
vn 0.4131 0.6371 0.6507
vn 0.4130 0.6373 0.6506
vn 0.4201 0.6293 0.6538
vn 0.4277 0.7469 0.5091
vn 0.4414 0.7464 0.4980
vn 0.4302 0.7434 0.5121
vn 0.4630 0.5747 0.6748
vn 0.4215 0.7401 0.5240
vn -0.1111 0.7326 0.6715
vn -0.1284 0.8523 0.5071
vn 0.5760 0.7190 0.3889
vn 0.5761 0.7190 0.3889
vn -0.0386 0.8042 0.5931
vn 0.1267 0.6386 0.7591
vn 0.0184 0.7827 0.6221
vn 0.0782 0.5658 0.8209
vn -0.0356 0.6607 0.7498
vn -0.0356 0.6606 0.7499
vn 0.0626 0.6667 0.7427
vn 0.0626 0.6668 0.7426
vn 0.8679 0.4806 -0.1260
vn 0.7785 0.6076 -0.1575
vn 0.8383 0.5429 -0.0509
vn 0.7700 0.6376 -0.0225
vn 0.6974 0.5584 -0.4492
vn 0.7048 0.5503 -0.4477
vn 0.6698 0.4803 -0.5663
vn 0.6047 0.6561 -0.4516
vn 0.5962 0.6633 -0.4523
vn 0.6016 0.6605 -0.4493
vn 0.5963 0.6632 -0.4524
vn 0.6141 0.5997 -0.5131
vn 0.4417 0.7792 -0.4447
vn 0.5349 0.7356 -0.4156
vn 0.5399 0.7301 -0.4189
vn 0.5407 0.7330 -0.4128
vn 0.5319 0.7392 -0.4132
vn 0.3716 0.8369 -0.4020
vn 0.3623 0.8411 -0.4015
vn 0.4509 0.7739 -0.4447
vn 0.5513 0.6858 -0.4750
vn 0.3784 0.8349 -0.3997
vn 0.5728 0.8120 0.1121
vn 0.4297 0.8901 0.1520
vn 0.4298 0.8901 0.1519
vn 0.2354 0.8049 -0.5447
vn 0.2354 0.8050 -0.5447
vn 0.2354 0.8050 -0.5446
vn 0.5113 0.8582 0.0459
vn 0.6890 0.7154 -0.1156
vn 0.5528 0.8328 0.0290
vn 0.6119 0.7868 -0.0809
vn 0.6119 0.7868 -0.0808
vn 0.7397 0.6629 -0.1160
vn 0.6975 0.7163 -0.0187
vn 0.6551 0.7510 -0.0825
vn 0.5455 0.5983 -0.5870
vn 0.8002 0.5985 0.0384
vn 0.6961 0.5662 -0.4414
vn 0.8383 0.5429 -0.0508
vn -0.9413 0.1025 0.3217
vn -0.9317 0.1027 0.3485
vn 0.6842 0.4638 -0.5627
vn 0.6843 0.4638 -0.5627
vn -0.8798 -0.3931 -0.2672
vn -0.4413 -0.3625 0.8209
vn -0.7716 -0.2518 -0.5842
vn -0.9468 0.1025 0.3050
vn -0.5459 -0.4095 0.7310
vn -0.5458 -0.4095 0.7310
vn 0.8986 0.4338 -0.0651
vn 0.8783 0.4570 -0.1403
vn 0.8840 0.4487 -0.1311
vn 0.8137 0.4319 -0.3890
vn 0.9115 0.3083 -0.2721
vn -0.4774 -0.2363 0.8463
vn 0.9389 0.2993 -0.1699
vn 0.9389 0.2993 -0.1700
vn 0.5992 0.2443 -0.7624
vn 0.5993 0.2443 -0.7624
vn 0.7197 0.1812 -0.6703
vn 0.9490 0.1964 -0.2468
vn 0.9380 0.2040 -0.2802
vn 0.9506 0.1969 -0.2398
vn 0.8578 0.2117 -0.4684
vn 0.4348 -0.8976 0.0729
vn 0.3322 -0.8877 -0.3186
vn 0.9380 0.2039 -0.2802
vn -0.3564 -0.0631 0.9322
vn -0.4597 -0.1025 0.8821
vn -0.8770 -0.0786 -0.4740
vn -0.8771 -0.0786 -0.4739
vn -0.7692 -0.0079 -0.6389
vn -0.3463 -0.1895 0.9188
vn -0.7013 -0.0942 -0.7066
vn -0.8052 -0.1495 -0.5739
vn -0.8052 -0.1495 -0.5738
vn -0.8553 -0.2992 -0.4230
vn 0.8989 0.4344 -0.0574
vn 0.6617 0.4796 0.5763
vn 0.6616 0.4797 0.5763
vn 0.6314 0.6070 0.4825
vn 0.6314 0.6071 0.4825
vn 0.5841 0.5457 0.6009
vn 0.5874 0.5423 0.6006
vn 0.5191 0.6390 0.5676
vn 0.7948 0.5581 0.2384
vn 0.7947 0.5582 0.2385
vn 0.7982 0.5527 0.2395
vn 0.8668 0.4806 0.1332
vn 0.7400 0.6538 0.1580
vn 0.7334 0.6621 0.1545
vn 0.7333 0.6621 0.1545
vn 0.7333 0.6621 0.1546
vn 0.8014 0.5973 0.0311
vn 0.8014 0.5973 0.0310
vn 0.4927 0.5976 0.6326
vn 0.7893 0.5671 0.2354
vn 0.5874 0.5424 0.6007
vn 0.5873 0.5425 0.6007
vn -0.8601 0.1024 -0.4997
vn -0.8755 0.1026 -0.4722
vn 0.8741 0.4630 0.1467
vn -0.3745 -0.3944 -0.8392
vn -0.9097 -0.3614 0.2044
vn -0.0642 -0.2521 -0.9656
vn -0.0642 -0.2522 -0.9656
vn -0.8481 0.1022 -0.5200
vn -0.9104 -0.4087 0.0639
vn 0.6371 0.4350 0.6362
vn 0.6787 0.4558 0.5759
vn 0.6811 0.4496 0.5779
vn 0.8261 0.4340 0.3594
vn 0.8048 0.3077 0.5075
vn -0.9519 -0.2365 0.1946
vn 0.7481 0.2983 0.5927
vn 0.7482 0.2983 0.5927
vn 0.7976 0.2120 0.5647
vn 0.7976 0.2120 0.5648
vn 0.9755 0.1496 0.1612
vn 0.9683 0.2441 -0.0535
vn 0.9683 0.2441 -0.0534
vn -0.0219 -0.0079 -0.9997
vn 0.8959 0.2050 0.3942
vn -0.0995 -0.1498 -0.9837
vn -0.0994 -0.1499 -0.9837
vn -0.0994 -0.1498 -0.9837
vn 0.0732 -0.0945 -0.9928
vn -0.8966 -0.0473 0.4404
vn -0.8966 -0.0472 0.4404
vn -0.2191 -0.0788 -0.9725
vn -0.9223 -0.1882 0.3374
vn -0.9580 -0.1181 0.2614
vn 0.2107 -0.9415 0.2630
vn -0.2387 -0.2977 -0.9243
vn -0.2388 -0.2976 -0.9243
vn 0.6326 0.4340 0.6415
vn 0.7920 0.5981 0.1226
vn 0.6282 0.7769 0.0416
vn 0.6669 0.7337 0.1300
vn 0.6705 0.7299 0.1329
vn 0.6631 0.7373 0.1293
vn 0.5472 0.8368 0.0173
vn 0.5412 0.8409 0.0066
vn 0.6339 0.7716 0.0524
vn 0.7214 0.6845 0.1050
vn 0.5521 0.8335 0.0207
vn 0.2926 0.8109 0.5068
vn 0.1658 0.8895 0.4258
vn 0.5668 0.8031 -0.1836
vn 0.3030 0.8578 0.4151
vn 0.5406 0.7139 0.4451
vn 0.3402 0.8305 0.4412
vn 0.4644 0.7863 0.4075
vn 0.5767 0.6602 0.4812
vn 0.5768 0.6602 0.4811
vn 0.4757 0.7165 0.5102
vn 0.4942 0.7494 0.4406
vn 0.4943 0.7494 0.4406
vn -0.7358 0.4812 0.4765
vn -0.6381 0.6057 0.4753
vn -0.7390 0.5448 0.3964
vn -0.6882 0.6371 0.3471
vn -0.4447 0.5590 0.6998
vn -0.4448 0.5589 0.6998
vn -0.4453 0.5502 0.7064
vn -0.3648 0.4788 0.7985
vn -0.3522 0.6548 0.6688
vn -0.3510 0.6629 0.6614
vn -0.3503 0.6592 0.6654
vn -0.3510 0.6629 0.6613
vn -0.2475 0.5971 0.7630
vn -0.7429 0.5960 0.3047
vn -0.4428 0.5644 0.6967
vn 0.7138 0.1021 -0.6929
vn 0.6937 0.1022 -0.7130
vn -0.3817 0.4649 0.7989
vn 0.9099 -0.3947 -0.1275
vn 0.0526 -0.3613 -0.9310
vn 0.9456 -0.2515 0.2064
vn 0.7331 0.1021 -0.6724
vn 0.1896 -0.4087 -0.8928
vn 0.1896 -0.4087 -0.8927
vn -0.7871 0.4350 0.4373
vn -0.7374 0.4561 0.4982
vn -0.7440 0.4475 0.4962
vn -0.5726 0.4338 0.6957
vn -0.7126 0.3070 0.6308
vn -0.7125 0.3070 0.6309
vn 0.0748 -0.2361 -0.9689
vn -0.7774 0.2982 0.5539
vn -0.7773 0.2982 0.5540
vn -0.2146 0.2440 0.9457
vn -0.2145 0.2440 0.9457
vn -0.3684 0.1810 0.9119
vn -0.7579 0.1965 0.6221
vn -0.7312 0.2044 0.6508
vn -0.7579 0.1966 0.6221
vn -0.5785 0.2121 0.7876
vn -0.5784 0.2122 0.7876
vn -0.5785 0.2122 0.7876
vn -0.4260 -0.8977 0.1122
vn -0.1681 -0.8857 0.4328
vn -0.1680 -0.8857 0.4328
vn -0.7312 0.2045 0.6508
vn -0.0728 -0.0630 -0.9954
vn -0.0728 -0.0631 -0.9953
vn 0.0387 -0.1026 -0.9940
vn 0.9953 -0.0792 0.0555
vn 0.9953 -0.0789 0.0554
vn 0.9661 -0.0079 0.2582
vn -0.0678 -0.1894 -0.9796
vn -0.0677 -0.1894 -0.9796
vn 0.9353 -0.0948 0.3410
vn 0.9353 -0.0947 0.3410
vn 0.9725 -0.1491 0.1790
vn 0.9539 -0.2990 0.0244
vn 0.9539 -0.2991 0.0244
vn -0.7905 0.4326 0.4336
vn -0.3375 0.5989 0.7262
vn -0.2109 0.7769 0.5932
vn -0.3095 0.7341 0.6044
vn -0.3164 0.7292 0.6068
vn -0.3167 0.7329 0.6021
vn -0.3078 0.7377 0.6008
vn -0.3095 0.7342 0.6044
vn -0.3168 0.7329 0.6021
vn -0.1677 0.8355 0.5233
vn -0.1583 0.8419 0.5159
vn -0.2198 0.7731 0.5950
vn -0.2197 0.7730 0.5951
vn -0.2198 0.7731 0.5951
vn -0.2955 0.6874 0.6634
vn -0.1754 0.8349 0.5217
vn -0.5670 0.8109 0.1443
vn -0.5671 0.8109 0.1444
vn -0.4544 0.8897 0.0436
vn -0.4544 0.8897 0.0435
vn 0.0123 0.8045 0.5939
vn -0.4839 0.8576 0.1741
vn -0.5759 0.7146 0.3971
vn -0.5758 0.7146 0.3971
vn -0.5129 0.8327 0.2087
vn -0.5188 0.7863 0.3356
vn -0.5187 0.7863 0.3356
vn -0.6209 0.6605 0.4221
vn -0.6209 0.7189 0.3125
vn -0.6210 0.7188 0.3124
vn -0.5622 0.7480 0.3528
vn -0.3005 0.4799 -0.8242
vn -0.3006 0.4799 -0.8242
vn -0.3188 0.6085 -0.7266
vn -0.3189 0.6086 -0.7266
vn -0.2253 0.5455 -0.8073
vn -0.2252 0.5455 -0.8073
vn -0.1853 0.6368 -0.7485
vn -0.1853 0.6368 -0.7484
vn -0.5844 0.5564 -0.5907
vn -0.5843 0.5564 -0.5907
vn -0.5870 0.5509 -0.5932
vn -0.6989 0.4789 -0.5311
vn -0.6989 0.4789 -0.5312
vn -0.5719 0.6539 -0.4953
vn -0.5720 0.6603 -0.4865
vn -0.5720 0.6604 -0.4865
vn -0.5672 0.6637 -0.4876
vn -0.6885 0.5978 -0.4105
vn -0.1314 0.5993 -0.7896
vn -0.5806 0.5669 -0.5844
vn -0.2227 0.5422 -0.8102
vn -0.2253 0.5454 -0.8073
vn 0.5172 0.1019 0.8498
vn 0.5404 0.1026 0.8352
vn 0.5172 0.1018 0.8498
vn -0.6970 0.4635 -0.5471
vn -0.0814 -0.3948 0.9151
vn 0.8959 -0.3640 0.2546
vn -0.4094 -0.2508 0.8772
vn 0.4929 0.1022 0.8640
vn 0.8302 -0.4092 0.3786
vn -0.2541 0.4329 -0.8649
vn -0.3239 0.4566 -0.8286
vn -0.3219 0.4476 -0.8343
vn -0.5501 0.4326 -0.7143
vn -0.4580 0.3067 -0.8344
vn 0.9269 -0.2366 0.2914
vn -0.3684 0.2981 -0.8805
vn -0.8744 0.2448 -0.4189
vn -0.8090 0.1812 -0.5592
vn -0.8090 0.1812 -0.5591
vn -0.4448 0.1970 -0.8737
vn -0.4691 0.2042 -0.8592
vn -0.6414 0.2122 -0.7372
vn -0.6415 0.2123 -0.7372
vn -0.0215 -0.8966 -0.4422
vn -0.3865 -0.8861 -0.2556
vn -0.3865 -0.8861 -0.2557
vn -0.4733 0.2055 -0.8566
vn 0.9867 -0.0628 0.1496
vn 0.9867 -0.0629 0.1496
vn 0.9610 -0.1022 0.2569
vn -0.2726 -0.0787 0.9589
vn -0.4600 -0.0079 0.8879
vn 0.9710 -0.1885 0.1470
vn -0.5399 -0.0946 0.8364
vn -0.3846 -0.1498 0.9108
vn -0.2349 -0.2989 0.9249
vn -0.2471 0.4344 -0.8662
vn -0.6353 0.5975 -0.4892
vn -0.6354 0.5975 -0.4892
vn -0.5325 0.7769 -0.3360
vn -0.5324 0.7769 -0.3361
vn -0.5184 0.7338 -0.4390
vn -0.5238 0.7305 -0.4383
vn -0.5181 0.7394 -0.4299
vn -0.4749 0.8370 -0.2718
vn -0.4717 0.8394 -0.2700
vn -0.4728 0.8358 -0.2792
vn -0.5333 0.7723 -0.3452
vn -0.5334 0.7723 -0.3452
vn -0.5834 0.6866 -0.4339
vn -0.4708 0.8344 -0.2865
vn -0.0136 0.8109 -0.5850
vn 0.0522 0.8894 -0.4541
vn 0.0523 0.8894 -0.4541
vn -0.5866 0.8018 -0.1143
vn -0.0669 0.8594 -0.5069
vn -0.2579 0.7156 -0.6492
vn -0.2579 0.7155 -0.6492
vn -0.0834 0.8326 -0.5476
vn -0.2142 0.7870 -0.5786
vn -0.2141 0.7870 -0.5786
vn -0.2732 0.6604 -0.6995
vn -0.2734 0.6603 -0.6995
vn -0.1666 0.7179 -0.6759
vn -0.2217 0.7468 -0.6271
vn -0.2216 0.7468 -0.6270
vt 0.123840 0.073730
vt 0.096985 0.011719
vt 0.145020 0.002441
vt 0.041931 0.032227
vt 0.037415 0.072266
vt 0.194580 0.079590
vt 0.036957 0.113770
vt 0.092468 0.139160
vt 0.137451 0.150391
vt 0.002310 0.070801
vt 0.000586 0.064941
vt 0.000586 0.076660
vt 0.669922 0.465332
vt 0.664062 0.462402
vt 0.669922 0.456055
vt 0.840332 0.410156
vt 0.834961 0.412598
vt 0.841309 0.328125
vt 0.658203 0.384766
vt 0.660645 0.300781
vt 0.668945 0.299805
vt 0.676758 0.462402
vt 0.829102 0.410645
vt 0.832031 0.247070
vt 0.843262 0.235352
vt 0.839844 0.128418
vt 0.678711 0.176758
vt 0.832031 0.123535
vt 0.846191 0.118652
vt 0.841797 0.031738
vt 0.857910 0.027832
vt 0.717773 0.462402
vt 0.703613 0.454102
vt 0.717773 0.441895
vt 0.695312 0.443848
vt 0.829102 0.028320
vt 0.666504 0.164062
vt 0.672363 0.077637
vt 0.693848 0.082031
vt 0.652344 0.077637
vt 0.657715 0.169922
vt 0.653320 0.287598
vt 0.191650 0.158691
vt 0.245850 0.155273
vt 0.249756 0.082520
vt 0.301025 0.149414
vt 0.342773 0.137207
vt 0.306152 0.085449
vt 0.367676 0.122070
vt 0.348145 0.087402
vt 0.347412 0.036621
vt 0.372314 0.053711
vt 0.399414 0.089844
vt 0.308105 0.021973
vt 0.252686 0.007812
vt 0.199097 0.000977
vt 0.460449 0.036133
vt 0.447266 0.006348
vt 0.470703 0.001465
vt 0.420654 0.016113
vt 0.418457 0.035645
vt 0.494873 0.039062
vt 0.418213 0.055664
vt 0.445068 0.068359
vt 0.467041 0.073730
vt 0.401367 0.034668
vt 0.400391 0.032227
vt 0.400391 0.037598
vt 0.518066 0.779297
vt 0.515625 0.780396
vt 0.519531 0.702148
vt 0.472168 0.778442
vt 0.469482 0.776978
vt 0.472168 0.774048
vt 0.464111 0.705566
vt 0.512695 0.779419
vt 0.514160 0.699707
vt 0.467529 0.703369
vt 0.461670 0.645996
vt 0.520020 0.642334
vt 0.466309 0.636475
vt 0.459229 0.592529
vt 0.512695 0.594238
vt 0.525391 0.592529
vt 0.514160 0.638916
vt 0.472656 0.642578
vt 0.479492 0.595703
vt 0.471436 0.702881
vt 0.432617 0.144043
vt 0.445312 0.144043
vt 0.438477 0.152344
vt 0.469238 0.592529
vt 0.475342 0.776855
vt 0.493408 0.077637
vt 0.519531 0.075684
vt 0.538086 0.040039
vt 0.546387 0.073242
vt 0.566895 0.067383
vt 0.579102 0.060059
vt 0.569824 0.042969
vt 0.569336 0.018066
vt 0.581543 0.026367
vt 0.594727 0.044434
vt 0.550293 0.010742
vt 0.522949 0.004395
vt 0.497070 0.000977
vt 0.639160 0.540283
vt 0.674316 0.525146
vt 0.679688 0.552246
vt 0.662598 0.494141
vt 0.640137 0.491211
vt 0.635742 0.580566
vt 0.616211 0.491211
vt 0.602051 0.522461
vt 0.595703 0.548096
vt 0.641113 0.471680
vt 0.644043 0.470703
vt 0.637695 0.470703
vt 0.446289 0.811646
vt 0.442871 0.810059
vt 0.446045 0.806519
vt 0.502930 0.810181
vt 0.500000 0.811401
vt 0.503418 0.763428
vt 0.438477 0.766724
vt 0.438965 0.719727
vt 0.443848 0.719482
vt 0.449951 0.809814
vt 0.496582 0.810303
vt 0.498291 0.717529
vt 0.504395 0.710693
vt 0.505371 0.650635
vt 0.447754 0.650635
vt 0.498535 0.646484
vt 0.434814 0.712646
vt 0.435059 0.653809
vt 0.440918 0.643066
vt 0.434814 0.592529
vt 0.496582 0.594482
vt 0.511230 0.592529
vt 0.431396 0.153320
vt 0.416504 0.153320
vt 0.424561 0.144043
vt 0.446533 0.593018
vt 0.458008 0.597168
vt 0.590820 0.578613
vt 0.593262 0.609375
vt 0.635254 0.631104
vt 0.596191 0.640869
vt 0.603027 0.664551
vt 0.611816 0.678955
vt 0.631348 0.667725
vt 0.660156 0.667236
vt 0.650391 0.681396
vt 0.629883 0.696777
vt 0.668945 0.645020
vt 0.676270 0.613525
vt 0.680664 0.583008
vt 0.070435 0.575684
vt 0.055206 0.540771
vt 0.082458 0.535400
vt 0.024017 0.552246
vt 0.021454 0.574951
vt 0.110596 0.579102
vt 0.021210 0.598633
vt 0.052643 0.612793
vt 0.078125 0.619385
vt 0.001563 0.573975
vt 0.000586 0.570801
vt 0.000586 0.577393
vt 0.421875 0.811646
vt 0.418701 0.810059
vt 0.421631 0.806519
vt 0.487305 0.810181
vt 0.484131 0.811401
vt 0.487549 0.763428
vt 0.414307 0.766724
vt 0.414551 0.719727
vt 0.419434 0.719482
vt 0.425537 0.809814
vt 0.480713 0.810303
vt 0.482422 0.717529
vt 0.488770 0.710693
vt 0.489502 0.650635
vt 0.423340 0.650635
vt 0.482666 0.646484
vt 0.410400 0.712646
vt 0.410645 0.653809
vt 0.416504 0.643066
vt 0.410400 0.592529
vt 0.480713 0.594482
vt 0.495605 0.592529
vt 0.415283 0.153320
vt 0.400391 0.153320
vt 0.408447 0.144043
vt 0.422119 0.593018
vt 0.433594 0.597168
vt 0.108826 0.624023
vt 0.139526 0.621826
vt 0.161255 0.579834
vt 0.170898 0.618896
vt 0.194702 0.611572
vt 0.208862 0.603271
vt 0.197876 0.583496
vt 0.197388 0.554688
vt 0.211548 0.564453
vt 0.226929 0.584961
vt 0.175049 0.546143
vt 0.143555 0.538330
vt 0.113098 0.534424
vt 0.595215 0.254395
vt 0.642578 0.233887
vt 0.649902 0.270508
vt 0.626953 0.191406
vt 0.596191 0.187988
vt 0.590820 0.308594
vt 0.564453 0.187988
vt 0.544922 0.230469
vt 0.536621 0.264648
vt 0.597656 0.161133
vt 0.602051 0.160156
vt 0.592773 0.160156
vt 0.357178 0.888855
vt 0.352539 0.886597
vt 0.356689 0.881775
vt 0.798340 0.763794
vt 0.794434 0.765625
vt 0.797852 0.700928
vt 0.346436 0.826904
vt 0.346924 0.762329
vt 0.353516 0.761719
vt 0.362061 0.886230
vt 0.789551 0.764160
vt 0.789551 0.638672
vt 0.798340 0.629639
vt 0.797852 0.551025
vt 0.358643 0.668213
vt 0.788086 0.544434
vt 0.341064 0.752319
vt 0.341064 0.674072
vt 0.348877 0.661621
vt 0.346436 0.592529
vt 0.788086 0.471191
vt 0.799316 0.470703
vt 0.492432 0.144043
vt 0.492432 0.155273
vt 0.485596 0.148926
vt 0.354980 0.593018
vt 0.364014 0.594482
vt 0.530273 0.306152
vt 0.533203 0.347656
vt 0.589844 0.376953
vt 0.537109 0.389648
vt 0.546875 0.421875
vt 0.558105 0.440918
vt 0.584473 0.426270
vt 0.623535 0.425781
vt 0.610352 0.444824
vt 0.583008 0.465332
vt 0.635254 0.395508
vt 0.645508 0.353027
vt 0.650879 0.312012
vt 0.080322 0.275391
vt 0.138062 0.250000
vt 0.146851 0.295410
vt 0.119019 0.198730
vt 0.081482 0.194336
vt 0.074524 0.341797
vt 0.042511 0.193848
vt 0.018768 0.246094
vt 0.008224 0.288086
vt 0.000586 0.338867
vt 0.004055 0.389648
vt 0.072083 0.393066
vt 0.009315 0.441406
vt 0.020981 0.480469
vt 0.069336 0.446289
vt 0.034973 0.503662
vt 0.067200 0.485352
vt 0.114868 0.484863
vt 0.098816 0.508057
vt 0.064941 0.533203
vt 0.128418 0.447754
vt 0.141724 0.395996
vt 0.148438 0.345703
vt 0.083069 0.161621
vt 0.088196 0.160156
vt 0.077271 0.160156
vt 0.711914 0.440918
vt 0.706543 0.437988
vt 0.711426 0.432129
vt 0.811523 0.867188
vt 0.806641 0.869263
vt 0.812012 0.790283
vt 0.700684 0.364746
vt 0.703125 0.286133
vt 0.710938 0.285645
vt 0.718262 0.437500
vt 0.800781 0.867310
vt 0.803223 0.714600
vt 0.813965 0.703369
vt 0.810547 0.603516
vt 0.720215 0.170410
vt 0.803711 0.599121
vt 0.816406 0.594238
vt 0.812988 0.512695
vt 0.827637 0.509277
vt 0.622070 0.718994
vt 0.630371 0.706055
vt 0.641602 0.718994
vt 0.639648 0.697998
vt 0.800781 0.509766
vt 0.708496 0.158691
vt 0.714355 0.077637
vt 0.734375 0.081543
vt 0.695312 0.077637
vt 0.700195 0.164062
vt 0.696289 0.273926
vt 0.379150 0.526123
vt 0.358398 0.479004
vt 0.395264 0.471680
vt 0.316406 0.494629
vt 0.312744 0.525146
vt 0.433105 0.530762
vt 0.312500 0.557129
vt 0.354980 0.576416
vt 0.389404 0.585205
vt 0.285889 0.523926
vt 0.284668 0.519775
vt 0.284668 0.528564
vt 0.297607 0.889160
vt 0.293213 0.886841
vt 0.297363 0.882141
vt 0.397705 0.885071
vt 0.393799 0.886780
vt 0.397705 0.822388
vt 0.288574 0.827271
vt 0.290771 0.763062
vt 0.297363 0.762695
vt 0.302734 0.886719
vt 0.388916 0.885315
vt 0.390381 0.760376
vt 0.398926 0.751221
vt 0.395508 0.669678
vt 0.304932 0.668457
vt 0.389893 0.666260
vt 0.388916 0.594971
vt 0.400391 0.662109
vt 0.295410 0.658691
vt 0.288818 0.663086
vt 0.284668 0.592529
vt 0.409180 0.592529
vt 0.285156 0.753052
vt 0.300293 0.592529
vt 0.315674 0.597412
vt 0.192871 0.680176
vt 0.209106 0.691895
vt 0.192871 0.696045
vt 0.430908 0.591309
vt 0.472412 0.588623
vt 0.475342 0.532959
vt 0.514648 0.584229
vt 0.546387 0.574707
vt 0.518555 0.535156
vt 0.565430 0.563232
vt 0.550781 0.536865
vt 0.550293 0.498047
vt 0.569336 0.510986
vt 0.589844 0.538818
vt 0.520020 0.486816
vt 0.477783 0.476074
vt 0.436523 0.470703
vt 0.350830 0.255859
vt 0.398682 0.234863
vt 0.405762 0.271973
vt 0.382812 0.191895
vt 0.351807 0.188477
vt 0.345947 0.310547
vt 0.319336 0.187988
vt 0.299805 0.231445
vt 0.291016 0.266113
vt 0.353027 0.161133
vt 0.357178 0.160156
vt 0.348145 0.160156
vt 0.867676 0.714111
vt 0.862793 0.711914
vt 0.867188 0.707031
vt 0.374268 0.888977
vt 0.370117 0.890686
vt 0.374756 0.825317
vt 0.857910 0.651367
vt 0.859863 0.586426
vt 0.866699 0.585938
vt 0.872559 0.711670
vt 0.365234 0.889160
vt 0.367432 0.762451
vt 0.376221 0.753296
vt 0.373535 0.670410
vt 0.874023 0.490234
vt 0.367676 0.666748
vt 0.378418 0.662842
vt 0.375244 0.595459
vt 0.387695 0.592529
vt 0.654785 0.075684
vt 0.661621 0.064941
vt 0.670898 0.075684
vt 0.668945 0.058594
vt 0.365234 0.593018
vt 0.864746 0.480469
vt 0.869141 0.413574
vt 0.886230 0.416992
vt 0.853516 0.413574
vt 0.857910 0.485352
vt 0.854492 0.576172
vt 0.284668 0.308105
vt 0.287598 0.350098
vt 0.343994 0.353516
vt 0.291992 0.393066
vt 0.301514 0.425293
vt 0.341553 0.396973
vt 0.313232 0.444824
vt 0.339844 0.429688
vt 0.379395 0.429199
vt 0.365967 0.448242
vt 0.337891 0.469238
vt 0.390625 0.398438
vt 0.401611 0.355469
vt 0.407227 0.313965
vt 0.221802 0.264648
vt 0.274170 0.241699
vt 0.281982 0.282715
vt 0.256836 0.194824
vt 0.222900 0.191406
vt 0.216553 0.324707
vt 0.187622 0.190918
vt 0.166016 0.237793
vt 0.156494 0.275879
vt 0.224365 0.161621
vt 0.229004 0.160156
vt 0.219116 0.160156
vt 0.263184 0.827881
vt 0.258301 0.825317
vt 0.262939 0.820068
vt 0.892090 0.349121
vt 0.887207 0.351074
vt 0.892578 0.279297
vt 0.252930 0.759277
vt 0.255127 0.688232
vt 0.262451 0.687744
vt 0.268555 0.825073
vt 0.882324 0.349121
vt 0.884766 0.210449
vt 0.894043 0.200684
vt 0.891113 0.109863
vt 0.270508 0.583252
vt 0.884766 0.105957
vt 0.896484 0.101562
vt 0.893066 0.027832
vt 0.906738 0.024902
vt 0.661621 0.715576
vt 0.649902 0.708252
vt 0.661621 0.697998
vt 0.642578 0.699707
vt 0.882324 0.025391
vt 0.260010 0.572266
vt 0.265137 0.499512
vt 0.283447 0.502686
vt 0.248047 0.499512
vt 0.252686 0.577393
vt 0.249023 0.677002
vt 0.149536 0.321777
vt 0.152710 0.368164
vt 0.214355 0.371094
vt 0.157471 0.415039
vt 0.168091 0.450195
vt 0.211914 0.419434
vt 0.180786 0.471191
vt 0.209961 0.455078
vt 0.253174 0.454102
vt 0.238525 0.475098
vt 0.207886 0.498047
vt 0.265381 0.420898
vt 0.277344 0.374023
vt 0.283447 0.328125
s 1
usemtl M_Leaves
f 1/1/1 2/2/1 4/3/1
f 1/1/2 3/4/2 2/2/2
f 1/1/3 9/5/3 3/4/3
f 7/6/4 1/1/4 4/3/4
f 5/7/5 9/5/6 1/1/7
f 5/7/8 1/1/8 6/8/8
f 6/8/9 1/1/10 8/9/10
f 8/9/10 1/1/10 7/6/11
f 9/5/12 10/10/12 12/11/12
f 9/5/13 11/12/13 10/10/14
f 9/5/6 5/7/5 11/12/15
f 9/5/3 12/11/3 3/4/16
f 10/13/17 12/14/18 14/15/17
f 12/16/19 10/17/19 13/18/19
f 14/15/20 12/14/20 13/19/20
f 14/15/21 15/20/21 16/21/21
f 14/15/22 13/19/22 15/20/22
f 11/22/23 10/13/17 14/15/17
f 14/15/24 16/21/24 11/22/24
f 11/23/25 16/24/26 13/18/27
f 16/24/28 17/25/28 13/18/28
f 16/24/29 19/26/29 17/25/30
f 15/20/31 18/27/32 16/21/32
f 16/24/33 18/28/33 19/26/33
f 17/25/34 19/26/35 20/29/35
f 20/29/36 19/26/36 21/30/36
f 18/28/37 21/30/38 19/26/39
f 20/29/40 21/30/41 22/31/40
f 22/32/42 21/33/43 23/34/42
f 21/33/44 24/35/44 23/34/45
f 18/28/37 24/36/38 21/30/38
f 25/37/46 23/38/46 24/39/46
f 25/37/47 24/39/47 18/27/47
f 25/37/48 22/40/48 23/38/49
f 25/37/50 20/41/50 22/40/50
f 15/20/51 25/37/52 18/27/52
f 15/20/53 20/41/53 25/37/53
f 15/20/54 17/42/54 20/41/54
f 15/20/55 13/19/56 17/42/56
f 11/23/25 13/18/27 10/17/57
f 8/9/58 7/6/58 26/43/58
f 27/44/59 26/43/60 7/6/60
f 27/44/61 7/6/62 28/45/61
f 29/46/63 27/44/61 28/45/61
f 31/47/64 29/46/65 30/48/66
f 29/46/67 28/45/67 30/48/67
f 32/49/68 31/47/68 33/50/68
f 31/47/64 30/48/66 33/50/69
f 30/48/70 34/51/70 33/50/70
f 33/50/71 34/51/71 36/52/71
f 32/49/72 33/50/72 35/53/72
f 33/50/73 36/52/74 35/53/73
f 30/48/75 37/54/75 34/51/75
f 28/45/76 38/55/76 37/54/76
f 28/45/77 37/54/77 30/48/77
f 7/6/78 39/56/78 38/55/79
f 7/6/80 38/55/80 28/45/80
f 7/6/81 4/3/81 39/56/81
f 40/57/82 41/58/82 43/59/82
f 40/57/83 42/60/84 41/58/83
f 40/57/85 48/61/86 42/60/86
f 46/62/87 40/57/87 43/59/87
f 44/63/88 48/61/88 40/57/89
f 44/63/90 40/57/90 45/64/90
f 45/64/91 40/57/92 47/65/93
f 47/65/93 40/57/92 46/62/94
f 48/61/95 49/66/95 51/67/95
f 48/61/96 50/68/97 49/66/96
f 48/61/88 44/63/88 50/68/98
f 48/61/86 51/67/86 42/60/86
f 51/69/99 49/70/99 53/71/99
f 49/72/100 51/73/101 52/74/100
f 52/74/102 51/73/103 53/75/102
f 50/76/104 55/77/104 53/71/104
f 50/76/105 53/71/105 49/70/105
f 52/74/106 53/75/106 54/78/106
f 54/78/107 53/75/108 56/79/108
f 55/77/109 56/80/110 53/71/111
f 54/78/112 56/79/112 57/81/112
f 57/81/113 56/79/113 58/82/113
f 56/80/114 59/83/115 58/84/115
f 60/85/116 59/83/115 56/80/114
f 55/77/109 60/85/110 56/80/110
f 54/78/117 57/81/117 60/86/117
f 57/81/118 59/87/118 60/86/118
f 54/78/119 60/86/120 55/88/119
f 58/89/121 59/90/122 61/91/123
f 57/81/124 61/92/124 59/87/124
f 57/81/125 58/82/125 61/92/125
f 52/74/126 54/78/127 55/88/127
f 52/74/128 55/88/128 50/93/128
f 50/93/129 49/72/100 52/74/100
f 47/65/130 46/62/130 62/94/131
f 63/95/132 62/94/133 46/62/133
f 63/95/134 46/62/135 64/96/134
f 65/97/136 63/95/136 64/96/134
f 66/98/137 65/97/138 64/96/139
f 67/99/140 66/98/141 68/100/140
f 66/98/137 64/96/139 68/100/142
f 64/96/143 69/101/143 68/100/143
f 68/100/144 69/101/144 71/102/145
f 67/99/146 68/100/147 70/103/148
f 68/100/149 71/102/150 70/103/149
f 64/96/151 72/104/151 69/101/151
f 64/96/152 73/105/153 72/104/152
f 46/62/154 74/106/154 73/105/154
f 46/62/155 73/105/156 64/96/155
f 46/62/157 43/59/157 74/106/157
f 75/107/158 76/108/158 78/109/158
f 75/107/159 77/110/159 76/108/159
f 75/107/160 83/111/160 77/110/160
f 81/112/161 75/107/161 78/109/161
f 79/113/162 83/111/163 75/107/162
f 79/113/164 75/107/165 80/114/164
f 80/114/166 75/107/166 82/115/167
f 82/115/167 75/107/166 81/112/168
f 83/111/169 84/116/169 86/117/169
f 83/111/170 85/118/170 84/116/171
f 83/111/163 79/113/162 85/118/163
f 83/111/160 86/117/172 77/110/160
f 84/119/173 86/120/174 88/121/175
f 86/122/176 84/123/176 87/124/176
f 88/121/177 86/120/178 87/125/178
f 88/121/179 89/126/180 90/127/180
f 88/121/181 87/125/181 89/126/181
f 85/128/182 84/119/173 88/121/175
f 88/121/183 90/127/184 85/128/183
f 85/129/185 90/130/186 87/124/187
f 90/130/188 91/131/188 87/124/188
f 90/130/189 93/132/190 91/131/191
f 89/126/192 92/133/192 90/127/192
f 90/130/189 92/134/193 93/132/190
f 89/126/194 91/135/194 93/136/194
f 89/126/195 93/136/195 94/137/195
f 94/137/196 93/136/196 95/138/196
f 93/132/197 96/139/198 95/140/199
f 92/134/200 96/139/198 93/132/197
f 95/141/201 96/142/201 97/143/201
f 94/137/202 97/144/202 96/145/202
f 94/137/203 96/145/203 92/133/203
f 94/137/204 95/138/204 97/144/204
f 89/126/205 94/137/205 92/133/206
f 89/126/207 87/125/207 91/135/207
f 85/129/185 87/124/187 84/123/185
f 82/115/208 81/112/208 98/146/208
f 99/147/209 98/146/209 81/112/209
f 99/147/210 81/112/210 100/148/211
f 101/149/212 99/147/211 100/148/211
f 102/150/213 101/149/214 100/148/215
f 103/151/216 102/150/217 104/152/216
f 102/150/213 100/148/215 104/152/218
f 100/148/219 105/153/219 104/152/219
f 104/152/220 105/153/220 107/154/220
f 103/151/221 104/152/222 106/155/222
f 104/152/223 107/154/224 106/155/224
f 100/148/225 108/156/225 105/153/225
f 100/148/226 109/157/226 108/156/226
f 81/112/227 110/158/227 109/157/227
f 81/112/228 109/157/228 100/148/228
f 81/112/229 78/109/230 110/158/229
f 111/159/231 112/160/231 114/161/232
f 111/159/233 113/162/233 112/160/233
f 111/159/234 119/163/234 113/162/234
f 117/164/235 111/159/235 114/161/235
f 115/165/236 119/163/236 111/159/237
f 115/165/238 111/159/238 116/166/238
f 116/166/239 111/159/240 118/167/240
f 118/167/240 111/159/240 117/164/241
f 119/163/242 120/168/242 122/169/242
f 119/163/243 121/170/244 120/168/244
f 119/163/236 115/165/236 121/170/245
f 119/163/234 122/169/246 113/162/234
f 120/171/247 122/172/248 124/173/249
f 122/174/250 120/175/250 123/176/250
f 124/173/251 122/172/251 123/177/251
f 124/173/252 125/178/252 126/179/252
f 124/173/253 123/177/253 125/178/253
f 121/180/254 120/171/247 124/173/249
f 124/173/255 126/179/255 121/180/255
f 121/181/256 126/182/257 123/176/258
f 126/182/259 127/183/260 123/176/261
f 126/182/262 129/184/263 127/183/264
f 125/178/265 128/185/265 126/179/265
f 126/182/262 128/186/263 129/184/263
f 125/178/266 127/187/267 129/188/266
f 125/178/268 129/188/268 130/189/268
f 130/189/269 129/188/269 131/190/269
f 129/184/270 132/191/271 131/192/272
f 128/186/273 132/191/271 129/184/270
f 131/193/274 132/194/274 133/195/274
f 130/189/275 133/196/275 132/197/275
f 130/189/276 132/197/276 128/185/276
f 130/189/277 131/190/277 133/196/277
f 125/178/278 130/189/278 128/185/278
f 125/178/279 123/177/279 127/187/279
f 121/181/256 123/176/258 120/175/280
f 118/167/281 117/164/281 134/198/281
f 135/199/282 134/198/283 117/164/282
f 135/199/284 117/164/284 136/200/284
f 137/201/285 135/199/284 136/200/284
f 138/202/286 137/201/287 136/200/288
f 139/203/289 138/202/289 140/204/289
f 138/202/286 136/200/288 140/204/290
f 136/200/291 141/205/291 140/204/291
f 140/204/292 141/205/292 143/206/292
f 139/203/293 140/204/293 142/207/293
f 140/204/294 143/206/294 142/207/294
f 136/200/295 144/208/295 141/205/295
f 136/200/296 145/209/296 144/208/296
f 117/164/297 146/210/298 145/209/297
f 117/164/299 145/209/299 136/200/300
f 117/164/301 114/161/301 146/210/301
f 147/211/302 148/212/302 150/213/303
f 147/211/304 149/214/304 148/212/304
f 147/211/305 155/215/305 149/214/305
f 153/216/306 147/211/306 150/213/307
f 151/217/308 155/215/308 147/211/309
f 151/217/310 147/211/310 152/218/311
f 152/218/312 147/211/313 154/219/313
f 154/219/313 147/211/313 153/216/313
f 155/215/314 156/220/315 158/221/315
f 155/215/316 157/222/316 156/220/316
f 155/215/308 151/217/308 157/222/317
f 155/215/318 158/221/318 149/214/318
f 156/223/319 158/224/320 160/225/319
f 158/226/321 156/227/322 159/228/322
f 160/225/323 158/224/323 159/229/323
f 160/225/324 161/230/324 162/231/324
f 160/225/325 159/229/325 161/230/325
f 157/232/326 156/223/319 160/225/319
f 160/225/327 162/231/328 157/232/328
f 157/233/329 162/234/330 159/228/331
f 162/234/332 163/235/332 159/228/332
f 162/234/333 165/236/334 163/235/335
f 161/230/336 164/237/336 162/231/336
f 162/234/333 164/238/337 165/236/334
f 161/230/338 163/239/339 165/240/338
f 161/230/340 165/240/341 166/241/342
f 166/241/343 165/240/343 167/242/343
f 165/236/344 168/243/345 167/244/345
f 164/238/346 168/243/345 165/236/344
f 167/245/347 168/246/347 169/247/347
f 166/241/348 169/248/348 168/249/348
f 166/241/349 168/249/350 164/237/351
f 166/241/352 167/242/352 169/248/352
f 161/230/353 166/241/349 164/237/351
f 161/230/354 159/229/354 163/239/355
f 157/233/329 159/228/331 156/227/356
f 154/219/357 153/216/357 170/250/357
f 171/251/358 170/250/358 153/216/358
f 171/251/359 153/216/360 172/252/361
f 173/253/362 171/251/359 172/252/361
f 174/254/363 173/253/364 172/252/365
f 175/255/366 174/254/366 176/256/366
f 174/254/363 172/252/365 176/256/367
f 172/252/368 177/257/368 176/256/368
f 176/256/369 177/257/369 179/258/369
f 175/255/370 176/256/370 178/259/371
f 176/256/372 179/258/372 178/259/372
f 172/252/373 180/260/373 177/257/373
f 172/252/374 181/261/374 180/260/374
f 153/216/375 182/262/375 181/261/375
f 153/216/376 181/261/376 172/252/377
f 153/216/378 150/213/378 182/262/379
f 183/263/380 184/264/380 186/265/380
f 183/263/381 185/266/381 184/264/381
f 183/263/382 190/267/382 185/266/382
f 189/268/383 183/263/383 186/265/383
f 187/269/384 190/267/384 183/263/385
f 187/269/386 183/263/386 188/270/386
f 188/270/387 183/263/388 191/271/389
f 191/271/389 183/263/388 189/268/390
f 191/271/391 189/268/391 192/272/391
f 193/273/392 192/272/392 189/268/392
f 193/273/393 189/268/394 194/274/395
f 195/275/396 193/273/393 194/274/395
f 197/276/397 195/275/398 196/277/397
f 195/275/399 194/274/399 196/277/399
f 198/278/400 197/276/400 199/279/400
f 197/276/397 196/277/397 199/279/401
f 196/277/402 200/280/402 199/279/402
f 199/279/403 200/280/403 202/281/404
f 198/278/405 199/279/406 201/282/407
f 199/279/408 202/281/408 201/282/408
f 196/277/409 203/283/409 200/280/409
f 194/274/410 204/284/410 203/283/410
f 194/274/411 203/283/412 196/277/412
f 189/268/413 205/285/413 204/284/413
f 189/268/414 204/284/414 194/274/414
f 189/268/415 186/265/415 205/285/415
f 190/267/416 206/286/416 208/287/416
f 190/267/417 207/288/417 206/286/417
f 190/267/384 187/269/384 207/288/418
f 190/267/419 208/287/382 185/266/419
f 206/289/420 208/290/421 210/291/420
f 208/292/422 206/293/423 209/294/423
f 210/291/424 208/290/424 209/295/424
f 210/291/425 211/296/425 212/297/425
f 210/291/426 209/295/426 211/296/426
f 207/298/427 206/289/420 210/291/420
f 210/291/428 212/297/428 207/298/429
f 207/299/430 212/300/431 209/294/432
f 212/300/433 213/301/433 209/294/433
f 212/300/434 215/302/434 213/301/434
f 211/296/435 214/303/435 212/297/435
f 212/300/436 214/304/437 215/302/436
f 213/301/438 215/302/439 216/305/439
f 216/305/440 215/302/440 217/306/440
f 214/304/441 217/306/442 215/302/443
f 216/305/444 217/306/444 218/307/444
f 218/308/445 217/309/445 219/310/445
f 217/309/446 220/311/446 219/310/446
f 214/304/441 220/312/447 217/306/442
f 221/313/448 219/314/448 220/315/448
f 221/313/449 220/315/449 214/303/449
f 221/313/450 218/316/450 219/314/451
f 221/313/452 216/317/452 218/316/452
f 211/296/453 221/313/453 214/303/453
f 211/296/454 216/317/454 221/313/454
f 211/296/455 213/318/456 216/317/456
f 211/296/457 209/295/457 213/318/457
f 207/299/430 209/294/432 206/293/458
f 222/319/459 223/320/460 225/321/460
f 222/319/461 224/322/462 223/320/462
f 222/319/463 230/323/464 224/322/464
f 228/324/465 222/319/465 225/321/465
f 226/325/466 230/323/467 222/319/468
f 226/325/469 222/319/469 227/326/469
f 227/326/470 222/319/471 229/327/472
f 229/327/472 222/319/471 228/324/473
f 230/323/474 231/328/474 233/329/475
f 230/323/476 232/330/476 231/328/476
f 230/323/467 226/325/466 232/330/477
f 230/323/478 233/329/478 224/322/479
f 231/331/480 233/332/481 235/333/480
f 233/334/482 231/335/482 234/336/482
f 235/333/483 233/332/483 234/337/483
f 235/333/484 236/338/484 237/339/484
f 235/333/485 234/337/485 236/338/486
f 232/340/487 231/331/480 235/333/480
f 235/333/488 237/339/488 232/340/488
f 232/341/489 237/342/490 234/336/491
f 237/342/492 238/343/492 234/336/492
f 237/342/493 240/344/493 238/343/493
f 236/338/494 239/345/494 237/339/494
f 237/342/495 239/346/496 240/344/495
f 239/346/497 241/347/497 240/344/498
f 242/348/499 240/344/499 241/347/499
f 238/343/500 240/344/501 242/348/500
f 244/349/502 242/350/502 243/351/502
f 242/348/503 241/347/503 243/352/503
f 236/338/504 238/353/505 242/350/506
f 236/338/507 242/350/507 244/349/507
f 244/349/508 245/354/509 241/355/509
f 244/349/510 243/351/510 245/354/510
f 236/338/511 244/349/511 239/345/511
f 244/349/512 241/355/512 239/345/512
f 243/356/513 241/357/513 245/358/513
f 236/338/514 234/337/514 238/353/515
f 232/341/489 234/336/491 231/335/516
f 229/327/517 228/324/517 246/359/517
f 247/360/518 246/359/518 228/324/518
f 247/360/519 228/324/520 248/361/520
f 249/362/521 247/360/519 248/361/520
f 251/363/522 249/362/523 250/364/522
f 249/362/524 248/361/524 250/364/524
f 252/365/525 251/363/525 253/366/525
f 251/363/522 250/364/522 253/366/526
f 250/364/527 254/367/527 253/366/527
f 253/366/528 254/367/528 256/368/528
f 252/365/529 253/366/529 255/369/529
f 253/366/530 256/368/530 255/369/530
f 250/364/531 257/370/531 254/367/531
f 248/361/532 258/371/532 257/370/532
f 248/361/533 257/370/533 250/364/533
f 228/324/534 259/372/535 258/371/534
f 228/324/536 258/371/536 248/361/536
f 228/324/537 225/321/538 259/372/538
f 260/373/539 261/374/539 263/375/539
f 260/373/540 262/376/540 261/374/540
f 260/373/541 268/377/541 262/376/541
f 266/378/542 260/373/542 263/375/542
f 264/379/543 268/377/544 260/373/545
f 264/379/546 260/373/546 265/380/546
f 265/380/547 260/373/548 267/381/549
f 267/381/549 260/373/548 266/378/550
f 268/377/551 269/382/551 271/383/551
f 268/377/552 270/384/552 269/382/552
f 268/377/544 264/379/543 270/384/553
f 268/377/541 271/383/541 262/376/541
f 269/385/554 271/386/555 273/387/554
f 271/388/556 269/389/556 272/390/556
f 273/387/557 271/386/557 272/391/557
f 273/387/558 274/392/558 275/393/558
f 273/387/559 272/391/559 274/392/559
f 270/394/560 269/385/554 273/387/554
f 273/387/561 275/393/562 270/394/561
f 270/395/563 275/396/564 272/390/565
f 275/396/566 276/397/566 272/390/566
f 275/396/567 278/398/568 276/397/568
f 274/392/569 277/399/569 275/393/569
f 275/396/570 277/400/571 278/398/570
f 276/397/572 278/398/573 279/401/573
f 279/401/574 278/398/574 280/402/574
f 277/400/575 280/402/576 278/398/577
f 279/401/578 280/402/579 281/403/580
f 281/404/581 280/405/581 282/406/581
f 280/405/582 283/407/583 282/406/582
f 277/400/575 283/408/584 280/402/576
f 284/409/585 282/410/585 283/411/586
f 284/409/587 283/411/587 277/399/587
f 284/409/588 281/412/588 282/410/589
f 284/409/590 279/413/590 281/412/590
f 274/392/591 284/409/592 277/399/592
f 274/392/593 279/413/593 284/409/594
f 274/392/595 276/414/595 279/413/595
f 274/392/596 272/391/597 276/414/597
f 270/395/563 272/390/565 269/389/598
f 267/381/599 266/378/599 285/415/599
f 286/416/600 285/415/600 266/378/600
f 286/416/601 266/378/602 287/417/603
f 288/418/604 286/416/605 287/417/606
f 290/419/607 288/418/608 289/420/607
f 288/418/609 287/417/610 289/420/611
f 291/421/612 290/419/612 292/422/612
f 290/419/607 289/420/607 292/422/613
f 289/420/614 293/423/615 292/422/615
f 292/422/616 293/423/617 295/424/617
f 291/421/618 292/422/618 294/425/618
f 292/422/619 295/424/619 294/425/619
f 289/420/620 296/426/621 293/423/621
f 287/417/622 297/427/622 296/426/622
f 287/417/623 296/426/623 289/420/624
f 266/378/625 298/428/625 297/427/625
f 266/378/626 297/427/627 287/417/627
f 266/378/628 263/375/628 298/428/628
f 299/429/629 300/430/629 302/431/630
f 299/429/631 301/432/632 300/430/632
f 299/429/633 307/433/634 301/432/633
f 305/434/635 299/429/635 302/431/636
f 303/435/637 307/433/638 299/429/639
f 303/435/640 299/429/641 304/436/641
f 304/436/642 299/429/643 306/437/644
f 306/437/644 299/429/643 305/434/645
f 307/433/646 308/438/646 310/439/646
f 307/433/647 309/440/647 308/438/647
f 307/433/638 303/435/637 309/440/648
f 307/433/633 310/439/649 301/432/650
f 308/441/651 310/442/652 312/443/653
f 310/444/654 308/445/654 311/446/654
f 312/443/655 310/442/655 311/447/655
f 312/443/656 313/448/656 314/449/656
f 312/443/657 311/447/657 313/448/657
f 309/450/658 308/441/651 312/443/653
f 312/443/659 314/449/659 309/450/659
f 309/451/660 314/452/661 311/446/662
f 314/452/663 315/453/663 311/446/663
f 314/452/664 317/454/664 315/453/664
f 313/448/665 316/455/665 314/449/665
f 314/452/666 316/456/666 317/454/666
f 315/453/667 317/454/667 318/457/667
f 318/457/668 317/454/669 319/458/668
f 316/456/670 319/458/671 317/454/670
f 318/457/672 319/458/672 320/459/673
f 320/460/674 319/461/674 321/462/674
f 319/461/675 322/463/676 321/462/676
f 316/456/670 322/464/677 319/458/671
f 323/465/678 321/466/678 322/467/679
f 323/465/680 322/467/680 316/455/680
f 323/465/681 320/468/681 321/466/681
f 323/465/682 318/469/682 320/468/682
f 313/448/683 323/465/683 316/455/683
f 313/448/684 318/469/684 323/465/684
f 313/448/685 315/470/685 318/469/685
f 313/448/686 311/447/686 315/470/686
f 309/451/660 311/446/662 308/445/687
f 306/437/688 305/434/689 324/471/689
f 325/472/690 324/471/691 305/434/690
f 325/472/692 305/434/693 326/473/692
f 327/474/694 325/472/692 326/473/692
f 329/475/695 327/474/696 328/476/697
f 327/474/698 326/473/699 328/476/698
f 330/477/700 329/475/700 331/478/700
f 329/475/695 328/476/697 331/478/701
f 328/476/702 332/479/702 331/478/702
f 331/478/703 332/479/703 334/480/704
f 330/477/705 331/478/705 333/481/705
f 331/478/706 334/480/706 333/481/706
f 328/476/707 335/482/708 332/479/707
f 326/473/709 336/483/709 335/482/709
f 326/473/710 335/482/710 328/476/711
f 305/434/712 337/484/712 336/483/713
f 305/434/714 336/483/714 326/473/714
f 305/434/715 302/431/716 337/484/715
