# Blender 5.1.2
# www.blender.org
mtllib SM_GroundPlant_02.mtl
o SM_GroundPlant_02
v -0.433791 0.383139 0.307119
v -0.217872 0.368785 0.158002
v -0.240301 0.477861 0.359943
v -0.375428 0.512266 0.508895
v -0.495216 0.489432 0.562625
v -0.451002 0.405996 0.084207
v -0.231534 0.364233 0.140091
v -0.636942 0.422975 0.167301
v -0.712988 0.403046 0.287917
v -0.748471 0.308190 0.565293
v -0.176800 0.355227 0.100598
v -0.163138 0.359779 0.118509
v -0.121260 0.319025 0.067595
v -0.107599 0.323577 0.085506
v -0.083667 0.264878 0.053003
v -0.070006 0.269430 0.070914
v -0.005328 0.001473 0.059274
v -0.018989 -0.003080 0.041362
v 0.406426 0.424967 0.188461
v 0.153929 0.320726 0.100051
v 0.328206 0.436109 -0.040638
v 0.531849 0.525833 -0.027552
v 0.651959 0.553273 0.050017
v 0.205979 0.459527 0.326000
v 0.145950 0.322353 0.123803
v 0.380753 0.554791 0.427164
v 0.537712 0.565118 0.427380
v 0.832788 0.479806 0.328729
v 0.081553 0.290568 0.104380
v 0.089532 0.288941 0.080628
v 0.028586 0.230995 0.090525
v 0.036564 0.229368 0.066773
v -0.016911 0.012450 0.077331
v -0.008933 0.010823 0.053579
v -0.036374 0.284091 0.317659
v -0.111852 0.285103 0.020913
v 0.120264 0.366254 0.129228
v 0.232853 0.382241 0.337993
v 0.236552 0.352990 0.490430
v -0.275963 0.361092 0.245297
v -0.137553 0.284898 0.028426
v -0.258269 0.375585 0.482315
v -0.164833 0.331545 0.614489
v 0.094784 0.164101 0.765924
v -0.159751 0.279407 -0.047543
v -0.134051 0.279611 -0.055057
v -0.181066 0.241372 -0.122004
v -0.155365 0.241576 -0.129518
v -0.153780 0.015679 -0.264593
v -0.179480 0.015474 -0.257079
v -0.188543 0.334526 -0.328494
v 0.006190 0.328040 -0.140428
v -0.217976 0.401579 -0.111977
v -0.399561 0.420646 -0.216218
v -0.473494 0.398732 -0.329834
v 0.026105 0.401759 -0.383596
v 0.022030 0.328166 -0.158032
v -0.097237 0.420651 -0.553237
v -0.229409 0.384747 -0.610255
v -0.496781 0.239529 -0.607505
v 0.058149 0.321308 -0.093759
v 0.073989 0.321434 -0.111363
v 0.108418 0.285843 -0.048607
v 0.124259 0.285970 -0.066211
v 0.155594 0.230601 -0.038066
v 0.139754 0.230475 -0.020462
v 0.204832 -0.005157 0.006159
v 0.188991 -0.005283 0.023763
v 0.423804 0.334635 -0.217672
v 0.216046 0.315867 -0.057337
v 0.225617 0.425230 -0.260443
v 0.352197 0.462340 -0.416414
v 0.469626 0.441969 -0.476364
v 0.452121 0.358206 0.004293
v 0.230732 0.311628 -0.040139
v 0.633294 0.379056 -0.088473
v 0.703456 0.360559 -0.213018
v 0.726520 0.265971 -0.492156
v 0.178270 0.301501 0.002200
v 0.163585 0.305739 -0.014998
v 0.125248 0.264126 0.038100
v 0.110562 0.268364 0.020902
v 0.089591 0.209146 0.054665
v 0.074905 0.213384 0.037468
v 0.028647 -0.023021 0.069721
v 0.013961 -0.018783 0.052523
v 0.093652 0.254330 -0.416704
v 0.013160 0.215996 -0.123459
v -0.138947 0.315749 -0.321576
v -0.134803 0.360703 -0.555217
v -0.061717 0.351044 -0.692035
v 0.263321 0.315942 -0.226653
v 0.039240 0.216136 -0.117273
v 0.364042 0.360742 -0.437983
v 0.349659 0.335961 -0.603435
v 0.205304 0.195050 -0.882557
v -0.004702 0.200405 -0.047666
v 0.021377 0.200545 -0.041480
v -0.021222 0.152722 0.022430
v 0.004858 0.152862 0.028616
v -0.004565 -0.000294 0.068597
v -0.030645 -0.000434 0.062411
v -0.477786 0.310175 -0.043346
v -0.233094 0.304255 -0.008948
v -0.383359 0.371377 0.132325
v -0.573371 0.388780 0.152770
v -0.688919 0.368779 0.108538
v -0.348847 0.371542 -0.199193
v -0.230842 0.304370 -0.030446
v -0.530937 0.388785 -0.258287
v -0.659125 0.356014 -0.229481
v -0.855084 0.223468 -0.084007
v -0.169688 0.298111 -0.002362
v -0.167436 0.298226 -0.023860
v -0.108345 0.265741 0.004009
v -0.106092 0.265856 -0.017488
v -0.067853 0.215319 -0.013516
v -0.070106 0.215203 0.007981
v -0.007769 0.000133 -0.007275
v -0.010022 0.000018 0.014222
vn -0.0705 0.9787 -0.1927
vn -0.0705 0.9787 -0.1928
vn -0.2782 0.8338 -0.4768
vn -0.2876 0.8431 -0.4544
vn -0.2876 0.8431 -0.4543
vn -0.3500 0.8314 -0.4315
vn -0.5250 0.7326 -0.4332
vn 0.1303 0.9871 0.0927
vn 0.1615 0.9831 0.0858
vn 0.0544 0.9783 0.1999
vn 0.0487 0.9444 0.3251
vn -0.0132 0.9712 -0.2377
vn -0.0133 0.9712 -0.2377
vn 0.2950 0.8502 -0.4361
vn 0.5849 0.5584 -0.5883
vn 0.5848 0.5585 -0.5883
vn 0.7513 0.2043 -0.6276
vn -0.3237 0.9299 -0.1750
vn -0.3237 0.9299 -0.1749
vn -0.4292 0.8832 0.1889
vn -0.4293 0.8832 0.1889
vn -0.4077 0.8956 0.1782
vn -0.3479 0.9106 0.2229
vn -0.3480 0.9106 0.2229
vn -0.2392 0.8882 0.3923
vn -0.1853 0.8551 -0.4841
vn -0.2038 0.8362 -0.5092
vn -0.0540 0.8739 -0.4831
vn 0.0706 0.8431 -0.5331
vn -0.3849 0.9038 -0.1870
vn -0.6839 0.6743 -0.2787
vn -0.9213 0.2128 -0.3254
vn -0.9214 0.2127 -0.3253
vn -0.9213 0.2128 -0.3253
vn -0.0091 0.9999 0.0065
vn -0.3689 0.9242 0.0984
vn -0.3689 0.9242 0.0983
vn -0.3475 0.9303 0.1176
vn -0.3490 0.9195 0.1806
vn -0.3491 0.9195 0.1805
vn -0.3490 0.9196 0.1806
vn -0.4323 0.8315 0.3490
vn -0.4324 0.8314 0.3490
vn 0.3242 0.9425 -0.0810
vn 0.3372 0.9349 -0.1107
vn 0.3938 0.9188 0.0262
vn 0.3937 0.9188 0.0262
vn 0.5051 0.8589 0.0847
vn -0.0296 0.9977 -0.0607
vn -0.1291 0.8978 -0.4210
vn -0.2442 0.4969 -0.8327
vn 0.0117 0.9998 0.0189
vn 0.0118 0.9998 0.0190
vn 0.2698 0.9294 -0.2520
vn 0.2460 0.9347 -0.2567
vn 0.2460 0.9347 -0.2566
vn 0.2108 0.9260 -0.3131
vn 0.2108 0.9260 -0.3132
vn 0.1907 0.8454 -0.4990
vn 0.1906 0.8454 -0.4989
vn -0.2253 0.9361 0.2702
vn -0.2158 0.9300 0.2974
vn -0.3418 0.9157 0.2114
vn -0.4644 0.8574 0.2219
vn -0.4644 0.8574 0.2218
vn 0.0660 0.9957 0.0643
vn 0.0661 0.9957 0.0643
vn 0.3400 0.8858 0.3158
vn 0.5869 0.6073 0.5354
vn 0.5869 0.6074 0.5354
vn 0.7145 0.2682 0.6462
vn 0.7145 0.2682 0.6463
vn 0.7144 0.2681 0.6463
vn 0.0601 0.9794 0.1927
vn 0.2860 0.8394 0.4623
vn 0.2921 0.8490 0.4403
vn 0.3563 0.8411 0.4070
vn 0.3563 0.8410 0.4071
vn 0.5373 0.7414 0.4021
vn -0.1577 0.9838 -0.0857
vn -0.1924 0.9782 -0.0778
vn -0.0848 0.9781 -0.1902
vn -0.0843 0.9415 -0.3262
vn 0.0013 0.9718 0.2357
vn 0.0012 0.9718 0.2357
vn -0.2851 0.8452 0.4522
vn -0.2851 0.8451 0.4522
vn -0.5644 0.5490 0.6165
vn -0.5643 0.5491 0.6165
vn -0.5644 0.5491 0.6165
vn -0.7130 0.2278 0.6631
vn -0.0365 0.9920 0.1208
vn 0.3310 0.9205 0.2074
vn 0.3215 0.9294 0.1810
vn 0.3575 0.9256 0.1245
vn 0.5137 0.8578 0.0160
vn -0.3633 0.9312 0.0279
vn -0.3837 0.9223 0.0473
vn -0.3723 0.9223 -0.1040
vn -0.3723 0.9223 -0.1039
vn -0.4348 0.8743 -0.2157
vn -0.4347 0.8744 -0.2158
vn -0.0526 0.9805 0.1891
vn -0.0526 0.9806 0.1891
vn -0.1340 0.8344 0.5346
vn -0.2216 0.2591 0.9401
vn -0.2217 0.2591 0.9401
vn 0.0206 0.9998 0.0084
vn 0.0207 0.9998 0.0084
vn 0.0701 0.9294 -0.3624
vn 0.0482 0.9347 -0.3523
vn 0.0482 0.9347 -0.3522
vn -0.0135 0.9260 -0.3773
vn -0.1390 0.8454 -0.5157
vn -0.0235 0.9361 0.3510
vn 0.0002 0.9300 0.3674
vn -0.1522 0.9157 0.3719
vn -0.2453 0.8574 0.4525
vn -0.2453 0.8574 0.4524
vn 0.0912 0.9957 0.0132
vn 0.4607 0.8858 0.0557
vn 0.4607 0.8858 0.0556
vn 0.7895 0.6073 0.0881
vn 0.7895 0.6074 0.0882
vn 0.9579 0.2682 0.1029
vn 0.9579 0.2681 0.1029
vt 0.708496 0.349121
vt 0.708496 0.339844
vt 0.821777 0.345215
vt 0.768555 0.425293
vt 0.851562 0.447754
vt 0.905273 0.434570
vt 0.999512 0.344727
vt 0.851562 0.241211
vt 0.768555 0.263672
vt 0.908691 0.260742
vt 0.679688 0.339844
vt 0.679688 0.349121
vt 0.648926 0.339844
vt 0.648926 0.349121
vt 0.620605 0.339844
vt 0.620605 0.349609
vt 0.490723 0.336426
vt 0.490723 0.326660
vt 0.173706 0.600342
vt 0.173706 0.589844
vt 0.297852 0.595947
vt 0.239624 0.683350
vt 0.330078 0.708008
vt 0.388916 0.693604
vt 0.491699 0.594971
vt 0.330322 0.482422
vt 0.239746 0.506836
vt 0.392578 0.503662
vt 0.142578 0.600098
vt 0.142578 0.589600
vt 0.108704 0.589844
vt 0.108704 0.600342
vt 0.000230 0.595947
vt 0.000230 0.606445
vt 0.339355 0.115234
vt 0.339355 0.126465
vt 0.207031 0.120117
vt 0.269043 0.026855
vt 0.172729 0.000488
vt 0.109741 0.016113
vt 0.000230 0.121094
vt 0.172363 0.241211
vt 0.268799 0.214844
vt 0.106018 0.218262
vt 0.372559 0.126465
vt 0.372559 0.115234
vt 0.408691 0.126465
vt 0.408691 0.115234
vt 0.531250 0.099609
vt 0.531250 0.110840
vt 0.208008 0.819458
vt 0.208008 0.809570
vt 0.324951 0.815552
vt 0.270020 0.897888
vt 0.355469 0.921143
vt 0.411133 0.907471
vt 0.507812 0.814575
vt 0.355713 0.708496
vt 0.270264 0.731445
vt 0.414307 0.728516
vt 0.178589 0.819458
vt 0.178589 0.809570
vt 0.146729 0.819580
vt 0.146729 0.809570
vt 0.117615 0.809692
vt 0.117615 0.819580
vt 0.000230 0.810303
vt 0.000230 0.820190
vt 0.695312 0.590332
vt 0.695312 0.580811
vt 0.809082 0.586426
vt 0.755371 0.666504
vt 0.838379 0.689209
vt 0.892578 0.676025
vt 0.986816 0.585693
vt 0.838867 0.482422
vt 0.755859 0.504883
vt 0.895996 0.501953
vt 0.666504 0.580811
vt 0.666504 0.590332
vt 0.635742 0.580811
vt 0.635742 0.590332
vt 0.607422 0.580811
vt 0.607422 0.590576
vt 0.492188 0.571777
vt 0.492188 0.581299
vt 0.150879 0.367188
vt 0.150879 0.355957
vt 0.283203 0.362793
vt 0.221191 0.456055
vt 0.317627 0.481934
vt 0.380615 0.466797
vt 0.490234 0.361816
vt 0.318115 0.241211
vt 0.221436 0.267578
vt 0.384521 0.264160
vt 0.117676 0.367188
vt 0.117676 0.355957
vt 0.081543 0.367188
vt 0.081543 0.355957
vt 0.000230 0.356445
vt 0.000230 0.367676
s 1
usemtl M_GroundLeaves
f 2/1/1 7/2/2 1/3/1
f 1/3/3 3/4/3 2/1/3
f 1/3/4 4/5/5 3/4/4
f 4/5/6 1/3/6 5/6/6
f 5/6/7 1/3/7 10/7/7
f 8/8/8 1/3/8 6/9/8
f 6/9/9 1/3/9 7/2/9
f 8/8/10 9/10/10 1/3/10
f 1/3/11 9/10/11 10/7/11
f 2/1/12 11/11/12 7/2/12
f 11/11/12 2/1/12 12/12/13
f 12/12/14 13/13/14 11/11/14
f 13/13/14 12/12/14 14/14/14
f 14/14/15 15/15/16 13/13/15
f 15/15/16 14/14/15 16/16/15
f 16/16/17 17/17/17 15/15/17
f 15/15/17 17/17/17 18/18/17
f 20/19/18 25/20/19 19/21/18
f 19/21/20 21/22/21 20/19/20
f 19/21/22 22/23/22 21/22/22
f 22/23/23 19/21/24 23/24/24
f 23/24/25 19/21/25 28/25/25
f 26/26/26 19/21/26 24/27/26
f 24/27/27 19/21/27 25/20/27
f 26/26/28 27/28/28 19/21/28
f 19/21/29 27/28/29 28/25/29
f 30/29/30 25/20/30 20/19/30
f 29/30/30 25/20/30 30/29/30
f 30/29/31 31/31/31 29/30/31
f 31/31/31 30/29/31 32/32/31
f 32/32/32 33/33/33 31/31/33
f 33/33/33 32/32/32 34/34/34
f 36/35/35 41/36/35 35/37/35
f 35/37/36 37/38/37 36/35/37
f 35/37/38 38/39/38 37/38/38
f 38/39/39 35/37/40 39/40/41
f 39/40/42 35/37/43 44/41/42
f 42/42/44 35/37/44 40/43/44
f 40/43/45 35/37/45 41/36/45
f 42/42/46 43/44/47 35/37/46
f 35/37/48 43/44/48 44/41/48
f 36/35/49 45/45/49 41/36/49
f 45/45/49 36/35/49 46/46/49
f 46/46/50 47/47/50 45/45/50
f 47/47/50 46/46/50 48/48/50
f 48/48/51 49/49/51 47/47/51
f 47/47/51 49/49/51 50/50/51
f 52/51/52 57/52/53 51/53/52
f 51/53/54 53/54/54 52/51/54
f 51/53/55 54/55/55 53/54/56
f 54/55/57 51/53/58 55/56/58
f 55/56/59 51/53/59 60/57/60
f 58/58/61 51/53/61 56/59/61
f 56/59/62 51/53/62 57/52/62
f 58/58/63 59/60/63 51/53/63
f 51/53/64 59/60/65 60/57/65
f 52/51/66 61/61/66 57/52/66
f 62/62/67 57/52/67 61/61/67
f 61/61/68 63/63/68 62/62/68
f 64/64/68 62/62/68 63/63/68
f 63/63/69 65/65/69 64/64/70
f 65/65/69 63/63/69 66/66/69
f 66/66/71 67/67/72 65/65/73
f 67/67/72 66/66/71 68/68/73
f 70/69/74 75/70/74 69/71/74
f 69/71/75 71/72/75 70/69/75
f 69/71/76 72/73/76 71/72/76
f 72/73/77 69/71/77 73/74/78
f 73/74/79 69/71/79 78/75/79
f 76/76/80 69/71/80 74/77/80
f 74/77/81 69/71/81 75/70/81
f 76/76/82 77/78/82 69/71/82
f 69/71/83 77/78/83 78/75/83
f 70/69/84 79/79/85 75/70/84
f 79/79/85 70/69/84 80/80/84
f 80/80/86 81/81/87 79/79/87
f 81/81/87 80/80/86 82/82/86
f 82/82/88 83/83/89 81/81/89
f 83/83/89 82/82/88 84/84/90
f 84/84/91 85/85/91 83/83/91
f 85/85/91 84/84/91 86/86/91
f 88/87/92 93/88/92 87/89/92
f 87/89/93 89/90/93 88/87/93
f 87/89/94 90/91/94 89/90/94
f 90/91/95 87/89/95 91/92/95
f 91/92/96 87/89/96 96/93/96
f 94/94/97 87/89/97 92/95/97
f 92/95/98 87/89/98 93/88/98
f 94/94/99 95/96/100 87/89/100
f 87/89/101 95/96/102 96/93/101
f 97/97/103 93/88/104 88/87/104
f 93/88/103 97/97/103 98/98/103
f 99/99/105 98/98/105 97/97/105
f 98/98/105 99/99/105 100/100/105
f 99/99/106 101/101/106 100/100/107
f 101/101/106 99/99/106 102/102/106
f 104/51/108 109/52/109 103/53/108
f 103/53/110 105/54/110 104/51/110
f 103/53/111 106/55/111 105/54/112
f 106/55/113 103/53/113 107/56/113
f 107/56/114 103/53/114 112/57/114
f 110/58/115 103/53/115 108/59/115
f 108/59/116 103/53/116 109/52/116
f 110/58/117 111/60/117 103/53/117
f 103/53/118 111/60/119 112/57/119
f 104/51/120 113/61/120 109/52/120
f 114/62/120 109/52/120 113/61/120
f 113/61/121 115/63/122 114/62/122
f 116/64/122 114/62/122 115/63/122
f 115/63/123 117/65/123 116/64/124
f 117/65/123 115/63/123 118/66/123
f 118/66/125 119/67/125 117/65/126
f 119/67/125 118/66/125 120/68/126
