# Blender 5.1.2
# www.blender.org
mtllib SM_Grass_02.mtl
o SM_Grass_02
v 0.342326 0.382751 0.008554
v 0.295105 0.295835 0.005108
v 0.301965 0.288136 0.046576
v 0.242423 0.178771 -0.002044
v 0.255432 0.166903 0.055484
v 0.218643 0.047577 0.024040
v 0.197369 0.016712 -0.022915
v 0.261121 0.314867 -0.052668
v 0.277723 0.306234 -0.029578
v 0.312578 0.368363 -0.025659
v 0.223454 0.190415 -0.042186
v 0.199735 0.203355 -0.079851
v 0.172519 0.077765 -0.088034
v 0.180324 0.038175 -0.065421
v 0.355004 0.412470 -0.003389
v 0.292847 0.298369 -0.008542
v 0.347444 0.394749 0.003732
v 0.318628 0.374653 -0.022483
v 0.294380 0.296648 0.000727
v 0.281126 0.304464 -0.024844
v 0.238887 0.181996 -0.017679
v 0.241033 0.180038 -0.008187
v 0.226612 0.188693 -0.037172
v 0.192573 0.009753 -0.033501
v 0.182474 0.027273 -0.059194
v 0.187406 0.002256 -0.044905
v -0.242714 0.478213 0.228976
v -0.219336 0.377477 0.143833
v -0.199720 0.371502 0.191830
v -0.197647 0.370870 0.196901
v -0.245679 0.490987 0.239773
v -0.193263 0.369535 0.207629
v -0.250058 0.509854 0.255720
v -0.208232 0.455982 0.255238
v -0.174364 0.370008 0.224936
v -0.201276 0.447022 0.255158
v -0.142109 0.370815 0.254476
v -0.168877 0.370145 0.229962
v -0.080366 0.225940 0.232648
v -0.119863 0.225899 0.192080
v -0.066074 0.074100 0.194201
v -0.087225 0.036361 0.157859
v -0.125121 0.225893 0.186679
v -0.093049 0.025970 0.147852
v -0.145561 0.225872 0.165684
v -0.150766 0.227059 0.154797
v -0.114167 0.015273 0.115685
v -0.106414 0.002123 0.124888
v -0.121364 0.027480 0.107143
v -0.154134 0.227828 0.147751
v -0.153284 0.081624 0.069253
v -0.185676 0.235025 0.081770
v 0.047213 0.501944 0.296725
v -0.016197 0.385552 0.210416
v 0.045225 0.390043 0.208117
v 0.051715 0.390517 0.207874
v 0.055254 0.516703 0.307669
v 0.065443 0.391521 0.207361
v 0.067130 0.538503 0.323834
v 0.093873 0.490195 0.265210
v 0.091566 0.399761 0.194493
v 0.098321 0.482161 0.255460
v 0.136150 0.413826 0.172530
v 0.099151 0.402154 0.190756
v 0.106511 0.249434 0.085963
v 0.166128 0.266062 0.060689
v 0.161173 0.093976 -0.008962
v 0.121098 0.040681 -0.011056
v 0.098574 0.247220 0.089328
v 0.067721 0.238615 0.102408
v 0.110063 0.026006 -0.011632
v 0.084740 -0.007671 -0.012955
v 0.068926 0.003860 -0.005218
v 0.053535 0.237174 0.103698
v 0.054245 0.014566 0.001965
v 0.044354 0.236241 0.104533
v -0.010870 0.062047 0.033821
v -0.041620 0.227506 0.112352
v 0.156466 0.493338 -0.002910
v 0.109489 0.389948 -0.073954
v 0.145035 0.378097 -0.037618
v 0.162423 0.506448 0.006099
v 0.148791 0.376845 -0.033779
v 0.156736 0.374197 -0.025657
v 0.136146 0.222537 -0.061004
v 0.127389 0.225321 -0.068917
v 0.078099 0.013263 -0.086933
v 0.121723 0.227123 -0.074037
v 0.071966 0.027113 -0.093593
v 0.044763 0.088541 -0.123134
v 0.068657 0.243994 -0.121992
v 0.084706 -0.001656 -0.079758
v 0.113125 0.016486 -0.068015
v 0.162583 0.215847 -0.050284
v 0.125508 0.024392 -0.062897
v 0.170482 0.053102 -0.044313
v 0.169383 0.214127 -0.047526
v 0.220816 0.358566 -0.004156
v 0.187284 0.366745 -0.015407
v 0.220468 0.201200 -0.026812
v 0.193634 0.450233 0.008758
v 0.180410 0.368422 -0.017714
v 0.190438 0.461011 0.010276
v 0.171222 0.525813 0.019405
v -0.196141 0.577955 -0.181271
v -0.123011 0.444041 -0.139605
v -0.181741 0.449070 -0.121618
v -0.187947 0.449602 -0.119717
v -0.205414 0.594936 -0.186555
v -0.201074 0.450726 -0.115697
v -0.219111 0.620018 -0.194359
v -0.234950 0.560352 -0.142641
v -0.222840 0.456378 -0.095446
v -0.237585 0.550428 -0.134040
v -0.259991 0.466026 -0.060881
v -0.229161 0.458020 -0.089565
v -0.273802 0.297608 0.020888
v -0.223020 0.285917 -0.020993
v -0.265251 0.114249 0.049097
v -0.229727 0.061082 0.030070
v -0.216259 0.284361 -0.026568
v -0.189979 0.278310 -0.048242
v -0.219946 0.046441 0.024831
v -0.197498 0.012845 0.012808
v -0.183118 0.025512 0.004106
v -0.176619 0.276925 -0.053201
v -0.169769 0.037270 -0.003973
v -0.167974 0.276028 -0.056410
v -0.110562 0.089422 -0.039804
v -0.087009 0.267628 -0.086464
v -0.062875 0.686042 0.035094
v -0.135506 0.499292 0.002215
v -0.067242 0.498395 0.005443
v -0.060030 0.498300 0.005784
v -0.053172 0.705636 0.039172
v -0.044772 0.498099 0.006505
v -0.038839 0.734578 0.045196
v -0.010409 0.654976 0.016358
v -0.014034 0.497659 -0.006963
v -0.005680 0.641736 0.011562
v 0.038428 0.496907 -0.029951
v -0.005109 0.497531 -0.010874
v -0.006601 0.293204 -0.033367
v -0.015862 0.293335 -0.029955
v -0.051862 0.293845 -0.016691
v -0.021209 0.023956 -0.012920
v -0.007387 0.037836 -0.018519
v 0.042808 0.088244 -0.038849
v 0.062963 0.292219 -0.058996
v -0.052927 -0.007897 -0.000074
v -0.069581 0.008451 -0.000479
v -0.067738 0.294056 -0.016489
v -0.085041 0.023627 -0.000855
v -0.078011 0.294192 -0.016358
v -0.153612 0.090937 -0.002524
v -0.174223 0.295471 -0.015133
vn -0.8609 0.4558 0.2261
vn -0.8772 0.4175 0.2370
vn -0.8795 0.4089 0.2436
vn -0.9175 0.2997 0.2614
vn -0.9378 0.2206 0.2679
vn -0.9362 0.2281 0.2674
vn -0.7314 0.3057 0.6096
vn -0.7198 0.3146 0.6188
vn -0.6920 0.3461 0.6335
vn -0.7883 0.2130 0.5773
vn -0.7883 0.2129 0.5773
vn -0.8209 0.1422 0.5530
vn -0.8200 0.1499 0.5524
vn -0.7956 0.4174 0.4390
vn -0.8146 0.3787 0.4394
vn -0.8719 0.4262 0.2411
vn -0.7180 0.3216 0.6173
vn -0.8619 0.2676 0.4307
vn -0.9153 0.3068 0.2608
vn -0.7826 0.2212 0.5819
vn -0.8895 0.1889 0.4160
vn 0.8491 0.4412 -0.2906
vn 0.8571 0.4071 -0.3156
vn 0.8563 0.4002 -0.3266
vn 0.8553 0.4133 -0.3124
vn 0.8490 0.4413 -0.2906
vn 0.7504 0.4296 -0.5024
vn 0.7402 0.4664 -0.4843
vn 0.5923 0.4615 -0.6604
vn 0.6165 0.4342 -0.6568
vn 0.5924 0.4614 -0.6604
vn 0.6259 0.4174 -0.6588
vn 0.6200 0.4248 -0.6597
vn 0.6745 0.3126 -0.6689
vn 0.6721 0.3148 -0.6702
vn 0.7012 0.2364 -0.6726
vn 0.7015 0.2437 -0.6698
vn 0.6720 0.3218 -0.6670
vn 0.7015 0.2437 -0.6697
vn 0.7850 0.3190 -0.5310
vn 0.8745 0.3046 -0.3774
vn 0.8838 0.2291 -0.4078
vn 0.8017 0.2386 -0.5480
vn 0.8838 0.2291 -0.4079
vn 0.8756 0.2978 -0.3804
vn 0.8844 0.2220 -0.4106
vn -0.0741 0.6225 -0.7791
vn -0.0926 0.5844 -0.8062
vn -0.0898 0.5759 -0.8125
vn -0.0880 0.5913 -0.8016
vn -0.0741 0.6224 -0.7792
vn -0.2959 0.5682 -0.7679
vn -0.2978 0.5927 -0.7483
vn -0.5041 0.5377 -0.6758
vn -0.4929 0.5117 -0.7037
vn -0.5042 0.5377 -0.6758
vn -0.4840 0.5014 -0.7172
vn -0.4930 0.5117 -0.7037
vn -0.4589 0.4141 -0.7861
vn -0.4402 0.3497 -0.8270
vn -0.4348 0.3570 -0.8267
vn -0.4610 0.4231 -0.7801
vn -0.2956 0.4667 -0.8336
vn -0.4368 0.3567 -0.8258
vn -0.2902 0.3912 -0.8733
vn -0.1347 0.4129 -0.9008
vn -0.1223 0.4887 -0.8639
vn -0.1346 0.4129 -0.9008
vn -0.1195 0.4795 -0.8694
vn -0.1279 0.4097 -0.9032
vn -0.1195 0.4794 -0.8694
vn 0.7280 0.1273 -0.6736
vn 0.7152 0.0953 -0.6924
vn 0.7110 0.0794 -0.6987
vn 0.5577 0.1504 -0.8163
vn 0.5406 0.0319 -0.8407
vn 0.6723 -0.0073 -0.7403
vn 0.6459 -0.0859 -0.7586
vn 0.6436 -0.0862 -0.7605
vn 0.6723 -0.0152 -0.7401
vn 0.6722 -0.0230 -0.7400
vn 0.5196 -0.0468 -0.8531
vn 0.3800 -0.0143 -0.9249
vn 0.3853 0.0723 -0.9200
vn 0.3799 -0.0143 -0.9249
vn 0.3855 0.0644 -0.9205
vn 0.3726 0.1765 -0.9110
vn 0.3856 0.0566 -0.9209
vn 0.3717 0.1917 -0.9084
vn 0.3593 0.2320 -0.9039
vn 0.3593 0.2321 -0.9039
vn 0.5565 0.1905 -0.8087
vn 0.3023 0.4268 0.8523
vn 0.3196 0.3938 0.8619
vn 0.3206 0.3776 0.8687
vn 0.3122 0.3943 0.8644
vn 0.5047 0.3703 0.7798
vn 0.5009 0.4088 0.7629
vn 0.6827 0.3684 0.6311
vn 0.6746 0.3307 0.6600
vn 0.6827 0.3684 0.6310
vn 0.6736 0.3217 0.6654
vn 0.6555 0.2211 0.7221
vn 0.6555 0.2211 0.7220
vn 0.6422 0.1492 0.7519
vn 0.6422 0.1492 0.7518
vn 0.6595 0.2277 0.7164
vn 0.5114 0.2600 0.8191
vn 0.5142 0.1805 0.8385
vn 0.3682 0.1968 0.9087
vn 0.3496 0.2754 0.8955
vn 0.3504 0.2681 0.8974
vn 0.0731 0.1580 -0.9847
vn 0.0345 0.1294 -0.9910
vn 0.0278 0.1209 -0.9923
vn 0.0421 0.1301 -0.9906
vn -0.1809 0.1347 -0.9742
vn -0.1753 0.1596 -0.9715
vn -0.4332 0.1500 -0.8887
vn -0.4009 0.1299 -0.9069
vn -0.4259 0.1436 -0.8933
vn -0.3782 0.1103 -0.9191
vn -0.3934 0.1234 -0.9110
vn -0.3535 0.0258 -0.9351
vn -0.1779 0.0322 -0.9835
vn -0.3371 -0.0515 -0.9401
vn -0.3360 -0.0593 -0.9400
vn -0.3527 0.0180 -0.9356
vn -0.1826 -0.0556 -0.9816
vn -0.0245 -0.0522 -0.9983
vn -0.0032 0.0299 -0.9995
vn -0.0236 -0.0600 -0.9979
vn -0.0022 0.0221 -0.9998
vn -0.0013 0.0142 -0.9999
vt 0.283447 0.969589
vt 0.293701 0.879883
vt 0.332520 0.882751
vt 0.308594 0.762817
vt 0.363525 0.768311
vt 0.363525 0.651123
vt 0.328369 0.608887
vt 0.229614 0.871704
vt 0.256348 0.875427
vt 0.250732 0.940308
vt 0.266113 0.758057
vt 0.223877 0.753296
vt 0.248779 0.638672
vt 0.281982 0.612549
vt 0.268066 0.996845
vt 0.281006 0.878906
vt 0.277344 0.980621
vt 0.253418 0.948395
vt 0.289551 0.879578
vt 0.261963 0.876221
vt 0.293701 0.761230
vt 0.302734 0.762207
vt 0.271729 0.758789
vt 0.320557 0.599365
vt 0.291260 0.605469
vt 0.312012 0.589111
vt 0.901855 0.963837
vt 0.914551 0.854248
vt 0.961914 0.857788
vt 0.909180 0.853882
vt 0.894043 0.977310
vt 0.898926 0.853149
vt 0.883301 0.997118
vt 0.865234 0.937958
vt 0.875488 0.849854
vt 0.861816 0.928101
vt 0.835938 0.844238
vt 0.868652 0.848877
vt 0.829102 0.699707
vt 0.880371 0.705566
vt 0.859375 0.559570
vt 0.899902 0.527832
vt 0.887207 0.706299
vt 0.911133 0.519043
vt 0.914062 0.709473
vt 0.925293 0.710449
vt 0.947266 0.511475
vt 0.936523 0.499023
vt 0.956543 0.523193
vt 0.932617 0.711182
vt 0.999512 0.574707
vt 0.999512 0.718018
vt 0.511719 0.549316
vt 0.526367 0.419922
vt 0.582520 0.424316
vt 0.520508 0.419434
vt 0.502441 0.565186
vt 0.507812 0.418457
vt 0.489502 0.588623
vt 0.468018 0.518799
vt 0.480469 0.414551
vt 0.464600 0.507080
vt 0.433838 0.408203
vt 0.472656 0.413574
vt 0.486328 0.244141
vt 0.425537 0.237305
vt 0.461426 0.071777
vt 0.509277 0.034180
vt 0.494629 0.245117
vt 0.525879 0.249023
vt 0.522461 0.023926
vt 0.552734 0.000488
vt 0.564941 0.015137
vt 0.539062 0.250000
vt 0.576172 0.028809
vt 0.547852 0.250977
vt 0.626953 0.089844
vt 0.626953 0.259277
vt 0.901855 0.465332
vt 0.914551 0.355957
vt 0.961914 0.359375
vt 0.909180 0.355469
vt 0.894043 0.479004
vt 0.898926 0.354492
vt 0.914062 0.210938
vt 0.925293 0.211914
vt 0.947266 0.012695
vt 0.956543 0.024414
vt 0.932617 0.212891
vt 0.999512 0.076172
vt 0.999512 0.219727
vt 0.936523 0.000488
vt 0.911133 0.020508
vt 0.887207 0.208008
vt 0.899902 0.029297
vt 0.859375 0.061035
vt 0.880371 0.207031
vt 0.835938 0.345703
vt 0.829102 0.201172
vt 0.868652 0.350586
vt 0.861816 0.429688
vt 0.875488 0.351562
vt 0.865234 0.439453
vt 0.883301 0.498535
vt 0.309814 0.549316
vt 0.324707 0.419922
vt 0.380615 0.424316
vt 0.318604 0.419434
vt 0.300781 0.565186
vt 0.306152 0.418457
vt 0.287598 0.588623
vt 0.266357 0.518799
vt 0.278809 0.414551
vt 0.262695 0.507080
vt 0.232056 0.408203
vt 0.270752 0.413574
vt 0.223877 0.237305
vt 0.284668 0.244141
vt 0.259766 0.071777
vt 0.307861 0.034180
vt 0.292725 0.245117
vt 0.324463 0.249023
vt 0.321045 0.023926
vt 0.351074 0.000488
vt 0.363281 0.015137
vt 0.337646 0.250000
vt 0.374756 0.028809
vt 0.345947 0.250977
vt 0.425293 0.089844
vt 0.425293 0.259277
vt 0.096741 0.638428
vt 0.111938 0.465820
vt 0.174072 0.470215
vt 0.105347 0.465332
vt 0.086731 0.656006
vt 0.091431 0.464355
vt 0.071899 0.681885
vt 0.047638 0.604492
vt 0.061127 0.459961
vt 0.043549 0.591553
vt 0.009338 0.452637
vt 0.052307 0.458496
vt 0.067627 0.270996
vt 0.076660 0.271973
vt 0.111755 0.275879
vt 0.107971 0.026855
vt 0.093262 0.038086
vt 0.040039 0.079590
vt 0.000224 0.263184
vt 0.141235 0.000488
vt 0.154785 0.016602
vt 0.126343 0.277344
vt 0.167480 0.032227
vt 0.135620 0.278320
vt 0.223511 0.099609
vt 0.223511 0.287109
s 1
usemtl M_LeavesLight
f 1/1/1 2/2/2 3/3/3
f 4/4/4 3/3/3 2/2/2
f 3/3/3 4/4/4 5/5/4
f 6/6/5 5/5/4 4/4/4
f 4/4/4 7/7/6 6/6/5
f 8/8/7 9/9/8 10/10/9
f 8/8/7 11/11/10 9/9/8
f 11/11/10 8/8/7 12/12/11
f 13/13/12 11/11/10 12/12/11
f 14/14/13 11/11/10 13/13/12
f 15/15/14 16/16/15 17/17/1
f 16/16/15 15/15/14 18/18/9
f 17/17/1 16/16/15 19/19/16
f 16/16/15 18/18/9 20/20/17
f 16/16/15 21/21/18 19/19/16
f 21/21/18 16/16/15 20/20/17
f 22/22/19 19/19/16 21/21/18
f 21/21/18 20/20/17 23/23/20
f 21/21/18 24/24/6 22/22/19
f 25/25/13 21/21/18 23/23/20
f 24/24/6 21/21/18 26/26/21
f 21/21/18 25/25/13 26/26/21
f 20/20/17 18/18/9 10/10/9
f 20/20/17 10/10/9 9/9/8
f 23/23/20 20/20/17 9/9/8
f 23/23/20 9/9/8 11/11/10
f 14/14/13 23/23/20 11/11/10
f 23/23/20 14/14/13 25/25/13
f 17/17/1 19/19/16 1/1/1
f 1/1/1 19/19/16 2/2/2
f 22/22/19 2/2/2 19/19/16
f 2/2/2 22/22/19 4/4/4
f 7/7/6 4/4/4 22/22/19
f 22/22/19 24/24/6 7/7/6
f 27/27/22 29/28/23 28/29/24
f 27/27/22 30/30/25 29/28/23
f 30/30/25 27/27/22 31/31/26
f 31/31/26 32/32/27 30/30/25
f 32/32/27 31/31/26 33/33/28
f 32/32/27 33/33/28 34/34/29
f 32/32/27 34/34/29 35/35/30
f 35/35/30 34/34/29 36/36/31
f 37/37/32 38/38/33 36/36/31
f 35/35/30 36/36/31 38/38/33
f 39/39/34 38/38/33 37/37/32
f 38/38/33 39/39/34 40/40/35
f 40/40/35 35/35/30 38/38/33
f 39/39/34 41/41/36 40/40/35
f 42/42/37 40/40/35 41/41/36
f 42/42/37 43/43/38 40/40/35
f 35/35/30 40/40/35 43/43/38
f 43/43/38 42/42/37 44/44/39
f 44/44/39 45/45/40 43/43/38
f 32/32/27 43/43/38 45/45/40
f 43/43/38 32/32/27 35/35/30
f 30/30/25 45/45/40 46/46/41
f 45/45/40 47/47/42 46/46/41
f 47/47/42 45/45/40 48/48/43
f 45/45/40 44/44/39 48/48/43
f 32/32/27 45/45/40 30/30/25
f 46/46/41 47/47/42 49/49/44
f 49/49/44 50/50/45 46/46/41
f 50/50/45 49/49/44 51/51/46
f 51/51/46 52/52/45 50/50/45
f 28/29/24 50/50/45 52/52/45
f 29/28/23 46/46/41 50/50/45
f 50/50/45 28/29/24 29/28/23
f 46/46/41 29/28/23 30/30/25
f 53/53/47 55/54/48 54/55/49
f 53/53/47 56/56/50 55/54/48
f 56/56/50 53/53/47 57/57/51
f 57/57/51 58/58/52 56/56/50
f 58/58/52 57/57/51 59/59/53
f 58/58/52 59/59/53 60/60/54
f 58/58/52 60/60/54 61/61/55
f 61/61/55 60/60/54 62/62/56
f 63/63/57 64/64/58 62/62/56
f 61/61/55 62/62/56 64/64/58
f 63/63/57 65/65/59 64/64/58
f 65/65/59 61/61/55 64/64/58
f 65/65/59 63/63/57 66/66/59
f 67/67/60 65/65/59 66/66/59
f 68/68/61 65/65/59 67/67/60
f 68/68/61 69/69/62 65/65/59
f 61/61/55 65/65/59 69/69/62
f 69/69/62 58/58/52 61/61/55
f 58/58/52 69/69/62 70/70/63
f 71/71/64 70/70/63 69/69/62
f 69/69/62 68/68/61 71/71/64
f 70/70/63 71/71/64 72/72/65
f 73/73/66 70/70/63 72/72/65
f 70/70/63 73/73/66 74/74/67
f 74/74/67 73/73/66 75/75/68
f 75/75/68 76/76/69 74/74/67
f 76/76/69 75/75/68 77/77/70
f 77/77/70 78/78/71 76/76/69
f 54/55/49 76/76/69 78/78/71
f 55/54/48 74/74/67 76/76/69
f 76/76/69 54/55/49 55/54/48
f 74/74/67 55/54/48 56/56/50
f 56/56/50 70/70/63 74/74/67
f 70/70/63 56/56/50 58/58/52
f 79/79/72 81/80/73 80/81/74
f 79/79/72 83/82/73 81/80/73
f 82/83/72 83/82/73 79/79/72
f 82/83/72 84/84/75 83/82/73
f 84/84/75 85/85/76 83/82/73
f 86/86/77 83/82/73 85/85/76
f 86/86/77 81/80/73 83/82/73
f 85/85/76 87/87/78 86/86/77
f 86/86/77 87/87/78 89/88/79
f 81/80/73 86/86/77 88/89/80
f 89/88/79 88/89/80 86/86/77
f 88/89/80 89/88/79 90/90/79
f 88/89/80 90/90/79 91/91/81
f 80/81/74 88/89/80 91/91/81
f 88/89/80 80/81/74 81/80/73
f 87/87/78 85/85/76 92/92/82
f 85/85/76 93/93/83 92/92/82
f 94/94/84 95/95/85 93/93/83
f 93/93/83 85/85/76 94/94/84
f 96/96/85 95/95/85 97/97/86
f 95/95/85 94/94/84 97/97/86
f 97/97/86 98/98/87 100/99/88
f 98/98/87 97/97/86 99/100/89
f 99/100/89 97/97/86 94/94/84
f 100/99/88 96/96/85 97/97/86
f 98/98/87 99/100/89 101/101/90
f 101/101/90 99/100/89 102/102/89
f 94/94/84 102/102/89 99/100/89
f 102/102/89 103/103/91 101/101/90
f 103/103/91 102/102/89 84/84/75
f 85/85/76 84/84/75 102/102/89
f 102/102/89 94/94/84 85/85/76
f 84/84/75 104/104/92 103/103/91
f 104/104/92 84/84/75 82/83/72
f 105/105/93 107/106/94 106/107/95
f 105/105/93 108/108/96 107/106/94
f 108/108/96 105/105/93 109/109/93
f 109/109/93 110/110/97 108/108/96
f 110/110/97 109/109/93 111/111/98
f 110/110/97 111/111/98 112/112/99
f 112/112/99 113/113/100 110/110/97
f 113/113/100 112/112/99 114/114/101
f 115/115/102 116/116/100 114/114/101
f 114/114/101 116/116/100 113/113/100
f 115/115/102 117/117/103 116/116/100
f 116/116/100 117/117/103 118/118/104
f 118/118/104 113/113/100 116/116/100
f 117/117/103 119/119/105 118/118/104
f 120/120/106 118/118/104 119/119/105
f 120/120/106 121/121/107 118/118/104
f 113/113/100 118/118/104 121/121/107
f 121/121/107 110/110/97 113/113/100
f 110/110/97 121/121/107 122/122/108
f 123/123/106 122/122/108 121/121/107
f 121/121/107 120/120/106 123/123/106
f 122/122/108 123/123/106 124/124/109
f 125/125/110 122/122/108 124/124/109
f 122/122/108 125/125/110 126/126/111
f 126/126/111 125/125/110 127/127/110
f 127/127/110 128/128/111 126/126/111
f 128/128/111 127/127/110 129/129/110
f 129/129/110 130/130/112 128/128/111
f 106/107/95 128/128/111 130/130/112
f 107/106/94 126/126/111 128/128/111
f 128/128/111 106/107/95 107/106/94
f 126/126/111 107/106/94 108/108/96
f 108/108/96 122/122/108 126/126/111
f 110/110/97 122/122/108 108/108/96
f 131/131/113 133/132/114 132/133/115
f 131/131/113 134/134/116 133/132/114
f 134/134/116 131/131/113 135/135/113
f 135/135/113 136/136/117 134/134/116
f 136/136/117 135/135/113 137/137/118
f 136/136/117 137/137/118 138/138/119
f 138/138/119 139/139/120 136/136/117
f 139/139/120 138/138/119 140/140/121
f 141/141/122 142/142/123 140/140/121
f 140/140/121 142/142/123 139/139/120
f 141/141/122 143/143/124 142/142/123
f 142/142/123 143/143/124 144/144/124
f 144/144/124 139/139/120 142/142/123
f 139/139/120 144/144/124 145/145/125
f 146/146/126 145/145/125 144/144/124
f 144/144/124 147/147/126 146/146/126
f 147/147/126 144/144/124 143/143/124
f 148/148/127 147/147/126 143/143/124
f 149/149/128 148/148/127 143/143/124
f 143/143/124 141/141/122 149/149/128
f 145/145/125 146/146/126 150/150/129
f 151/151/130 145/145/125 150/150/129
f 145/145/125 151/151/130 152/152/131
f 152/152/131 151/151/130 153/153/132
f 153/153/132 154/154/133 152/152/131
f 154/154/133 153/153/132 155/155/132
f 156/156/134 154/154/133 155/155/132
f 132/133/115 154/154/133 156/156/134
f 133/132/114 152/152/131 154/154/133
f 154/154/133 132/133/115 133/132/114
f 152/152/131 134/134/116 145/145/125
f 152/152/131 133/132/114 134/134/116
f 145/145/125 136/136/117 139/139/120
f 136/136/117 145/145/125 134/134/116
