# Blender 5.1.2
# www.blender.org
mtllib SM_GroundPlant_01.mtl
o SM_GroundPlant_01
v 0.003247 0.349964 0.432396
v -0.033348 0.322162 0.173338
v 0.127559 0.450325 0.278159
v 0.197931 0.498447 0.463789
v 0.195051 0.480372 0.595939
v -0.205657 0.351057 0.348828
v -0.054993 0.315830 0.177902
v -0.215065 0.375206 0.551786
v -0.139081 0.366703 0.673977
v 0.101623 0.298912 0.831656
v -0.065306 0.303270 0.111696
v -0.043661 0.309603 0.107132
v -0.067042 0.264244 0.048679
v -0.045398 0.270576 0.044115
v -0.058657 0.209041 0.010587
v -0.037013 0.215374 0.006023
v -0.019057 -0.021508 -0.045279
v 0.002587 -0.015175 -0.049843
v -0.063971 0.369318 -0.358684
v -0.027547 0.363830 -0.098480
v -0.207449 0.453170 -0.211770
v -0.282127 0.476447 -0.400214
v -0.273545 0.451693 -0.530870
v 0.139268 0.414350 -0.273981
v -0.005048 0.361423 -0.102501
v 0.147647 0.428107 -0.477714
v 0.076892 0.398516 -0.599560
v -0.143755 0.277942 -0.754385
v 0.006221 0.354859 -0.035670
v -0.016278 0.357266 -0.031649
v 0.014076 0.320582 0.029505
v -0.008424 0.322989 0.033526
v 0.015470 0.267132 0.070727
v -0.007029 0.269539 0.074748
v 0.000820 0.002366 0.143138
v 0.023320 -0.000041 0.139117
v -0.324537 0.404434 0.258514
v -0.131853 0.314994 0.065354
v -0.085708 0.439948 0.279215
v -0.188722 0.523480 0.458387
v -0.310475 0.540471 0.536385
v -0.372178 0.429531 0.018951
v -0.150398 0.314429 0.048436
v -0.544202 0.510465 0.136053
v -0.608769 0.517303 0.279325
v -0.629635 0.435802 0.590777
v -0.103581 0.286137 -0.001984
v -0.085036 0.286701 0.014934
v -0.063675 0.229398 -0.043634
v -0.045130 0.229962 -0.026716
v -0.011565 0.014282 -0.075498
v 0.006980 0.014846 -0.058580
v 0.394980 0.375667 -0.224548
v 0.161892 0.348581 -0.089390
v 0.189573 0.420696 -0.314114
v 0.337662 0.451704 -0.460098
v 0.468922 0.442011 -0.499234
v 0.381397 0.446372 -0.004442
v 0.174307 0.350359 -0.069302
v 0.575840 0.483349 -0.076365
v 0.670565 0.454485 -0.186834
v 0.756563 0.311930 -0.441523
v 0.103551 0.336734 -0.052253
v 0.115966 0.338512 -0.032165
v 0.049989 0.296470 -0.015739
v 0.062404 0.298248 0.004349
v 0.032326 0.240060 0.027785
v 0.019911 0.238282 0.007697
v -0.000131 0.000641 0.067622
v -0.012546 -0.001137 0.047534
v 0.344348 0.299492 0.242221
v 0.132486 0.235448 0.030198
v 0.368472 0.358539 -0.008490
v 0.564948 0.425747 0.107728
v 0.649294 0.427133 0.238257
v 0.090787 0.337172 0.296903
v 0.114442 0.234186 0.049979
v 0.221032 0.399097 0.486677
v 0.374203 0.390901 0.554990
v 0.700746 0.282175 0.567305
v 0.076865 0.213151 -0.021917
v 0.058822 0.211889 -0.002136
v 0.028736 0.159437 -0.069440
v 0.010692 0.158175 -0.049659
v -0.004225 0.002232 -0.074215
v 0.013818 0.003494 -0.093996
vn -0.2940 0.9539 -0.0609
vn -0.6239 0.7815 0.0083
vn -0.6087 0.7930 0.0242
vn -0.6087 0.7930 0.0241
vn -0.6102 0.7863 0.0966
vn -0.6102 0.7864 0.0966
vn -0.6838 0.6821 0.2591
vn 0.0531 0.9918 -0.1161
vn 0.0636 0.9866 -0.1502
vn 0.1090 0.9940 -0.0016
vn 0.2306 0.9708 0.0657
vn -0.3021 0.9439 -0.1331
vn -0.3386 0.8058 -0.4859
vn -0.3163 0.5039 -0.8038
vn -0.3163 0.5039 -0.8037
vn -0.2527 0.1844 -0.9498
vn 0.1054 0.9944 0.0042
vn 0.1053 0.9944 0.0042
vn 0.4654 0.8837 -0.0501
vn 0.4488 0.8910 -0.0688
vn 0.4487 0.8910 -0.0688
vn 0.4578 0.8788 -0.1346
vn 0.5479 0.7854 -0.2880
vn -0.2392 0.9694 0.0545
vn -0.2468 0.9653 0.0855
vn -0.2992 0.9522 -0.0614
vn -0.4044 0.9064 -0.1223
vn -0.4043 0.9064 -0.1223
vn 0.1202 0.9899 0.0757
vn 0.1202 0.9899 0.0758
vn 0.1694 0.8805 0.4427
vn 0.2028 0.5974 0.7759
vn 0.2028 0.5975 0.7758
vn 0.1979 0.2445 0.9492
vn 0.1972 0.9494 -0.2443
vn -0.0865 0.8693 -0.4867
vn -0.0865 0.8692 -0.4868
vn -0.0867 0.8821 -0.4630
vn -0.1529 0.8914 -0.4266
vn -0.1529 0.8914 -0.4267
vn -0.3487 0.8499 -0.3952
vn 0.4300 0.9028 0.0086
vn 0.4621 0.8868 0.0022
vn 0.3742 0.9185 0.1279
vn 0.3725 0.8901 0.2627
vn 0.2355 0.9261 -0.2949
vn 0.2354 0.9261 -0.2949
vn 0.4624 0.7133 -0.5267
vn 0.6466 0.2640 -0.7157
vn 0.6465 0.2639 -0.7158
vn -0.1209 0.9926 -0.0142
vn 0.0735 0.9479 0.3101
vn 0.0840 0.9538 0.2885
vn 0.0840 0.9538 0.2884
vn 0.1486 0.9512 0.2705
vn 0.3398 0.8900 0.3042
vn 0.3398 0.8900 0.3041
vn -0.2888 0.9057 -0.3102
vn -0.3169 0.8969 -0.3085
vn -0.1984 0.8924 -0.4054
vn -0.1685 0.8343 -0.5250
vn -0.1685 0.8343 -0.5249
vn -0.1789 0.9835 0.0255
vn -0.4842 0.8465 0.2213
vn -0.7349 0.5452 0.4034
vn -0.8424 0.1955 0.5021
vn -0.8425 0.1955 0.5021
vn -0.1859 0.9763 -0.1107
vn -0.4324 0.8855 0.1699
vn -0.4057 0.8972 0.1742
vn -0.3738 0.8978 0.2331
vn -0.3485 0.8360 0.4238
vn 0.0594 0.9349 -0.3499
vn 0.0534 0.9247 -0.3769
vn 0.1792 0.9390 -0.2935
vn 0.1792 0.9390 -0.2936
vn 0.3114 0.9041 -0.2928
vn 0.3113 0.9041 -0.2927
vn -0.2364 0.9588 -0.1577
vn -0.2363 0.9588 -0.1577
vn -0.4824 0.7825 -0.3937
vn -0.7349 0.1736 -0.6556
vn -0.7348 0.1736 -0.6556
vt 0.695312 0.590332
vt 0.695312 0.580811
vt 0.809082 0.586426
vt 0.755371 0.666504
vt 0.838379 0.689209
vt 0.892578 0.676025
vt 0.986816 0.585693
vt 0.838867 0.482422
vt 0.755859 0.504883
vt 0.895996 0.501953
vt 0.666504 0.580811
vt 0.666504 0.590332
vt 0.635742 0.580811
vt 0.635742 0.590332
vt 0.607422 0.580811
vt 0.607422 0.590576
vt 0.492188 0.571777
vt 0.492188 0.581299
vt 0.708496 0.349121
vt 0.708496 0.339844
vt 0.821777 0.345215
vt 0.768555 0.425293
vt 0.851562 0.447754
vt 0.905273 0.434570
vt 0.999512 0.344727
vt 0.851562 0.241211
vt 0.768555 0.263672
vt 0.908691 0.260742
vt 0.679688 0.339844
vt 0.679688 0.349121
vt 0.648926 0.339844
vt 0.648926 0.349121
vt 0.620605 0.339844
vt 0.620605 0.349609
vt 0.490723 0.336426
vt 0.490723 0.326660
vt 0.173706 0.600342
vt 0.173706 0.589844
vt 0.297852 0.595947
vt 0.239624 0.683350
vt 0.330078 0.708008
vt 0.388916 0.693604
vt 0.491699 0.594971
vt 0.330322 0.482422
vt 0.239746 0.506836
vt 0.392578 0.503662
vt 0.142578 0.600098
vt 0.142578 0.589600
vt 0.108704 0.589844
vt 0.108704 0.600342
vt 0.000230 0.595947
vt 0.000230 0.606445
vt 0.208008 0.819458
vt 0.208008 0.809570
vt 0.324951 0.815552
vt 0.270020 0.897888
vt 0.355469 0.921143
vt 0.411133 0.907471
vt 0.507812 0.814575
vt 0.355713 0.708496
vt 0.270264 0.731445
vt 0.414307 0.728516
vt 0.178589 0.819458
vt 0.178589 0.809570
vt 0.146729 0.819580
vt 0.146729 0.809570
vt 0.117615 0.809692
vt 0.117615 0.819580
vt 0.000230 0.810303
vt 0.000230 0.820190
vt 0.150879 0.367188
vt 0.150879 0.355957
vt 0.283203 0.362793
vt 0.221191 0.456055
vt 0.317627 0.481934
vt 0.380615 0.466797
vt 0.490234 0.361816
vt 0.318115 0.241211
vt 0.221436 0.267578
vt 0.384521 0.264160
vt 0.117676 0.367188
vt 0.117676 0.355957
vt 0.081543 0.367188
vt 0.081543 0.355957
vt 0.000230 0.356445
vt 0.000230 0.367676
s 1
usemtl M_GroundLeaves
f 2/1/1 7/2/1 1/3/1
f 1/3/2 3/4/2 2/1/2
f 1/3/3 4/5/4 3/4/4
f 4/5/5 1/3/6 5/6/5
f 5/6/7 1/3/7 10/7/7
f 8/8/8 1/3/8 6/9/8
f 6/9/9 1/3/9 7/2/9
f 8/8/10 9/10/10 1/3/10
f 1/3/11 9/10/11 10/7/11
f 2/1/12 11/11/12 7/2/12
f 11/11/12 2/1/12 12/12/12
f 12/12/13 13/13/13 11/11/13
f 13/13/13 12/12/13 14/14/13
f 14/14/14 15/15/15 13/13/15
f 15/15/15 14/14/14 16/16/14
f 16/16/16 17/17/16 15/15/16
f 17/17/16 16/16/16 18/18/16
f 20/19/17 25/20/17 19/21/18
f 19/21/19 21/22/19 20/19/19
f 19/21/20 22/23/21 21/22/20
f 22/23/22 19/21/22 23/24/22
f 23/24/23 19/21/23 28/25/23
f 26/26/24 19/21/24 24/27/24
f 24/27/25 19/21/25 25/20/25
f 26/26/26 27/28/26 19/21/26
f 19/21/27 27/28/27 28/25/28
f 20/19/29 29/29/30 25/20/29
f 29/29/30 20/19/29 30/30/29
f 30/30/31 31/31/31 29/29/31
f 31/31/31 30/30/31 32/32/31
f 32/32/32 33/33/33 31/31/32
f 33/33/33 32/32/32 34/34/32
f 34/34/34 35/35/34 33/33/34
f 33/33/34 35/35/34 36/36/34
f 38/37/35 43/38/35 37/39/35
f 37/39/36 39/40/37 38/37/36
f 37/39/38 40/41/38 39/40/38
f 40/41/39 37/39/40 41/42/40
f 41/42/41 37/39/41 46/43/41
f 44/44/42 37/39/42 42/45/42
f 42/45/43 37/39/43 43/38/43
f 44/44/44 45/46/44 37/39/44
f 37/39/45 45/46/45 46/43/45
f 48/47/46 43/38/46 38/37/46
f 47/48/47 43/38/47 48/47/47
f 48/47/48 49/49/48 47/48/48
f 49/49/48 48/47/48 50/50/48
f 50/50/49 51/51/50 49/49/50
f 51/51/50 50/50/49 52/52/49
f 54/53/51 59/54/51 53/55/51
f 53/55/52 55/56/52 54/53/52
f 53/55/53 56/57/53 55/56/54
f 56/57/55 53/55/55 57/58/55
f 57/58/56 53/55/56 62/59/57
f 60/60/58 53/55/58 58/61/58
f 58/61/59 53/55/59 59/54/59
f 60/60/60 61/62/60 53/55/60
f 53/55/61 61/62/62 62/59/62
f 54/53/63 63/63/63 59/54/63
f 64/64/63 59/54/63 63/63/63
f 63/63/64 65/65/64 64/64/64
f 66/66/64 64/64/64 65/65/64
f 65/65/65 67/67/65 66/66/65
f 67/67/65 65/65/65 68/68/65
f 68/68/66 69/69/66 67/67/67
f 69/69/66 68/68/66 70/70/67
f 72/71/68 77/72/68 71/73/68
f 71/73/69 73/74/69 72/71/69
f 71/73/70 74/75/70 73/74/70
f 74/75/71 71/73/71 75/76/71
f 75/76/72 71/73/72 80/77/72
f 78/78/73 71/73/73 76/79/73
f 76/79/74 71/73/74 77/72/74
f 78/78/75 79/80/76 71/73/76
f 71/73/77 79/80/78 80/77/77
f 81/81/79 77/72/80 72/71/80
f 77/72/80 81/81/80 82/82/80
f 83/83/81 82/82/81 81/81/81
f 82/82/81 83/83/81 84/84/81
f 83/83/82 85/85/82 84/84/83
f 85/85/82 83/83/82 86/86/82
