# Blender 5.1.2
# www.blender.org
mtllib SM_Grass_01.mtl
o SM_Grass_01
v 0.164023 0.000068 0.042326
v 0.127287 -0.000017 -0.022103
v 0.195160 0.418274 -0.039183
v -0.142979 0.066914 -0.040776
v -0.207958 -0.000017 -0.010073
v -0.237711 0.344932 -0.016692
v -0.078224 -0.000017 -0.074266
v -0.082374 0.389587 -0.088668
v 0.063265 0.066914 0.012649
v -0.005129 -0.000017 0.064114
v 0.031294 0.481028 0.098901
v -0.039857 0.066914 -0.014064
vn 0.8594 -0.1578 -0.4864
vn -0.4433 -0.0237 -0.8961
vn -0.4133 -0.0157 -0.9104
vn -0.3870 -0.0472 -0.9209
vn -0.4684 -0.0079 -0.8835
vn -0.4876 -0.0392 -0.8722
vn -0.4879 -0.0157 -0.8728
vn -0.5589 0.0236 -0.8289
vn -0.4431 0.0394 -0.8956
vn -0.6176 0.0236 -0.7861
vn -0.5590 0.0237 -0.8288
vn -0.6629 0.1025 -0.7417
vn 0.8949 -0.0551 -0.4428
vn 0.8776 -0.0392 -0.4778
vn 0.9005 -0.0393 -0.4331
vn 0.8637 -0.0474 -0.5018
vn 0.8473 -0.0079 -0.5310
vt 0.260010 0.000488
vt 0.353760 0.062012
vt 0.000088 0.545166
vt 0.878906 0.337402
vt 0.999512 0.313965
vt 0.893066 0.782593
vt 0.790527 0.249023
vt 0.624023 0.769531
vt 0.426758 0.163086
vt 0.568359 0.166992
vt 0.260742 0.782593
vt 0.669434 0.266602
s 1
usemtl M_Grass
f 1/1/1 2/2/1 3/3/1
f 4/4/2 5/5/3 6/6/4
f 7/7/5 5/5/3 4/4/2
f 7/7/5 4/4/2 8/8/6
f 2/2/7 9/9/8 3/3/9
f 2/2/7 10/10/10 9/9/8
f 9/9/11 10/10/10 11/11/12
f 10/10/13 12/12/14 11/11/15
f 10/10/13 7/7/16 12/12/14
f 12/12/14 7/7/16 8/8/17
