# Blender 5.1.2
# www.blender.org
mtllib SM_SmallPalm_01_001.mtl
o SM_SmallPalm_01.001
v 0.058522 1.116296 -0.313858
v 0.315008 1.564854 -0.517287
v 0.204367 1.370949 -0.500747
v 0.249274 1.380737 -0.423729
v 0.348486 1.592695 -0.391760
v 0.280659 1.364908 -0.345701
v 0.376358 1.538381 -0.230182
v 0.291863 1.319091 -0.274961
v 0.386773 1.434633 -0.148430
v 0.280767 1.248767 -0.221490
v 0.349258 1.299266 -0.076971
v 0.250070 1.168284 -0.195351
v 0.287010 1.178666 -0.069453
v 0.200983 1.077405 -0.193930
v 0.171038 1.053893 -0.163656
v 0.154400 1.038387 -0.243006
v -0.008780 0.950524 -0.431760
v 0.053050 0.977188 -0.375069
v 0.017411 0.977665 -0.444993
v -0.088224 0.983112 -0.591527
v 0.013967 1.051482 -0.530514
v -0.087588 1.089423 -0.703793
v 0.026385 1.126577 -0.586503
v -0.050071 1.255803 -0.775257
v 0.056844 1.206202 -0.612189
v 0.004292 1.360492 -0.756708
v 0.100783 1.278506 -0.603804
v 0.101034 1.473834 -0.746829
v 0.151927 1.333977 -0.563414
v 0.193231 1.555400 -0.654338
v 0.013460 0.999719 -0.256339
v 0.032310 1.002361 -0.253454
v -0.003425 0.873395 -0.174642
v 0.017434 0.869385 -0.157050
v 0.016728 0.992271 -0.273030
v 0.004357 0.852628 -0.189329
v 0.012967 -0.004284 -0.034583
v 0.023515 -0.002853 -0.059204
v 0.037491 0.002188 -0.023173
v 0.028628 0.634891 -0.086353
v 0.058486 0.633079 -0.073400
v 0.053657 0.484390 -0.084668
v 0.037877 0.482249 -0.047833
v 0.045564 0.280038 -0.082096
v 0.029540 0.277863 -0.044693
v 0.039951 0.627829 -0.114819
v 0.074567 0.491931 -0.030763
v 0.066796 0.287695 -0.027359
v -0.077593 0.969038 0.419813
v -0.081369 1.131178 0.727617
v -0.180982 1.278060 0.889602
v -0.165130 1.099150 0.726073
v -0.285105 1.209594 0.870054
v -0.234047 1.053666 0.703586
v -0.378317 1.118506 0.809804
v -0.277039 0.996498 0.657625
v -0.436579 1.012714 0.711454
v -0.287431 0.935214 0.593876
v -0.453199 0.909858 0.591683
v -0.263956 0.881910 0.525241
v -0.386094 0.819693 0.492740
v -0.209106 0.835212 0.451205
v -0.214049 0.826805 0.403550
v -0.135432 0.839021 0.425546
v 0.035702 0.871450 0.392095
v 0.103604 0.895189 0.350543
v 0.105951 0.905268 0.401105
v 0.261715 0.996863 0.398192
v 0.146513 0.983712 0.471646
v 0.309136 1.072449 0.498440
v 0.156491 1.048621 0.539583
v 0.297392 1.244717 0.617278
v 0.133091 1.101273 0.607464
v 0.228977 1.283608 0.729470
v 0.079853 1.133857 0.665195
v 0.114481 1.319911 0.816171
v 0.004751 1.142549 0.705296
v -0.052942 1.362199 0.870274
v -0.071857 0.877372 0.325674
v -0.061918 0.886229 0.311766
v -0.045857 0.881664 0.319888
v -0.057011 0.789657 0.195440
v -0.038376 0.771419 0.200700
v -0.077025 0.771419 0.200686
v -0.065369 0.633079 0.101919
v -0.039875 0.634891 0.081687
v -0.065522 0.491931 0.054944
v -0.020103 0.627829 0.105088
v -0.008125 0.484390 0.061901
v -0.064863 0.287695 0.046486
v -0.006579 0.280038 0.053551
v -0.033177 0.482249 0.030626
v -0.032019 0.277863 0.021793
v -0.022997 -0.004284 0.015570
v -0.006251 -0.002853 0.036475
v -0.044617 0.002188 0.031825
v -0.218652 0.664267 -0.439679
v -0.333873 0.613638 -0.764035
v -0.374654 0.686752 -0.989264
v -0.253941 0.650306 -0.781653
v -0.232563 0.711399 -0.996720
v -0.174159 0.679478 -0.771274
v -0.098449 0.786597 -0.949005
v -0.103294 0.696175 -0.727361
v -0.034219 0.802889 -0.861257
v -0.051392 0.697737 -0.655033
v 0.078608 0.792152 -0.703124
v -0.028168 0.684214 -0.569121
v 0.071921 0.758067 -0.546664
v -0.030935 0.656675 -0.469599
v -0.021768 0.677895 -0.426800
v -0.083395 0.623153 -0.422429
v -0.222525 0.546515 -0.343517
v -0.286017 0.536070 -0.290978
v -0.294659 0.516125 -0.337787
v -0.467103 0.469471 -0.310456
v -0.379472 0.501649 -0.411081
v -0.578002 0.401261 -0.416987
v -0.433751 0.500465 -0.488416
v -0.645441 0.464120 -0.559036
v -0.456547 0.513920 -0.573427
v -0.655100 0.499403 -0.706438
v -0.444527 0.539986 -0.653458
v -0.604505 0.553700 -0.834643
v -0.400263 0.574813 -0.717892
v -0.505262 0.665747 -0.932349
v -0.136671 0.633469 -0.325049
v -0.150018 0.638854 -0.312261
v -0.157343 0.621793 -0.312235
v -0.079998 0.580316 -0.191886
v -0.098605 0.562079 -0.186524
v -0.065763 0.562079 -0.206899
v -0.012274 0.431182 -0.097235
v -0.052402 0.425932 -0.076049
v 0.012635 0.290033 -0.057407
v -0.023261 0.432994 -0.066598
v -0.002016 0.280351 -0.019686
v -0.039798 0.282492 -0.033041
v -0.025396 0.002378 -0.023507
v 0.009652 0.007419 -0.039794
v -0.000142 0.000947 -0.014580
v 0.123231 0.827840 0.070475
v 0.499756 0.907700 0.218251
v 0.374468 0.864743 0.117841
v 0.352319 0.855812 0.180001
v 0.456248 0.919741 0.305961
v 0.314575 0.840507 0.228770
v 0.357363 0.895798 0.384028
v 0.261653 0.818987 0.255621
v 0.273932 0.845604 0.398065
v 0.200435 0.794048 0.256221
v 0.167519 0.802219 0.376031
v 0.143102 0.770654 0.231073
v 0.093102 0.771812 0.315022
v 0.088566 0.748364 0.181971
v 0.053389 0.754924 0.177091
v 0.083194 0.746090 0.124274
v 0.093838 0.761745 -0.071212
v 0.094772 0.750613 -0.006821
v 0.120447 0.760996 -0.058090
v 0.166441 0.800960 -0.177635
v 0.195381 0.791490 -0.080383
v 0.270402 0.843277 -0.201708
v 0.260350 0.817959 -0.080206
v 0.389931 0.902914 -0.169975
v 0.317007 0.841077 -0.055198
v 0.441496 0.932061 -0.104008
v 0.356941 0.857415 -0.009120
v 0.514530 0.943000 -0.021301
v 0.375247 0.864962 0.051256
v 0.529429 0.949237 0.091871
v 0.057754 0.714260 0.046139
v 0.064731 0.710150 0.058009
v 0.025424 0.650103 0.037142
v 0.024030 0.645360 0.056844
v 0.067163 0.707450 0.039028
v 0.038327 0.635266 0.034144
v 0.001090 -0.002853 0.028868
v 0.020032 0.000279 0.034160
v -0.005372 0.001727 0.047938
v -0.018494 0.509586 -0.003426
v -0.027219 0.507195 0.025906
v -0.015476 0.390493 0.038194
v -0.038520 0.393475 0.032486
v 0.017452 0.237886 0.043579
v -0.011324 0.233129 0.035541
v 0.005285 0.504408 -0.003479
v -0.049931 0.401538 0.060357
v -0.021141 0.240087 0.064510
vn -0.5041 0.6459 0.5733
vn -0.7289 0.5826 0.3596
vn -0.5875 0.6706 0.4529
vn -0.2129 0.5047 0.8366
vn -0.8202 0.4398 -0.3659
vn -0.1177 0.2278 0.9666
vn -0.7271 0.6092 -0.3166
vn 0.0139 -0.2057 0.9785
vn -0.6138 0.7565 -0.2260
vn -0.2579 -0.2213 0.9405
vn -0.4923 0.8672 -0.0742
vn -0.3802 -0.4423 0.8123
vn -0.2584 0.9660 -0.0000
vn -0.6619 -0.2908 0.6909
vn -0.1805 0.8554 0.4855
vn -0.1805 0.8554 0.4856
vn -0.7216 -0.6348 0.2763
vn -0.5637 -0.3157 0.7632
vn -0.7521 0.5584 -0.3501
vn -0.7814 -0.2918 0.5516
vn -0.4799 0.8623 -0.1617
vn -0.7648 -0.5584 0.3213
vn -0.3801 0.9213 0.0824
vn -0.9109 -0.4016 0.0948
vn 0.0070 0.9583 0.2858
vn -0.9011 -0.4170 -0.1191
vn -0.0291 0.8750 0.4832
vn -0.9556 -0.1726 -0.2389
vn -0.1289 0.7717 0.6228
vn -0.9491 0.0472 -0.3115
vn -0.1216 0.6298 0.7671
vn -0.1998 0.4948 0.8457
vn -0.2004 0.5288 0.8248
vn -0.2176 0.5201 0.8259
vn -0.9326 0.1964 0.3029
vn -0.5622 0.3322 0.7573
vn 0.8103 -0.3779 -0.4478
vn 0.8054 -0.4109 -0.4271
vn 0.8207 -0.3783 -0.4281
vn 0.9350 -0.1338 -0.3284
vn 0.9396 -0.1259 -0.3182
vn -0.9341 0.2200 -0.2812
vn -0.9621 0.1101 -0.2494
vn -0.9667 0.1021 -0.2345
vn -0.9482 -0.1805 -0.2613
vn 0.2363 -0.9708 0.0420
vn 0.8343 -0.4884 -0.2558
vn 0.8556 -0.4402 -0.2722
vn -0.9047 0.0316 0.4249
vn -0.3845 0.2198 0.8966
vn -0.9171 -0.0710 -0.3922
vn -0.9183 -0.0549 -0.3922
vn -0.9192 0.0314 -0.3926
vn -0.9189 0.0393 -0.3925
vn -0.9189 0.0392 -0.3925
vn 0.9121 0.0079 -0.4099
vn 0.9144 0.0079 -0.4048
vn 0.9313 -0.0236 -0.3635
vn 0.9332 -0.0707 -0.3524
vn -0.9251 -0.2052 -0.3196
vn -0.4287 0.0473 0.9022
vn -0.4356 0.0551 0.8985
vn -0.4288 0.0395 0.9025
vn -0.4414 0.1105 0.8905
vn -0.4476 0.1259 0.8853
vn -0.9756 0.1892 -0.1114
vn -0.9756 0.1893 -0.1113
vn 0.4877 0.7744 -0.4029
vn -0.8973 0.2529 -0.3618
vn 0.5203 0.8293 -0.2040
vn -0.7915 0.3062 -0.5289
vn 0.3577 0.9302 -0.0828
vn -0.7405 0.1884 -0.6451
vn 0.0884 0.9951 -0.0445
vn -0.6365 -0.0473 -0.7698
vn -0.1495 0.9887 0.0107
vn -0.3554 -0.3061 -0.8832
vn -0.3554 -0.3062 -0.8832
vn -0.4457 0.8940 -0.0462
vn -0.4457 0.8940 -0.0461
vn -0.2270 -0.0078 -0.9739
vn -0.7175 0.6949 -0.0475
vn 0.2905 -0.1727 -0.9412
vn 0.2905 -0.1728 -0.9411
vn -0.4379 -0.2607 -0.8604
vn 0.0835 0.5021 -0.8607
vn 0.1137 0.5581 -0.8220
vn 0.3064 0.9301 -0.2028
vn -0.0694 0.0866 -0.9938
vn -0.0808 0.9953 0.0527
vn 0.2295 -0.1342 -0.9640
vn -0.2050 0.9520 -0.2272
vn 0.4482 0.0316 -0.8934
vn -0.6503 0.7290 0.2137
vn -0.6502 0.7290 0.2138
vn 0.5619 0.2362 -0.7927
vn -0.7028 0.7110 -0.0233
vn 0.5959 0.4399 -0.6718
vn 0.5959 0.4398 -0.6719
vn 0.5960 0.4398 -0.6718
vn -0.8094 0.5761 -0.1137
vn 0.6414 0.5605 -0.5238
vn 0.2386 -0.7173 0.6546
vn 0.2615 -0.6858 0.6792
vn 0.2620 -0.7089 0.6548
vn -0.8530 0.3462 -0.3905
vn -0.8511 0.3688 -0.3736
vn -0.8439 0.3770 -0.3817
vn 0.4594 0.7350 -0.4987
vn 0.4809 0.7070 -0.5185
vn 0.4669 0.7091 -0.5284
vn 0.6635 0.5436 -0.5141
vn 0.6640 0.5198 -0.5375
vn 0.0146 -0.6619 0.7494
vn -0.0093 -0.6540 0.7565
vn -0.6425 0.5269 -0.5564
vn -0.6181 0.5039 -0.6034
vn -0.5957 0.3607 -0.7177
vn -0.1082 -0.4490 0.8870
vn -0.5951 0.3291 -0.7332
vn -0.5653 0.1657 -0.8081
vn -0.1167 -0.4265 0.8969
vn -0.1349 -0.1814 0.9741
vn 0.7681 0.3393 -0.5430
vn 0.7603 0.3312 -0.5588
vn -0.1423 -0.1571 0.9773
vn 0.7695 0.1497 -0.6209
vn -0.1276 -0.0474 0.9907
vn -0.1275 -0.0552 0.9903
vn 0.7683 0.1258 -0.6276
vn 0.7773 0.0315 -0.6283
vn -0.5748 0.1108 -0.8107
vn -0.5974 0.0158 -0.8018
vn -0.6024 -0.0000 -0.7982
vn 0.7772 0.0394 -0.6281
vn -0.1484 -0.9715 0.1848
vn -0.1700 -0.4708 0.8657
vn -0.1639 -0.4017 0.9010
vn 0.5448 0.7772 -0.3149
vn -0.9043 0.3298 0.2709
vn 0.4131 0.9072 -0.0795
vn -0.3401 0.9362 0.0881
vn -0.3645 0.9271 0.0875
vn -0.8479 0.5260 0.0658
vn 0.2330 0.9696 0.0742
vn -0.8813 0.4626 -0.0963
vn -0.8813 0.4627 -0.0961
vn 0.5826 0.7491 0.3153
vn -0.9225 0.1580 -0.3522
vn -0.9225 0.1579 -0.3522
vn 0.4100 0.7955 0.4462
vn -0.6343 0.6710 -0.3840
vn -0.6343 0.6709 -0.3840
vn 0.4623 0.4733 0.7498
vn 0.4623 0.4734 0.7498
vn -0.4264 0.7408 -0.5191
vn 0.1552 0.4948 0.8550
vn -0.0365 0.8977 -0.4390
vn -0.0735 0.1651 0.9835
vn -0.0734 0.1651 0.9835
vn 0.4818 0.5426 0.6881
vn -0.4365 0.6518 0.6202
vn -0.4953 0.6518 0.5743
vn -0.8965 0.4424 -0.0245
vn -0.0230 0.5744 0.8183
vn -0.6855 0.6070 -0.4021
vn -0.5218 0.7456 0.4146
vn -0.5448 0.7772 0.3149
vn -0.2118 0.3708 0.9042
vn -0.5891 0.8037 -0.0835
vn -0.3370 0.1658 0.9268
vn -0.2555 0.8368 -0.4842
vn -0.2555 0.8368 -0.4843
vn -0.5570 0.1577 0.8154
vn -0.5570 0.1578 0.8154
vn -0.0561 0.8892 -0.4540
vn -0.7267 0.1888 0.6605
vn 0.1165 0.9194 -0.3756
vn -0.8502 0.1888 0.4914
vn -0.8502 0.1887 0.4914
vn 0.1468 -0.8621 -0.4850
vn 0.2440 -0.8808 -0.4058
vn 0.1879 -0.8553 -0.4829
vn 0.3646 0.9311 -0.0130
vn 0.4346 0.8979 0.0705
vn 0.4415 0.8959 0.0482
vn -0.7956 0.3472 0.4965
vn -0.7596 0.3529 0.5463
vn -0.7699 0.3307 0.5457
vn -0.4407 0.6144 0.6545
vn -0.3970 0.5990 0.6954
vn -0.2817 -0.8185 -0.5007
vn -0.3047 -0.8046 -0.5097
vn 0.7951 0.6038 0.0573
vn 0.8147 0.5743 0.0801
vn 0.8637 0.4184 0.2812
vn -0.3550 -0.5100 -0.7835
vn -0.3574 -0.4791 -0.8017
vn -0.3972 -0.1882 -0.8982
vn 0.8807 0.3632 0.3039
vn 0.9078 0.1577 0.3887
vn 0.9177 0.1025 0.3839
vn -0.3629 0.3626 0.8584
vn -0.3234 0.1414 0.9356
vn -0.3244 0.1182 0.9385
vn -0.3670 0.3855 0.8466
vn -0.3341 0.0157 0.9424
vn -0.3989 -0.1654 -0.9020
vn -0.4143 -0.0552 -0.9084
vn 0.9314 0.0158 0.3636
vn 0.9314 0.0157 0.3636
vn 0.0271 -0.9700 -0.2414
vn 0.0271 -0.9701 -0.2414
vn 0.0270 -0.9700 -0.2414
vn -0.2493 0.8941 0.3721
vn -0.2294 0.9711 0.0658
vn -0.1855 0.9502 0.2504
vn -0.3927 0.6346 0.6656
vn 0.1627 0.8196 -0.5494
vn -0.6019 0.3937 0.6947
vn 0.2636 0.8826 -0.3893
vn -0.8017 -0.0013 0.5977
vn 0.3314 0.9225 -0.1980
vn -0.8984 0.1694 0.4052
vn 0.3386 0.9406 0.0249
vn -0.9854 0.0778 0.1517
vn 0.4411 0.8604 0.2552
vn -0.9322 0.3603 -0.0338
vn 0.0684 0.8046 0.5898
vn -0.8608 0.0936 -0.5003
vn -0.9561 0.2862 0.0633
vn 0.2479 0.8587 -0.4485
vn -0.8849 0.4203 -0.2008
vn 0.4028 0.9148 -0.0304
vn -0.8672 0.1845 -0.4625
vn 0.3061 0.9258 0.2218
vn -0.6797 0.3606 -0.6387
vn 0.3469 0.7164 0.6053
vn -0.5334 0.3093 -0.7873
vn 0.1451 0.7136 0.6854
vn -0.3327 0.5008 -0.7991
vn -0.0543 0.7315 0.6797
vn -0.1536 0.6400 -0.7529
vn -0.2339 0.6490 0.7240
vn -0.7644 0.3211 0.5591
vn -0.7665 0.3154 0.5595
vn -0.7840 0.3375 0.5210
vn -0.6937 0.4086 -0.5932
vn -0.9110 0.4121 0.0155
vn 0.8958 -0.4087 0.1747
vn 0.8739 -0.4524 0.1779
vn 0.8742 -0.4295 0.2265
vn 0.7167 -0.3868 0.5803
vn 0.6780 -0.3970 0.6186
vn -0.3604 0.3872 -0.8486
vn -0.3659 0.3356 -0.8680
vn -0.3829 0.3582 -0.8515
vn 0.0143 0.2059 -0.9785
vn 0.0889 -0.9613 0.2607
vn 0.4122 -0.4282 0.8042
vn 0.4257 -0.3802 0.8211
vn -0.5619 0.1257 -0.8176
vn -0.9388 0.2117 -0.2718
vn 0.2075 -0.1363 -0.9687
vn 0.2141 -0.1758 -0.9609
vn 0.2639 0.0293 -0.9641
vn 0.2638 0.0374 -0.9638
vn 0.2636 0.0405 -0.9638
vn 0.2636 0.0404 -0.9638
vn 0.6650 -0.1439 0.7329
vn 0.6530 -0.0921 0.7517
vn 0.5706 0.1309 0.8107
vn 0.5703 0.1325 0.8107
vn 0.4859 0.0577 0.8721
vn 0.4783 0.0468 0.8769
vn -0.0081 -0.0392 -0.9992
vn -0.9505 -0.0927 -0.2965
vn -0.9485 -0.0437 -0.3138
vn -0.9482 -0.1180 -0.2950
vn -0.9328 -0.0610 -0.3552
vn -0.9283 -0.0477 -0.3687
vt 0.625977 0.031250
vt 0.625977 0.285645
vt 0.595703 0.187500
vt 0.576172 0.031250
vt 0.593750 0.187988
vt 0.576172 0.285645
vt 0.593750 0.287109
vt 0.593750 0.544922
vt 0.562012 0.441406
vt 0.627441 0.287109
vt 0.655762 0.437988
vt 0.627441 0.544922
vt 0.306885 0.040527
vt 0.306885 0.285645
vt 0.266846 0.188477
vt 0.627930 0.031250
vt 0.657715 0.170898
vt 0.627930 0.276367
vt 0.878906 0.641113
vt 0.656250 0.641113
vt 0.739746 0.608887
vt 0.881836 0.092285
vt 0.759277 0.119141
vt 0.659180 0.092285
vt 0.191895 0.643799
vt 0.000928 0.643799
vt 0.070435 0.611328
vt 0.885254 0.844849
vt 0.782715 0.871826
vt 0.693848 0.844849
vt 0.837891 0.985603
vt 0.682129 0.985603
vt 0.735840 0.958130
vt 0.156616 0.797485
vt 0.076721 0.832031
vt 0.000928 0.797485
vt 0.971680 0.201172
vt 0.881348 0.201172
vt 0.887207 0.179688
vt 0.940918 0.473633
vt 0.879883 0.497070
vt 0.850586 0.473633
vt 0.477051 0.517090
vt 0.477051 0.418945
vt 0.500488 0.451660
vt 0.912109 0.739502
vt 0.896973 0.651611
vt 0.912109 0.641602
vt 0.000928 0.683594
vt 0.156982 0.683594
vt 0.082642 0.719727
vt 0.434570 0.958069
vt 0.535645 0.927856
vt 0.590820 0.958069
vt 0.881348 0.675293
vt 0.689941 0.675293
vt 0.779297 0.647461
vt 0.191895 0.576904
vt 0.070435 0.609375
vt 0.000928 0.576904
vt 0.397217 0.813599
vt 0.171143 0.813599
vt 0.276123 0.779663
vt 0.883789 0.353027
vt 0.744629 0.383789
vt 0.657715 0.353027
vt 0.666992 0.812744
vt 0.434570 0.812744
vt 0.528320 0.779663
vt 0.541504 0.115723
vt 0.392578 0.150879
vt 0.308838 0.115723
vt 0.692383 0.873291
vt 0.434570 0.873291
vt 0.541504 0.844849
vt 0.458984 0.542236
vt 0.304688 0.573730
vt 0.201416 0.542236
vt 0.625488 0.287109
vt 0.625488 0.548828
vt 0.595703 0.441895
vt 0.529297 0.287109
vt 0.560547 0.443359
vt 0.529297 0.548828
vt 0.009178 0.540527
vt 0.000928 0.481445
vt 0.009109 0.483398
vt 0.003637 0.416016
vt 0.014740 0.411133
vt 0.020401 0.483887
vt 0.031769 0.412598
vt 0.028214 0.484863
vt 0.041809 0.420410
vt 0.314697 0.413086
vt 0.306152 0.404297
vt 0.323975 0.404297
vt 0.006050 0.298828
vt 0.020538 0.294922
vt 0.054871 0.301270
vt 0.046783 0.229492
vt 0.065735 0.227539
vt 0.046539 0.134277
vt 0.065186 0.131836
vt 0.042633 0.003418
vt 0.054840 0.000977
vt 0.040955 0.299805
vt 0.019806 0.229004
vt 0.020233 0.137695
vt 0.024414 0.005859
vt 0.001754 0.131348
vt 0.012352 0.000977
vt 0.000928 0.226562
vt 0.540527 0.000977
vt 0.385986 0.038574
vt 0.266846 0.000977
vt 0.570312 0.184082
vt 0.308838 0.184082
vt 0.414307 0.152832
vt 0.432617 0.680908
vt 0.278076 0.710693
vt 0.171143 0.680908
vt 0.911621 0.055664
vt 0.659180 0.055664
vt 0.755859 0.031250
vt 0.432617 0.647461
vt 0.282715 0.678955
vt 0.180542 0.647461
vt 0.917969 0.777832
vt 0.682129 0.777832
vt 0.766113 0.754517
vt 0.893066 0.321289
vt 0.753906 0.351074
vt 0.657715 0.321289
vt 0.682129 0.712646
vt 0.895020 0.712646
vt 0.822266 0.739502
vt 0.668945 0.806885
vt 0.791992 0.779663
vt 0.881836 0.806885
vt 0.657715 0.473633
vt 0.848633 0.473633
vt 0.779297 0.506348
vt 0.724121 0.602539
vt 0.826660 0.575439
vt 0.915527 0.602539
vt 0.792480 0.000977
vt 0.953125 0.000977
vt 0.895020 0.028809
vt 0.171143 0.967560
vt 0.253174 0.938538
vt 0.331299 0.967560
vt 0.543457 0.131348
vt 0.543457 0.040527
vt 0.564941 0.046875
vt 0.525879 0.509521
vt 0.502441 0.448730
vt 0.525879 0.418945
vt 0.199585 0.536377
vt 0.104553 0.536377
vt 0.134155 0.512695
vt 0.428223 0.938538
vt 0.341797 0.960602
vt 0.333252 0.938538
vt 0.156982 0.757690
vt 0.000928 0.757690
vt 0.075317 0.721680
vt 0.838379 0.926025
vt 0.737305 0.956268
vt 0.682129 0.926025
vt 0.357666 0.989792
vt 0.171143 0.989792
vt 0.254150 0.969421
vt 0.846191 0.057129
vt 0.724609 0.090332
vt 0.659180 0.057129
vt 0.432617 0.644043
vt 0.201416 0.644043
vt 0.312012 0.608887
vt 0.540039 0.078125
vt 0.402100 0.113770
vt 0.308838 0.078125
vt 0.903809 0.413086
vt 0.657715 0.413086
vt 0.763672 0.385742
vt 0.680176 0.712646
vt 0.530273 0.744385
vt 0.434570 0.712646
vt 0.692383 0.843018
vt 0.434570 0.843018
vt 0.541504 0.814575
vt 0.458984 0.575439
vt 0.304688 0.606934
vt 0.201416 0.575439
vt 0.475098 0.459961
vt 0.201416 0.459961
vt 0.323242 0.418945
vt 0.170410 0.452148
vt 0.163086 0.510742
vt 0.158813 0.453613
vt 0.150513 0.452148
vt 0.178467 0.453125
vt 0.186890 0.386719
vt 0.175903 0.380371
vt 0.157471 0.380859
vt 0.145874 0.385254
vt 0.156372 0.296875
vt 0.141357 0.292969
vt 0.154297 0.225098
vt 0.178345 0.293945
vt 0.192993 0.293457
vt 0.181152 0.221680
vt 0.155640 0.132812
vt 0.181396 0.129395
vt 0.199585 0.219238
vt 0.135986 0.218750
vt 0.137939 0.126953
vt 0.199585 0.127441
vt 0.148315 0.000977
vt 0.160034 0.005371
vt 0.177368 0.002930
vt 0.189209 0.000977
vt 0.275391 0.413086
vt 0.266846 0.404297
vt 0.284668 0.404297
vt 0.266846 0.324707
vt 0.421631 0.287109
vt 0.527344 0.324707
vt 0.570312 0.216797
vt 0.308838 0.216797
vt 0.414307 0.185547
vt 0.696289 0.680908
vt 0.541504 0.710693
vt 0.434570 0.680908
vt 0.915527 0.231934
vt 0.659180 0.231934
vt 0.759766 0.208496
vt 0.883301 0.546875
vt 0.731934 0.571533
vt 0.627441 0.546875
vt 0.680176 0.777832
vt 0.434570 0.777832
vt 0.530273 0.746094
vt 0.680176 0.875122
vt 0.540527 0.902649
vt 0.434570 0.875122
vt 0.879395 0.207031
vt 0.659180 0.207031
vt 0.739258 0.179688
vt 0.654297 0.608887
vt 0.534180 0.645508
vt 0.434570 0.608887
vt 0.848633 0.540527
vt 0.657715 0.540527
vt 0.727051 0.508057
vt 0.889160 0.680908
vt 0.786621 0.707764
vt 0.697754 0.680908
vt 0.148926 0.866821
vt 0.000928 0.866821
vt 0.048462 0.833862
vt 0.148926 0.868652
vt 0.068298 0.901367
vt 0.000928 0.868652
vt 0.972656 0.308594
vt 0.881836 0.308594
vt 0.888184 0.287109
vt 0.930664 0.926025
vt 0.870117 0.949402
vt 0.840332 0.926025
vt 0.848145 0.057129
vt 0.942871 0.057129
vt 0.913574 0.081055
vt 0.865234 0.255859
vt 0.952148 0.233398
vt 0.960449 0.255859
vt 0.000928 0.645752
vt 0.156982 0.645752
vt 0.082642 0.681885
vt 0.171143 0.936707
vt 0.272217 0.906433
vt 0.327148 0.936707
vt 0.434570 0.980743
vt 0.638672 0.980743
vt 0.538574 0.999072
vt 0.659180 0.262207
vt 0.781738 0.233398
vt 0.863281 0.262207
vt 0.659180 0.150391
vt 0.881836 0.150391
vt 0.782227 0.177734
vt 0.171143 0.877930
vt 0.310059 0.845703
vt 0.393555 0.877930
vt 0.657715 0.415039
vt 0.903809 0.415039
vt 0.797363 0.442383
vt 0.171143 0.744385
vt 0.321045 0.712646
vt 0.416992 0.744385
vt 0.171143 0.815430
vt 0.428711 0.815430
vt 0.321777 0.843872
vt 0.308838 0.283203
vt 0.463135 0.251465
vt 0.566406 0.283203
vt 0.201416 0.461914
vt 0.462158 0.461914
vt 0.353027 0.503906
vt 0.249268 0.351562
vt 0.235107 0.417480
vt 0.237549 0.353027
vt 0.229004 0.352051
vt 0.220459 0.352051
vt 0.227417 0.288574
vt 0.215820 0.285645
vt 0.238892 0.286133
vt 0.255859 0.285645
vt 0.238037 0.204590
vt 0.259033 0.202637
vt 0.238403 0.136719
vt 0.223633 0.200195
vt 0.219971 0.130371
vt 0.201416 0.134277
vt 0.210083 0.203125
vt 0.207397 0.001953
vt 0.264893 0.132812
vt 0.234131 0.004883
vt 0.252197 0.000977
vt 0.220703 0.000977
vt 0.334961 0.404297
vt 0.343750 0.413086
vt 0.325928 0.413086
s 1
usemtl M_Leaves2
f 1/1/1 2/2/2 3/3/3
f 1/4/1 4/5/4 2/6/2
f 1/7/5 5/8/5 4/9/5
f 1/10/6 6/11/6 5/12/6
f 1/13/7 7/14/7 6/15/7
f 1/16/8 8/17/8 7/18/8
f 1/19/9 9/20/9 8/21/9
f 1/22/10 10/23/10 9/24/10
f 1/25/11 11/26/11 10/27/11
f 1/28/12 12/29/12 11/30/12
f 1/31/13 13/32/13 12/33/13
f 1/34/14 14/35/14 13/36/14
f 1/37/15 15/38/15 14/39/16
f 1/40/17 16/41/17 15/42/17
f 1/43/18 17/44/18 18/45/18
f 1/46/19 19/47/19 17/48/19
f 1/49/20 20/50/20 19/51/20
f 1/52/21 21/53/21 20/54/21
f 1/55/22 22/56/22 21/57/22
f 1/58/23 23/59/23 22/60/23
f 1/61/24 24/62/24 23/63/24
f 1/64/25 25/65/25 24/66/25
f 1/67/26 26/68/26 25/69/26
f 1/70/27 27/71/27 26/72/27
f 1/73/28 28/74/28 27/75/28
f 1/76/29 29/77/29 28/78/29
f 1/79/30 30/80/30 29/81/30
f 1/82/1 3/83/3 30/84/31
f 49/113/66 50/114/66 78/115/67
f 49/116/68 51/117/68 50/118/68
f 49/119/69 52/120/69 51/121/69
f 49/122/70 53/123/70 52/124/70
f 49/125/71 54/126/71 53/127/71
f 49/128/72 55/129/72 54/130/72
f 49/131/73 56/132/73 55/133/73
f 49/134/74 57/135/74 56/136/74
f 49/137/75 58/138/75 57/139/75
f 49/140/76 59/141/76 58/142/76
f 49/143/77 60/144/78 59/145/77
f 49/146/79 61/147/80 60/148/80
f 49/149/81 62/150/81 61/151/81
f 49/152/82 63/153/82 62/154/82
f 49/155/83 64/156/84 63/157/84
f 49/158/85 66/159/85 65/160/85
f 49/161/86 67/162/87 66/163/88
f 49/164/86 68/165/89 67/166/87
f 49/167/90 69/168/90 68/169/90
f 49/170/91 70/171/91 69/172/91
f 49/173/92 71/174/92 70/175/92
f 49/176/93 72/177/93 71/178/93
f 49/179/94 73/180/95 72/181/95
f 49/182/96 74/183/96 73/184/96
f 49/185/97 75/186/97 74/187/97
f 49/188/98 76/189/99 75/190/100
f 49/191/101 77/192/101 76/193/101
f 49/194/102 78/195/102 77/196/102
f 97/225/139 98/226/139 126/227/139
f 97/228/140 99/229/140 98/230/140
f 97/231/141 100/232/141 99/233/141
f 97/234/142 101/235/143 100/236/144
f 97/237/142 102/238/145 101/239/143
f 97/240/146 103/241/147 102/242/147
f 97/243/148 104/244/148 103/245/148
f 97/246/149 105/247/150 104/248/149
f 97/249/151 106/250/151 105/251/151
f 97/252/152 107/253/152 106/254/153
f 97/255/154 108/256/155 107/257/155
f 97/258/156 109/259/156 108/260/156
f 97/261/157 110/262/157 109/263/157
f 97/264/158 111/265/158 110/266/158
f 97/267/159 112/268/160 111/269/159
f 97/270/161 114/271/161 113/272/161
f 97/273/162 115/274/163 114/275/164
f 97/276/162 116/277/165 115/278/163
f 97/279/166 117/280/166 116/281/166
f 97/282/167 118/283/168 117/284/169
f 97/285/167 119/286/170 118/287/168
f 97/288/171 120/289/171 119/290/171
f 97/291/172 121/292/172 120/293/173
f 97/294/174 122/295/174 121/296/175
f 97/297/176 123/298/176 122/299/176
f 97/300/177 124/301/177 123/302/177
f 97/303/178 125/304/178 124/305/178
f 97/306/179 126/307/180 125/308/179
f 142/1/215 143/2/216 144/3/217
f 142/4/215 145/5/218 143/6/216
f 142/7/219 146/8/219 145/9/219
f 142/10/220 147/11/220 146/12/220
f 142/13/221 148/14/221 147/15/221
f 142/16/222 149/17/222 148/18/222
f 142/19/223 150/20/223 149/21/223
f 142/22/224 151/23/224 150/24/224
f 142/25/225 152/26/225 151/27/225
f 142/28/226 153/29/226 152/30/226
f 142/31/227 154/32/227 153/33/227
f 142/34/228 155/35/228 154/36/228
f 142/37/229 156/38/229 155/39/229
f 142/40/230 157/41/230 156/42/230
f 142/43/231 158/44/231 159/45/231
f 142/46/232 160/47/232 158/48/232
f 142/49/233 161/50/233 160/51/233
f 142/52/234 162/53/234 161/54/234
f 142/55/235 163/56/235 162/57/235
f 142/58/236 164/59/236 163/60/236
f 142/61/237 165/62/237 164/63/237
f 142/64/238 166/65/238 165/66/238
f 142/67/239 167/68/239 166/69/239
f 142/70/240 168/71/240 167/72/240
f 142/73/241 169/74/241 168/75/241
f 142/76/242 170/77/242 169/78/242
f 142/79/243 171/80/243 170/81/243
f 142/82/215 144/83/217 171/84/244
usemtl M_Branch
f 1/85/32 31/86/33 32/87/34
f 32/87/34 31/86/33 33/88/35
f 32/87/34 33/88/35 34/89/36
f 35/90/37 1/85/38 32/87/39
f 32/87/39 36/91/40 35/90/37
f 32/87/39 34/89/41 36/91/40
f 1/85/42 35/90/43 31/92/44
f 35/90/43 33/93/35 31/92/44
f 35/90/43 36/91/45 33/93/35
f 37/94/46 38/95/47 39/96/48
f 34/89/36 40/97/49 41/98/50
f 34/89/36 33/88/35 40/97/49
f 40/99/49 42/100/51 43/101/52
f 43/101/52 42/100/51 44/102/53
f 43/101/52 44/102/53 45/103/54
f 45/103/54 44/102/53 38/104/55
f 45/103/54 38/104/55 37/105/55
f 34/89/41 46/106/56 36/91/40
f 34/89/41 41/98/57 46/106/56
f 41/98/57 42/100/58 46/106/56
f 41/98/57 47/107/58 42/100/58
f 42/100/58 47/107/58 48/108/59
f 42/100/58 48/108/59 44/102/59
f 44/102/59 48/108/59 39/109/48
f 44/102/59 39/109/48 38/104/47
f 36/91/45 40/99/49 33/93/35
f 36/91/45 46/106/60 40/99/49
f 40/99/49 46/106/60 42/100/51
f 45/110/61 37/111/62 39/109/62
f 45/110/61 39/109/62 48/108/63
f 43/112/64 45/110/61 48/108/63
f 43/112/64 48/108/63 47/107/65
f 41/98/50 43/112/64 47/107/65
f 41/98/50 40/97/49 43/112/64
f 81/197/103 49/198/104 79/199/105
f 49/198/106 80/200/107 79/199/108
f 49/198/109 81/197/110 80/201/111
f 81/197/110 82/202/112 80/201/111
f 81/197/110 83/203/113 82/202/112
f 81/197/103 84/204/114 83/203/115
f 81/197/103 79/199/105 84/204/114
f 79/199/108 82/205/116 84/204/117
f 82/205/116 85/206/118 84/204/117
f 83/203/115 84/204/114 85/206/119
f 82/205/116 86/207/120 85/206/118
f 86/207/120 87/208/121 85/206/118
f 88/209/122 85/206/119 87/208/123
f 83/203/115 85/206/119 88/209/122
f 83/203/113 88/209/124 86/210/125
f 88/209/122 87/208/123 89/211/126
f 86/210/125 88/209/124 89/211/127
f 89/211/126 87/208/123 90/212/128
f 89/211/126 90/212/128 91/213/129
f 92/214/130 89/211/127 91/213/131
f 86/210/125 89/211/127 92/214/130
f 92/215/132 90/212/133 87/208/121
f 92/215/132 93/216/133 90/212/133
f 92/214/130 91/213/131 93/217/131
f 86/207/120 92/215/132 87/208/121
f 93/216/133 94/218/134 96/219/134
f 93/217/131 95/220/135 94/221/135
f 93/217/131 91/213/131 95/220/135
f 93/216/133 96/219/134 90/212/133
f 94/222/136 95/223/137 96/224/138
f 91/213/129 96/219/138 95/220/137
f 91/213/129 90/212/128 96/219/138
f 83/203/113 86/210/125 82/202/112
f 79/199/108 80/200/107 82/205/116
f 129/309/181 97/310/182 127/311/183
f 97/310/184 128/312/185 127/311/186
f 97/310/187 129/313/188 128/312/189
f 129/313/188 130/314/190 128/312/189
f 129/313/188 131/315/191 130/314/190
f 129/309/181 132/316/192 131/317/193
f 129/309/181 127/311/183 132/316/192
f 127/311/186 130/314/194 132/316/195
f 130/314/194 133/318/196 132/316/195
f 131/317/193 132/316/192 133/318/197
f 131/317/193 133/318/197 134/319/198
f 134/319/198 133/318/197 135/320/199
f 136/321/200 135/320/201 133/318/196
f 130/314/194 136/321/200 133/318/196
f 136/321/200 137/322/202 135/320/201
f 136/321/203 138/323/204 137/322/205
f 136/321/203 134/324/206 138/323/204
f 131/315/191 134/324/206 136/321/203
f 131/315/191 136/321/203 130/314/190
f 137/322/205 138/323/204 139/325/207
f 138/326/208 140/327/209 139/328/209
f 134/319/198 135/320/199 138/326/208
f 138/326/208 135/320/199 140/327/209
f 137/322/202 141/329/210 140/327/211
f 141/330/212 139/331/213 140/332/214
f 137/322/202 140/327/211 135/320/201
f 137/322/205 139/325/207 141/329/207
f 127/311/186 128/312/185 130/314/194
f 142/85/245 172/86/246 173/87/247
f 173/87/247 172/86/246 174/88/248
f 173/87/247 174/88/248 175/89/249
f 176/90/250 142/85/251 173/87/252
f 173/87/252 177/91/253 176/90/250
f 173/87/252 175/89/254 177/91/253
f 142/85/255 176/90/256 172/92/257
f 176/90/256 174/93/248 172/92/257
f 176/90/256 177/91/258 174/93/248
f 178/94/259 179/95/260 180/96/261
f 175/89/249 181/97/262 182/98/263
f 175/89/249 174/88/248 181/97/262
f 181/99/262 183/100/264 184/101/265
f 184/101/265 183/100/264 185/102/266
f 184/101/265 185/102/266 186/103/267
f 186/103/267 185/102/266 179/104/268
f 186/103/267 179/104/268 178/105/269
f 175/89/254 187/106/270 177/91/253
f 175/89/254 182/98/271 187/106/270
f 182/98/271 183/100/272 187/106/270
f 182/98/271 188/107/273 183/100/272
f 183/100/272 188/107/273 189/108/274
f 183/100/272 189/108/274 185/102/275
f 185/102/275 189/108/274 180/109/261
f 185/102/275 180/109/261 179/104/260
f 177/91/258 181/99/262 174/93/248
f 177/91/258 187/106/276 181/99/262
f 181/99/262 187/106/276 183/100/264
f 186/110/277 178/111/278 180/109/278
f 186/110/277 180/109/278 189/108/279
f 184/112/280 186/110/277 189/108/279
f 184/112/280 189/108/279 188/107/281
f 182/98/263 184/112/280 188/107/281
f 182/98/263 181/97/262 184/112/280
