# Blender 5.1.2
# www.blender.org
mtllib SM_SmallPalm_02.mtl
o SM_SmallPalm_02
v 0.063358 1.117235 -0.299291
v 0.319844 1.565793 -0.502719
v 0.209204 1.371888 -0.486180
v 0.254111 1.381675 -0.409162
v 0.353322 1.593634 -0.377193
v 0.285495 1.365847 -0.331133
v 0.381194 1.539320 -0.215614
v 0.296699 1.320029 -0.260393
v 0.391609 1.435572 -0.133862
v 0.285604 1.249706 -0.206923
v 0.354095 1.300205 -0.062403
v 0.254906 1.169223 -0.180784
v 0.291847 1.179604 -0.054885
v 0.205820 1.078344 -0.179363
v 0.175874 1.054832 -0.149088
v 0.159236 1.039326 -0.228438
v -0.003944 0.951463 -0.417192
v 0.057886 0.978127 -0.360501
v 0.022247 0.978603 -0.430425
v -0.083387 0.984051 -0.576959
v 0.018803 1.052421 -0.515947
v -0.082752 1.090362 -0.689226
v 0.031221 1.127516 -0.571936
v -0.045235 1.256742 -0.760689
v 0.061680 1.207140 -0.597621
v 0.009128 1.361431 -0.742141
v 0.105619 1.279445 -0.589236
v 0.105870 1.474773 -0.732261
v 0.156763 1.334915 -0.548846
v 0.198067 1.556339 -0.639771
v 0.018296 1.000658 -0.241771
v 0.037146 1.003299 -0.238886
v 0.001411 0.874334 -0.160074
v 0.022270 0.870324 -0.142482
v 0.021564 0.993209 -0.258463
v 0.009193 0.853567 -0.174762
v 0.017803 -0.003345 -0.020015
v 0.028351 -0.001914 -0.044636
v 0.042327 0.003127 -0.008605
v 0.033464 0.635830 -0.071786
v 0.063322 0.634018 -0.058832
v 0.058493 0.485329 -0.070100
v 0.042713 0.483188 -0.033266
v 0.050400 0.280977 -0.067528
v 0.034376 0.278802 -0.030125
v 0.044787 0.628768 -0.100252
v 0.079403 0.492870 -0.016196
v 0.071632 0.288634 -0.012792
v 0.119595 0.965080 0.277571
v 0.321884 1.213861 0.412602
v 0.355220 1.418454 0.534122
v 0.268860 1.197250 0.483006
v 0.280052 1.365482 0.620464
v 0.212133 1.159038 0.534444
v 0.185244 1.276791 0.681791
v 0.157027 1.098259 0.556764
v 0.087760 1.156633 0.699621
v 0.111204 1.022673 0.546060
v 0.002038 1.025630 0.673343
v 0.083416 0.947428 0.505204
v -0.014082 0.899211 0.594724
v 0.071798 0.871488 0.436148
v 0.034651 0.849496 0.413732
v 0.101755 0.854845 0.365959
v 0.187485 0.846437 0.210920
v 0.199390 0.844397 0.128733
v 0.236719 0.869294 0.154234
v 0.326990 0.928325 0.009228
v 0.305492 0.958078 0.141487
v 0.422480 1.022623 0.010391
v 0.353644 1.038436 0.153823
v 0.479687 1.222920 0.033733
v 0.381013 1.112822 0.194384
v 0.511194 1.305766 0.138252
v 0.383564 1.170183 0.257090
v 0.493553 1.385800 0.261652
v 0.361638 1.203282 0.332904
v 0.415885 1.469941 0.401774
v 0.066167 0.848891 0.246858
v 0.061486 0.851170 0.228323
v 0.078757 0.846799 0.223089
v -0.028473 0.723571 0.215365
v -0.009482 0.705092 0.217689
v -0.043350 0.711465 0.235184
v -0.072126 0.613901 0.191161
v -0.059783 0.612781 0.160069
v -0.023932 0.481811 0.108851
v -0.030940 0.607236 0.172412
v 0.029393 0.474685 0.085335
v -0.031815 0.288634 0.070118
v 0.022586 0.280977 0.048041
v -0.008904 0.476291 0.061432
v -0.015061 0.278802 0.032599
v -0.010186 -0.003345 0.022782
v 0.014595 -0.001914 0.032948
v -0.021215 0.003127 0.047480
v -0.213816 0.665206 -0.425110
v -0.329037 0.614577 -0.749467
v -0.369818 0.687691 -0.974695
v -0.249105 0.651245 -0.767085
v -0.227727 0.712337 -0.982152
v -0.169323 0.680417 -0.756706
v -0.093613 0.787536 -0.934437
v -0.098458 0.697114 -0.712793
v -0.029383 0.803828 -0.846689
v -0.046556 0.698676 -0.640465
v 0.083444 0.793091 -0.688556
v -0.023332 0.685153 -0.554553
v 0.076757 0.759006 -0.532096
v -0.026099 0.657614 -0.455031
v -0.016932 0.678834 -0.412232
v -0.078559 0.624091 -0.407861
v -0.217689 0.547454 -0.328949
v -0.281181 0.537009 -0.276410
v -0.289823 0.517064 -0.323219
v -0.462267 0.470410 -0.295888
v -0.374636 0.502587 -0.396513
v -0.573166 0.402200 -0.402419
v -0.428915 0.501404 -0.473848
v -0.640605 0.465059 -0.544468
v -0.451711 0.514859 -0.558859
v -0.650264 0.500342 -0.691870
v -0.439691 0.540925 -0.638890
v -0.599669 0.554639 -0.820075
v -0.395427 0.575752 -0.703324
v -0.500426 0.666686 -0.917781
v -0.131835 0.634408 -0.310481
v -0.145182 0.639793 -0.297693
v -0.152507 0.622732 -0.297667
v -0.075162 0.581255 -0.177318
v -0.093769 0.563017 -0.171956
v -0.060927 0.563017 -0.192331
v -0.007438 0.432120 -0.082667
v -0.047566 0.426870 -0.061481
v 0.017471 0.290972 -0.042839
v -0.018425 0.433932 -0.052030
v 0.002820 0.281290 -0.005118
v -0.034962 0.283431 -0.018473
v -0.020560 0.003317 -0.008939
v 0.014488 0.008357 -0.025226
v 0.004694 0.001886 -0.000012
v -0.383551 0.821667 0.290904
v -0.589352 0.688644 0.537880
v -0.803732 0.679105 0.641220
v -0.636995 0.667223 0.464973
v -0.845831 0.624105 0.525123
v -0.658198 0.653676 0.383175
v -0.844791 0.609811 0.329835
v -0.644341 0.651362 0.299321
v -0.817789 0.616291 0.215334
v -0.596346 0.660918 0.224939
v -0.710140 0.593681 0.103174
v -0.524414 0.680194 0.174369
v -0.571427 0.678584 0.075024
v -0.429564 0.708643 0.144962
v -0.410365 0.739770 0.112891
v -0.364744 0.732676 0.181317
v -0.236357 0.783476 0.292643
v -0.179763 0.832317 0.328870
v -0.202944 0.799958 0.361720
v -0.128215 0.864717 0.512990
v -0.239069 0.796919 0.468775
v -0.185527 0.857747 0.656423
v -0.290859 0.786451 0.547110
v -0.293184 0.783375 0.768590
v -0.362108 0.767339 0.596968
v -0.428324 0.792567 0.825671
v -0.442186 0.742441 0.610984
v -0.602231 0.746219 0.782027
v -0.520090 0.715263 0.588262
v -0.699382 0.698380 0.751270
v -0.267128 0.820608 0.200078
v -0.287230 0.812755 0.183889
v -0.278578 0.829359 0.188370
v -0.174677 0.779525 0.125971
v -0.193524 0.761288 0.117436
v -0.163518 0.761288 0.141796
v -0.107420 0.630391 0.030988
v -0.074875 0.632203 0.031337
v -0.077944 0.489242 -0.005589
v -0.074262 0.625140 0.061967
v -0.037752 0.481701 0.035974
v -0.037505 0.479560 -0.004097
v -0.031291 0.277349 0.030463
v -0.072103 0.285006 -0.011743
v -0.031040 0.275175 -0.010227
v -0.041398 0.000739 -0.008187
v -0.014368 -0.005733 -0.007189
v -0.014534 -0.004302 0.019596
vn -0.5041 0.6459 0.5733
vn -0.7289 0.5826 0.3596
vn -0.5875 0.6706 0.4529
vn -0.2129 0.5047 0.8366
vn -0.8202 0.4398 -0.3659
vn -0.1177 0.2278 0.9666
vn -0.7271 0.6092 -0.3166
vn 0.0139 -0.2057 0.9785
vn -0.6138 0.7565 -0.2260
vn -0.2579 -0.2213 0.9405
vn -0.4923 0.8672 -0.0742
vn -0.3802 -0.4423 0.8123
vn -0.2584 0.9660 -0.0000
vn -0.6619 -0.2908 0.6909
vn -0.1805 0.8554 0.4855
vn -0.1805 0.8554 0.4856
vn -0.7216 -0.6348 0.2763
vn -0.5637 -0.3157 0.7632
vn -0.7521 0.5584 -0.3501
vn -0.7814 -0.2918 0.5516
vn -0.4799 0.8623 -0.1617
vn -0.7648 -0.5584 0.3213
vn -0.3801 0.9213 0.0824
vn -0.9109 -0.4016 0.0948
vn 0.0070 0.9583 0.2858
vn -0.9011 -0.4170 -0.1191
vn -0.0291 0.8750 0.4832
vn -0.9556 -0.1726 -0.2389
vn -0.1289 0.7717 0.6228
vn -0.9491 0.0472 -0.3115
vn -0.1216 0.6298 0.7671
vn -0.1998 0.4948 0.8457
vn -0.2004 0.5288 0.8248
vn -0.2176 0.5201 0.8259
vn -0.9326 0.1964 0.3029
vn -0.5622 0.3322 0.7573
vn 0.8103 -0.3779 -0.4478
vn 0.8054 -0.4109 -0.4271
vn 0.8207 -0.3783 -0.4281
vn 0.9350 -0.1338 -0.3284
vn 0.9396 -0.1259 -0.3182
vn -0.9341 0.2200 -0.2812
vn -0.9621 0.1101 -0.2494
vn -0.9667 0.1021 -0.2345
vn -0.9482 -0.1805 -0.2613
vn 0.2363 -0.9708 0.0420
vn 0.8343 -0.4884 -0.2558
vn 0.8556 -0.4402 -0.2722
vn -0.9047 0.0316 0.4249
vn -0.3845 0.2198 0.8966
vn -0.9171 -0.0710 -0.3922
vn -0.9183 -0.0549 -0.3922
vn -0.9192 0.0314 -0.3926
vn -0.9189 0.0393 -0.3925
vn -0.9189 0.0392 -0.3925
vn 0.9121 0.0079 -0.4099
vn 0.9144 0.0079 -0.4048
vn 0.9313 -0.0236 -0.3635
vn 0.9332 -0.0707 -0.3524
vn -0.9251 -0.2052 -0.3196
vn -0.4287 0.0473 0.9022
vn -0.4356 0.0551 0.8985
vn -0.4288 0.0395 0.9025
vn -0.4414 0.1105 0.8905
vn -0.4476 0.1259 0.8853
vn -0.7579 0.3030 0.5778
vn -0.7579 0.3031 0.5777
vn -0.0682 0.5173 -0.8531
vn -0.8972 0.2710 0.3486
vn -0.8972 0.2711 0.3487
vn 0.0923 0.6256 -0.7747
vn 0.0922 0.6256 -0.7747
vn -0.9558 0.2510 0.1534
vn 0.0595 0.7848 -0.6169
vn -0.9917 0.0961 0.0852
vn -0.9917 0.0960 0.0852
vn -0.1007 0.9020 -0.4199
vn -0.9835 -0.1806 0.0123
vn -0.2185 0.9526 -0.2119
vn -0.8456 -0.5046 -0.1744
vn -0.8455 -0.5046 -0.1744
vn -0.4460 0.8950 -0.0001
vn -0.8643 -0.2753 -0.4209
vn -0.6033 0.7533 0.2620
vn -0.6032 0.7533 0.2620
vn -0.4734 -0.5047 -0.7220
vn -0.4733 -0.5047 -0.7220
vn -0.8898 -0.4414 -0.1159
vn -0.6391 0.1858 -0.7463
vn -0.5976 0.2453 -0.7634
vn -0.0627 0.7555 -0.6521
vn -0.7856 -0.2193 -0.5785
vn -0.1426 0.9606 -0.2386
vn -0.5358 -0.4657 -0.7043
vn -0.5358 -0.4657 -0.7042
vn -0.4252 0.8528 -0.3032
vn -0.3591 -0.3246 -0.8750
vn -0.3712 0.8560 0.3597
vn -0.3712 0.8561 0.3597
vn -0.2355 -0.1205 -0.9644
vn -0.5777 0.7736 0.2606
vn -0.1502 0.1023 -0.9834
vn -0.1502 0.1022 -0.9834
vn -0.6980 0.6366 0.3280
vn -0.0267 0.2540 -0.9668
vn 0.7138 -0.5146 0.4751
vn 0.7601 -0.4715 0.4472
vn 0.7307 -0.5269 0.4342
vn -0.9005 0.3420 0.2684
vn -0.8485 0.4547 0.2706
vn -0.8618 0.4393 0.2535
vn -0.1523 0.4551 -0.8773
vn -0.1646 0.3516 -0.9216
vn -0.1942 0.3422 -0.9194
vn 0.2202 0.1267 -0.9672
vn 0.2920 0.1852 -0.9383
vn 0.3865 -0.4042 0.8290
vn 0.3692 -0.3689 0.8530
vn -0.7999 0.5480 -0.2445
vn -0.8141 0.4890 -0.3132
vn -0.8967 0.2462 -0.3677
vn 0.3137 -0.4387 0.8421
vn -0.9286 0.0720 -0.3640
vn -0.9524 -0.0543 -0.2998
vn 0.3177 -0.4292 0.8455
vn 0.3451 -0.3307 0.8784
vn 0.4239 0.4743 -0.7716
vn 0.4215 0.4737 -0.7733
vn 0.3514 -0.2717 0.8959
vn 0.4951 0.4066 -0.7679
vn 0.3586 -0.1308 0.9243
vn 0.3582 -0.1223 0.9256
vn 0.4856 0.3938 -0.7804
vn 0.3834 0.0824 -0.9199
vn -0.9488 0.0219 -0.3150
vn -0.9105 0.0533 -0.4102
vn -0.9085 0.0388 -0.4161
vn 0.3722 0.0745 -0.9252
vn -0.9138 -0.0000 -0.4061
vn 0.3752 0.0394 -0.9261
vn -0.0402 -0.9715 0.2336
vn 0.2710 -0.4708 0.8396
vn 0.2935 -0.4017 0.8675
vn 0.5448 0.7772 -0.3149
vn -0.9043 0.3298 0.2709
vn 0.4131 0.9072 -0.0795
vn -0.3401 0.9362 0.0881
vn -0.3645 0.9271 0.0875
vn -0.8479 0.5260 0.0658
vn 0.2330 0.9696 0.0742
vn -0.8813 0.4626 -0.0963
vn -0.8813 0.4627 -0.0961
vn 0.5826 0.7491 0.3153
vn -0.9225 0.1580 -0.3522
vn -0.9225 0.1579 -0.3522
vn 0.4100 0.7955 0.4462
vn -0.6343 0.6710 -0.3840
vn -0.6343 0.6709 -0.3840
vn 0.4623 0.4733 0.7498
vn 0.4623 0.4734 0.7498
vn -0.4264 0.7408 -0.5191
vn 0.1552 0.4948 0.8550
vn -0.0365 0.8977 -0.4390
vn -0.0735 0.1651 0.9835
vn -0.0734 0.1651 0.9835
vn 0.4818 0.5426 0.6881
vn -0.4365 0.6518 0.6202
vn -0.4953 0.6518 0.5743
vn -0.8965 0.4424 -0.0245
vn -0.0230 0.5744 0.8183
vn -0.6855 0.6070 -0.4021
vn -0.5218 0.7456 0.4146
vn -0.5448 0.7772 0.3149
vn -0.2118 0.3708 0.9042
vn -0.5891 0.8037 -0.0835
vn -0.3370 0.1658 0.9268
vn -0.2555 0.8368 -0.4842
vn -0.2555 0.8368 -0.4843
vn -0.5570 0.1577 0.8154
vn -0.5570 0.1578 0.8154
vn -0.0561 0.8892 -0.4540
vn -0.7267 0.1888 0.6605
vn 0.1165 0.9194 -0.3756
vn -0.8502 0.1888 0.4914
vn -0.8502 0.1887 0.4914
vn 0.1468 -0.8621 -0.4850
vn 0.2440 -0.8808 -0.4058
vn 0.1879 -0.8553 -0.4829
vn 0.3646 0.9311 -0.0130
vn 0.4346 0.8979 0.0705
vn 0.4415 0.8959 0.0482
vn -0.7956 0.3472 0.4965
vn -0.7596 0.3529 0.5463
vn -0.7699 0.3307 0.5457
vn -0.4407 0.6144 0.6545
vn -0.3970 0.5990 0.6954
vn -0.2817 -0.8185 -0.5007
vn -0.3047 -0.8046 -0.5097
vn 0.7951 0.6038 0.0573
vn 0.8147 0.5743 0.0801
vn 0.8637 0.4184 0.2812
vn -0.3550 -0.5100 -0.7835
vn -0.3574 -0.4791 -0.8017
vn -0.3972 -0.1882 -0.8982
vn 0.8807 0.3632 0.3039
vn 0.9078 0.1577 0.3887
vn 0.9177 0.1025 0.3839
vn -0.3629 0.3626 0.8584
vn -0.3234 0.1414 0.9356
vn -0.3244 0.1182 0.9385
vn -0.3670 0.3855 0.8466
vn -0.3341 0.0157 0.9424
vn -0.3989 -0.1654 -0.9020
vn -0.4143 -0.0552 -0.9084
vn 0.9314 0.0158 0.3636
vn 0.9314 0.0157 0.3636
vn 0.0271 -0.9700 -0.2414
vn 0.0271 -0.9701 -0.2414
vn 0.0270 -0.9700 -0.2414
vn -0.7944 0.4321 -0.4268
vn 0.2620 0.7400 0.6195
vn -0.6661 0.3535 -0.6568
vn 0.0588 0.6990 0.7127
vn 0.0588 0.6991 0.7126
vn -0.5313 0.8464 -0.0363
vn -0.5432 0.8345 -0.0924
vn -0.5502 0.5654 -0.6145
vn -0.3298 0.8094 0.4859
vn -0.1924 0.2525 -0.9483
vn -0.4219 0.6841 0.5950
vn -0.0486 0.4339 -0.8996
vn -0.3984 0.8520 -0.3398
vn -0.4605 0.8561 -0.2345
vn -0.6269 0.7623 0.1612
vn -0.0018 0.6385 -0.7696
vn -0.7904 0.4887 0.3693
vn -0.3094 0.7956 -0.5208
vn -0.3373 0.7949 -0.5044
vn 0.1561 0.7556 -0.6361
vn -0.8819 0.4638 -0.0846
vn 0.6822 0.6202 -0.3873
vn 0.6822 0.6202 -0.3872
vn 0.1346 0.4809 -0.8664
vn 0.1528 0.9841 -0.0907
vn 0.1231 0.9922 -0.0190
vn -0.1561 0.7556 0.6362
vn 0.2917 0.8192 -0.4937
vn -0.5846 0.5924 0.5543
vn 0.6038 0.6897 -0.3997
vn -0.4757 0.8450 0.2442
vn -0.2226 0.9518 0.2111
vn -0.7457 0.5679 0.3484
vn -0.2308 0.9654 0.1215
vn -0.6219 0.7626 0.1780
vn 0.6206 0.7785 0.0944
vn 0.6205 0.7785 0.0944
vn -0.8888 0.4561 -0.0459
vn 0.3208 0.9045 0.2811
vn -0.9161 0.0628 -0.3961
vn 0.3291 0.8299 0.4505
vn 0.2961 0.8808 0.3695
vn 0.4279 0.8667 0.2566
vn -0.0802 0.9382 -0.3367
vn 0.0062 -0.9188 0.3946
vn 0.1774 -0.9533 0.2443
vn 0.0510 -0.9212 0.3856
vn -0.6288 0.4872 -0.6060
vn -0.5005 0.4585 -0.7344
vn 0.4107 0.8344 -0.3675
vn -0.1502 0.5341 -0.8319
vn -0.3630 -0.8020 0.4743
vn -0.4089 -0.7728 0.4855
vn -0.6232 -0.5121 0.5910
vn -0.0150 0.4175 -0.9086
vn -0.0031 0.3628 -0.9319
vn 0.0652 0.1653 -0.9841
vn -0.6425 -0.4784 0.5986
vn -0.7193 -0.1810 0.6707
vn 0.7731 0.6124 0.1650
vn 0.9204 0.3848 0.0691
vn 0.9308 0.3609 0.0580
vn 0.9888 0.1492 0.0040
vn -0.7220 -0.1580 0.6736
vn 0.9920 0.1260 0.0040
vn 0.9989 0.0470 0.0043
vn -0.7245 -0.0550 0.6870
vn -0.7245 -0.0551 0.6871
vn 0.0652 0.1098 -0.9918
vn 0.0380 0.0078 -0.9992
vn 0.0377 0.0157 -0.9992
vn 0.0376 -0.0079 -0.9993
vn -0.6939 -0.4086 0.5930
vn 0.0377 -0.0079 -0.9993
vn -0.2357 -0.9706 0.0496
vn -0.6730 -0.4809 0.5620
vn 0.9989 0.0471 0.0044
vn 0.9980 0.0627 0.0043
vt 0.625977 0.031250
vt 0.625977 0.285645
vt 0.595703 0.187500
vt 0.576172 0.031250
vt 0.593750 0.187988
vt 0.576172 0.285645
vt 0.593750 0.287109
vt 0.593750 0.544922
vt 0.562012 0.441406
vt 0.627441 0.287109
vt 0.655762 0.437988
vt 0.627441 0.544922
vt 0.306885 0.040527
vt 0.306885 0.285645
vt 0.266846 0.188477
vt 0.627930 0.031250
vt 0.657715 0.170898
vt 0.627930 0.276367
vt 0.878906 0.641113
vt 0.656250 0.641113
vt 0.739746 0.608887
vt 0.881836 0.092285
vt 0.759277 0.119141
vt 0.659180 0.092285
vt 0.191895 0.643799
vt 0.000928 0.643799
vt 0.070435 0.611328
vt 0.885254 0.844849
vt 0.782715 0.871826
vt 0.693848 0.844849
vt 0.837891 0.985603
vt 0.682129 0.985603
vt 0.735840 0.958130
vt 0.156616 0.797485
vt 0.076721 0.832031
vt 0.000928 0.797485
vt 0.971680 0.201172
vt 0.881348 0.201172
vt 0.887207 0.179688
vt 0.940918 0.473633
vt 0.879883 0.497070
vt 0.850586 0.473633
vt 0.477051 0.517090
vt 0.477051 0.418945
vt 0.500488 0.451660
vt 0.912109 0.739502
vt 0.896973 0.651611
vt 0.912109 0.641602
vt 0.000928 0.683594
vt 0.156982 0.683594
vt 0.082642 0.719727
vt 0.434570 0.958069
vt 0.535645 0.927856
vt 0.590820 0.958069
vt 0.881348 0.675293
vt 0.689941 0.675293
vt 0.779297 0.647461
vt 0.191895 0.576904
vt 0.070435 0.609375
vt 0.000928 0.576904
vt 0.397217 0.813599
vt 0.171143 0.813599
vt 0.276123 0.779663
vt 0.883789 0.353027
vt 0.744629 0.383789
vt 0.657715 0.353027
vt 0.666992 0.812744
vt 0.434570 0.812744
vt 0.528320 0.779663
vt 0.541504 0.115723
vt 0.392578 0.150879
vt 0.308838 0.115723
vt 0.692383 0.873291
vt 0.434570 0.873291
vt 0.541504 0.844849
vt 0.458984 0.542236
vt 0.304688 0.573730
vt 0.201416 0.542236
vt 0.625488 0.287109
vt 0.625488 0.548828
vt 0.595703 0.441895
vt 0.529297 0.287109
vt 0.560547 0.443359
vt 0.529297 0.548828
vt 0.009178 0.540527
vt 0.000928 0.481445
vt 0.009109 0.483398
vt 0.003637 0.416016
vt 0.014740 0.411133
vt 0.020401 0.483887
vt 0.031769 0.412598
vt 0.028214 0.484863
vt 0.041809 0.420410
vt 0.314697 0.413086
vt 0.306152 0.404297
vt 0.323975 0.404297
vt 0.006050 0.298828
vt 0.020538 0.294922
vt 0.054871 0.301270
vt 0.046783 0.229492
vt 0.065735 0.227539
vt 0.046539 0.134277
vt 0.065186 0.131836
vt 0.042633 0.003418
vt 0.054840 0.000977
vt 0.040955 0.299805
vt 0.019806 0.229004
vt 0.020233 0.137695
vt 0.024414 0.005859
vt 0.001754 0.131348
vt 0.012352 0.000977
vt 0.000928 0.226562
vt 0.540527 0.000977
vt 0.385986 0.038574
vt 0.266846 0.000977
vt 0.570312 0.184082
vt 0.308838 0.184082
vt 0.414307 0.152832
vt 0.432617 0.680908
vt 0.278076 0.710693
vt 0.171143 0.680908
vt 0.911621 0.055664
vt 0.659180 0.055664
vt 0.755859 0.031250
vt 0.432617 0.647461
vt 0.282715 0.678955
vt 0.180542 0.647461
vt 0.917969 0.777832
vt 0.682129 0.777832
vt 0.766113 0.754517
vt 0.893066 0.321289
vt 0.753906 0.351074
vt 0.657715 0.321289
vt 0.682129 0.712646
vt 0.895020 0.712646
vt 0.822266 0.739502
vt 0.668945 0.806885
vt 0.791992 0.779663
vt 0.881836 0.806885
vt 0.657715 0.473633
vt 0.848633 0.473633
vt 0.779297 0.506348
vt 0.724121 0.602539
vt 0.826660 0.575439
vt 0.915527 0.602539
vt 0.792480 0.000977
vt 0.953125 0.000977
vt 0.895020 0.028809
vt 0.171143 0.967560
vt 0.253174 0.938538
vt 0.331299 0.967560
vt 0.543457 0.131348
vt 0.543457 0.040527
vt 0.564941 0.046875
vt 0.525879 0.509521
vt 0.502441 0.448730
vt 0.525879 0.418945
vt 0.199585 0.536377
vt 0.104553 0.536377
vt 0.134155 0.512695
vt 0.428223 0.938538
vt 0.341797 0.960602
vt 0.333252 0.938538
vt 0.156982 0.757690
vt 0.000928 0.757690
vt 0.075317 0.721680
vt 0.838379 0.926025
vt 0.737305 0.956268
vt 0.682129 0.926025
vt 0.357666 0.989792
vt 0.171143 0.989792
vt 0.254150 0.969421
vt 0.846191 0.057129
vt 0.724609 0.090332
vt 0.659180 0.057129
vt 0.432617 0.644043
vt 0.201416 0.644043
vt 0.312012 0.608887
vt 0.540039 0.078125
vt 0.402100 0.113770
vt 0.308838 0.078125
vt 0.903809 0.413086
vt 0.657715 0.413086
vt 0.763672 0.385742
vt 0.680176 0.712646
vt 0.530273 0.744385
vt 0.434570 0.712646
vt 0.692383 0.843018
vt 0.434570 0.843018
vt 0.541504 0.814575
vt 0.458984 0.575439
vt 0.304688 0.606934
vt 0.201416 0.575439
vt 0.475098 0.459961
vt 0.201416 0.459961
vt 0.323242 0.418945
vt 0.170410 0.452148
vt 0.163086 0.510742
vt 0.158813 0.453613
vt 0.150513 0.452148
vt 0.178467 0.453125
vt 0.186890 0.386719
vt 0.175903 0.380371
vt 0.157471 0.380859
vt 0.145874 0.385254
vt 0.156372 0.296875
vt 0.141357 0.292969
vt 0.154297 0.225098
vt 0.178345 0.293945
vt 0.192993 0.293457
vt 0.181152 0.221680
vt 0.155640 0.132812
vt 0.181396 0.129395
vt 0.199585 0.219238
vt 0.135986 0.218750
vt 0.137939 0.126953
vt 0.199585 0.127441
vt 0.148315 0.000977
vt 0.160034 0.005371
vt 0.177368 0.002930
vt 0.189209 0.000977
vt 0.275391 0.413086
vt 0.266846 0.404297
vt 0.284668 0.404297
vt 0.266846 0.324707
vt 0.421631 0.287109
vt 0.527344 0.324707
vt 0.570312 0.216797
vt 0.308838 0.216797
vt 0.414307 0.185547
vt 0.696289 0.680908
vt 0.541504 0.710693
vt 0.434570 0.680908
vt 0.915527 0.231934
vt 0.659180 0.231934
vt 0.759766 0.208496
vt 0.883301 0.546875
vt 0.731934 0.571533
vt 0.627441 0.546875
vt 0.680176 0.777832
vt 0.434570 0.777832
vt 0.530273 0.746094
vt 0.680176 0.875122
vt 0.540527 0.902649
vt 0.434570 0.875122
vt 0.879395 0.207031
vt 0.659180 0.207031
vt 0.739258 0.179688
vt 0.654297 0.608887
vt 0.534180 0.645508
vt 0.434570 0.608887
vt 0.848633 0.540527
vt 0.657715 0.540527
vt 0.727051 0.508057
vt 0.889160 0.680908
vt 0.786621 0.707764
vt 0.697754 0.680908
vt 0.148926 0.866821
vt 0.000928 0.866821
vt 0.048462 0.833862
vt 0.148926 0.868652
vt 0.068298 0.901367
vt 0.000928 0.868652
vt 0.972656 0.308594
vt 0.881836 0.308594
vt 0.888184 0.287109
vt 0.930664 0.926025
vt 0.870117 0.949402
vt 0.840332 0.926025
vt 0.848145 0.057129
vt 0.942871 0.057129
vt 0.913574 0.081055
vt 0.865234 0.255859
vt 0.952148 0.233398
vt 0.960449 0.255859
vt 0.000928 0.645752
vt 0.156982 0.645752
vt 0.082642 0.681885
vt 0.171143 0.936707
vt 0.272217 0.906433
vt 0.327148 0.936707
vt 0.434570 0.980743
vt 0.638672 0.980743
vt 0.538574 0.999072
vt 0.659180 0.262207
vt 0.781738 0.233398
vt 0.863281 0.262207
vt 0.659180 0.150391
vt 0.881836 0.150391
vt 0.782227 0.177734
vt 0.171143 0.877930
vt 0.310059 0.845703
vt 0.393555 0.877930
vt 0.657715 0.415039
vt 0.903809 0.415039
vt 0.797363 0.442383
vt 0.171143 0.744385
vt 0.321045 0.712646
vt 0.416992 0.744385
vt 0.171143 0.815430
vt 0.428711 0.815430
vt 0.321777 0.843872
vt 0.308838 0.283203
vt 0.463135 0.251465
vt 0.566406 0.283203
vt 0.201416 0.461914
vt 0.462158 0.461914
vt 0.353027 0.503906
vt 0.249268 0.351562
vt 0.235107 0.417480
vt 0.237549 0.353027
vt 0.229004 0.352051
vt 0.220459 0.352051
vt 0.227417 0.288574
vt 0.215820 0.285645
vt 0.238892 0.286133
vt 0.255859 0.285645
vt 0.238037 0.204590
vt 0.259033 0.202637
vt 0.238403 0.136719
vt 0.223633 0.200195
vt 0.219971 0.130371
vt 0.201416 0.134277
vt 0.210083 0.203125
vt 0.207397 0.001953
vt 0.264893 0.132812
vt 0.234131 0.004883
vt 0.252197 0.000977
vt 0.220703 0.000977
vt 0.334961 0.404297
vt 0.343750 0.413086
vt 0.325928 0.413086
vt 0.308838 0.249512
vt 0.465088 0.218750
vt 0.570312 0.249512
vt 0.201416 0.505615
vt 0.459961 0.505615
vt 0.356689 0.540283
vt 0.266846 0.402344
vt 0.420166 0.366699
vt 0.525391 0.402344
vt 0.171143 0.879822
vt 0.424805 0.879822
vt 0.326660 0.904602
vt 0.434570 0.678955
vt 0.584473 0.647461
vt 0.688477 0.678955
vt 0.308838 0.040527
vt 0.541504 0.040527
vt 0.458008 0.076172
vt 0.682129 0.897217
vt 0.823242 0.875122
vt 0.915039 0.897217
vt 0.657715 0.287109
vt 0.880371 0.287109
vt 0.796387 0.319824
vt 0.659180 0.148438
vt 0.782227 0.121094
vt 0.881836 0.148438
vt 0.682129 0.899048
vt 0.883789 0.899048
vt 0.805664 0.924194
vt 0.434570 0.978882
vt 0.538574 0.959930
vt 0.635742 0.978882
vt 0.839844 0.958130
vt 0.986328 0.958130
vt 0.942871 0.983139
vt 0.000928 0.936279
vt 0.081482 0.903259
vt 0.147339 0.936279
vt 0.880859 0.608887
vt 0.971191 0.608887
vt 0.964844 0.630371
vt 0.850586 0.540527
vt 0.911133 0.517334
vt 0.940918 0.540527
vt 0.424072 0.930298
vt 0.329102 0.930298
vt 0.358643 0.906433
vt 0.555664 0.551514
vt 0.469238 0.573730
vt 0.460938 0.551514
vt 0.156982 0.795654
vt 0.000928 0.795654
vt 0.075317 0.759521
vt 0.156982 0.938110
vt 0.055969 0.968323
vt 0.000928 0.938110
vt 0.884766 0.842529
vt 0.693848 0.842529
vt 0.783203 0.814575
vt 0.191895 0.542480
vt 0.070435 0.574951
vt 0.000928 0.542480
vt 0.882812 0.285156
vt 0.659180 0.285156
vt 0.758789 0.264160
vt 0.657715 0.904541
vt 0.516602 0.925964
vt 0.434570 0.904541
vt 0.657715 0.444336
vt 0.903809 0.444336
vt 0.797363 0.472168
vt 0.171143 0.777832
vt 0.321045 0.746338
vt 0.416992 0.777832
vt 0.266846 0.326660
vt 0.515137 0.326660
vt 0.415039 0.365234
vt 0.542480 0.028809
vt 0.697266 0.000977
vt 0.791016 0.028809
vt 0.460938 0.575439
vt 0.722656 0.575439
vt 0.615234 0.605469
vt 0.098938 0.499512
vt 0.095947 0.434570
vt 0.103943 0.436523
vt 0.084351 0.437500
vt 0.112061 0.437012
vt 0.103821 0.382324
vt 0.115967 0.381836
vt 0.077576 0.381836
vt 0.093384 0.377930
vt 0.073853 0.302246
vt 0.121643 0.302734
vt 0.108032 0.297363
vt 0.129517 0.235840
vt 0.094543 0.298828
vt 0.067627 0.234375
vt 0.093445 0.230469
vt 0.111877 0.228027
vt 0.095093 0.136230
vt 0.067627 0.139648
vt 0.114685 0.135254
vt 0.134155 0.141113
vt 0.125366 0.004883
vt 0.081299 0.003906
vt 0.112610 0.000977
vt 0.294922 0.413086
vt 0.286377 0.404297
vt 0.304199 0.404297
vt 0.099792 0.001953
s 1
usemtl M_Leaves2
f 1/1/1 2/2/2 3/3/3
f 1/4/1 4/5/4 2/6/2
f 1/7/5 5/8/5 4/9/5
f 1/10/6 6/11/6 5/12/6
f 1/13/7 7/14/7 6/15/7
f 1/16/8 8/17/8 7/18/8
f 1/19/9 9/20/9 8/21/9
f 1/22/10 10/23/10 9/24/10
f 1/25/11 11/26/11 10/27/11
f 1/28/12 12/29/12 11/30/12
f 1/31/13 13/32/13 12/33/13
f 1/34/14 14/35/14 13/36/14
f 1/37/15 15/38/15 14/39/16
f 1/40/17 16/41/17 15/42/17
f 1/43/18 17/44/18 18/45/18
f 1/46/19 19/47/19 17/48/19
f 1/49/20 20/50/20 19/51/20
f 1/52/21 21/53/21 20/54/21
f 1/55/22 22/56/22 21/57/22
f 1/58/23 23/59/23 22/60/23
f 1/61/24 24/62/24 23/63/24
f 1/64/25 25/65/25 24/66/25
f 1/67/26 26/68/26 25/69/26
f 1/70/27 27/71/27 26/72/27
f 1/73/28 28/74/28 27/75/28
f 1/76/29 29/77/29 28/78/29
f 1/79/30 30/80/30 29/81/30
f 1/82/1 3/83/3 30/84/31
f 49/113/66 50/114/66 78/115/67
f 49/116/68 51/117/68 50/118/68
f 49/119/69 52/120/70 51/121/70
f 49/122/71 53/123/71 52/124/72
f 49/125/73 54/126/73 53/127/73
f 49/128/74 55/129/74 54/130/74
f 49/131/75 56/132/76 55/133/76
f 49/134/77 57/135/77 56/136/77
f 49/137/78 58/138/78 57/139/78
f 49/140/79 59/141/79 58/142/79
f 49/143/80 60/144/81 59/145/81
f 49/146/82 61/147/82 60/148/82
f 49/149/83 62/150/83 61/151/83
f 49/152/84 63/153/85 62/154/85
f 49/155/86 64/156/87 63/157/87
f 49/158/88 66/159/88 65/160/88
f 49/161/89 67/162/90 66/163/91
f 49/164/89 68/165/92 67/166/90
f 49/167/93 69/168/93 68/169/93
f 49/170/94 70/171/94 69/172/95
f 49/173/96 71/174/96 70/175/96
f 49/176/97 72/177/97 71/178/97
f 49/179/98 73/180/99 72/181/99
f 49/182/100 74/183/100 73/184/100
f 49/185/101 75/186/101 74/187/101
f 49/188/102 76/189/103 75/190/103
f 49/191/104 77/192/104 76/193/104
f 49/194/105 78/195/105 77/196/105
f 97/225/144 98/226/144 126/227/144
f 97/228/145 99/229/145 98/230/145
f 97/231/146 100/232/146 99/233/146
f 97/234/147 101/235/148 100/236/149
f 97/237/147 102/238/150 101/239/148
f 97/240/151 103/241/152 102/242/152
f 97/243/153 104/244/153 103/245/153
f 97/246/154 105/247/155 104/248/154
f 97/249/156 106/250/156 105/251/156
f 97/252/157 107/253/157 106/254/158
f 97/255/159 108/256/160 107/257/160
f 97/258/161 109/259/161 108/260/161
f 97/261/162 110/262/162 109/263/162
f 97/264/163 111/265/163 110/266/163
f 97/267/164 112/268/165 111/269/164
f 97/270/166 114/271/166 113/272/166
f 97/273/167 115/274/168 114/275/169
f 97/276/167 116/277/170 115/278/168
f 97/279/171 117/280/171 116/281/171
f 97/282/172 118/283/173 117/284/174
f 97/285/172 119/286/175 118/287/173
f 97/288/176 120/289/176 119/290/176
f 97/291/177 121/292/177 120/293/178
f 97/294/179 122/295/179 121/296/180
f 97/297/181 123/298/181 122/299/181
f 97/300/182 124/301/182 123/302/182
f 97/303/183 125/304/183 124/305/183
f 97/306/184 126/307/185 125/308/184
f 142/333/220 143/334/220 171/335/220
f 142/336/221 144/337/221 143/338/221
f 142/339/222 145/340/222 144/341/222
f 142/342/223 146/343/224 145/344/223
f 142/345/225 147/346/226 146/347/227
f 142/348/225 148/349/228 147/350/226
f 142/351/229 149/352/229 148/353/229
f 142/354/230 150/355/230 149/356/230
f 142/357/231 151/358/231 150/359/231
f 142/360/232 152/361/233 151/362/234
f 142/363/232 153/364/235 152/365/233
f 142/366/236 154/367/236 153/368/236
f 142/369/237 155/370/238 154/371/239
f 142/372/237 156/373/240 155/374/238
f 142/375/241 157/376/242 156/377/242
f 142/378/243 159/379/243 158/380/243
f 142/381/244 160/382/245 159/383/246
f 142/384/244 161/385/247 160/386/245
f 142/387/248 162/388/248 161/389/248
f 142/390/249 163/391/249 162/392/249
f 142/393/250 164/394/251 163/395/252
f 142/396/250 165/397/253 164/398/251
f 142/399/250 166/400/254 165/401/253
f 142/402/255 167/403/256 166/404/255
f 142/405/257 168/406/257 167/407/257
f 142/408/258 169/409/258 168/410/258
f 142/411/259 170/412/259 169/413/259
f 142/414/260 171/415/260 170/416/260
usemtl M_Branch
f 1/85/32 31/86/33 32/87/34
f 32/87/34 31/86/33 33/88/35
f 32/87/34 33/88/35 34/89/36
f 35/90/37 1/85/38 32/87/39
f 32/87/39 36/91/40 35/90/37
f 32/87/39 34/89/41 36/91/40
f 1/85/42 35/90/43 31/92/44
f 35/90/43 33/93/35 31/92/44
f 35/90/43 36/91/45 33/93/35
f 37/94/46 38/95/47 39/96/48
f 34/89/36 40/97/49 41/98/50
f 34/89/36 33/88/35 40/97/49
f 40/99/49 42/100/51 43/101/52
f 43/101/52 42/100/51 44/102/53
f 43/101/52 44/102/53 45/103/54
f 45/103/54 44/102/53 38/104/55
f 45/103/54 38/104/55 37/105/55
f 34/89/41 46/106/56 36/91/40
f 34/89/41 41/98/57 46/106/56
f 41/98/57 42/100/58 46/106/56
f 41/98/57 47/107/58 42/100/58
f 42/100/58 47/107/58 48/108/59
f 42/100/58 48/108/59 44/102/59
f 44/102/59 48/108/59 39/109/48
f 44/102/59 39/109/48 38/104/47
f 36/91/45 40/99/49 33/93/35
f 36/91/45 46/106/60 40/99/49
f 40/99/49 46/106/60 42/100/51
f 45/110/61 37/111/62 39/109/62
f 45/110/61 39/109/62 48/108/63
f 43/112/64 45/110/61 48/108/63
f 43/112/64 48/108/63 47/107/65
f 41/98/50 43/112/64 47/107/65
f 41/98/50 40/97/49 43/112/64
f 81/197/106 49/198/107 79/199/108
f 49/198/109 80/200/110 79/199/111
f 49/198/112 81/197/113 80/201/114
f 81/197/113 82/202/115 80/201/114
f 81/197/113 83/203/116 82/202/115
f 81/197/106 84/204/117 83/203/118
f 81/197/106 79/199/108 84/204/117
f 79/199/111 82/205/119 84/204/120
f 82/205/119 85/206/121 84/204/120
f 83/203/118 84/204/117 85/206/122
f 82/205/119 86/207/123 85/206/121
f 86/207/123 87/208/124 85/206/121
f 88/209/125 85/206/122 87/208/126
f 83/203/118 85/206/122 88/209/125
f 83/203/116 88/209/127 86/210/128
f 88/209/125 87/208/126 89/211/129
f 86/210/128 88/209/127 89/211/130
f 89/211/129 87/208/126 90/212/131
f 89/211/129 90/212/131 91/213/132
f 92/214/133 89/211/130 91/213/134
f 86/210/128 89/211/130 92/214/133
f 92/215/135 90/212/136 87/208/124
f 92/215/135 93/216/137 90/212/136
f 92/214/133 91/213/134 93/217/138
f 86/207/123 92/215/135 87/208/124
f 93/216/137 94/218/139 96/219/139
f 93/217/138 95/220/140 94/221/140
f 93/217/138 91/213/134 95/220/140
f 93/216/137 96/219/139 90/212/136
f 94/222/141 95/223/142 96/224/143
f 91/213/132 96/219/143 95/220/142
f 91/213/132 90/212/131 96/219/143
f 83/203/116 86/210/128 82/202/115
f 79/199/111 80/200/110 82/205/119
f 129/309/186 97/310/187 127/311/188
f 97/310/189 128/312/190 127/311/191
f 97/310/192 129/313/193 128/312/194
f 129/313/193 130/314/195 128/312/194
f 129/313/193 131/315/196 130/314/195
f 129/309/186 132/316/197 131/317/198
f 129/309/186 127/311/188 132/316/197
f 127/311/191 130/314/199 132/316/200
f 130/314/199 133/318/201 132/316/200
f 131/317/198 132/316/197 133/318/202
f 131/317/198 133/318/202 134/319/203
f 134/319/203 133/318/202 135/320/204
f 136/321/205 135/320/206 133/318/201
f 130/314/199 136/321/205 133/318/201
f 136/321/205 137/322/207 135/320/206
f 136/321/208 138/323/209 137/322/210
f 136/321/208 134/324/211 138/323/209
f 131/315/196 134/324/211 136/321/208
f 131/315/196 136/321/208 130/314/195
f 137/322/210 138/323/209 139/325/212
f 138/326/213 140/327/214 139/328/214
f 134/319/203 135/320/204 138/326/213
f 138/326/213 135/320/204 140/327/214
f 137/322/207 141/329/215 140/327/216
f 141/330/217 139/331/218 140/332/219
f 137/322/207 140/327/216 135/320/206
f 137/322/210 139/325/212 141/329/212
f 127/311/191 128/312/190 130/314/199
f 142/417/261 172/418/262 174/419/263
f 172/418/264 142/417/265 173/420/266
f 142/417/267 174/419/263 173/421/268
f 172/418/262 175/422/269 174/419/263
f 174/419/263 175/422/269 176/423/270
f 174/419/263 176/423/270 173/421/268
f 172/418/264 173/420/266 176/424/271
f 172/418/264 176/424/271 177/425/272
f 177/425/272 176/424/271 178/426/273
f 175/422/269 178/427/274 176/423/270
f 175/422/269 179/428/275 178/427/274
f 179/428/275 180/429/276 178/427/274
f 181/430/277 178/426/273 180/431/278
f 177/425/272 178/426/273 181/430/277
f 177/425/279 181/430/280 179/428/281
f 179/428/281 181/430/280 182/432/282
f 181/430/277 180/431/278 182/432/283
f 179/428/281 182/432/282 183/433/284
f 183/433/284 182/432/282 184/434/285
f 182/432/283 185/435/286 184/434/287
f 182/432/283 180/431/278 185/435/286
f 183/433/288 186/436/289 185/437/290
f 183/433/288 185/437/290 180/429/276
f 186/436/289 187/438/291 185/437/290
f 184/434/287 185/435/286 187/439/292
f 186/436/289 188/440/293 187/438/291
f 188/441/294 189/442/295 187/443/292
f 184/434/287 187/439/292 189/444/295
f 186/436/296 189/444/297 188/440/297
f 186/436/296 184/434/285 189/444/297
f 183/433/284 184/434/285 186/436/296
f 179/428/275 183/433/288 180/429/276
f 177/425/279 179/428/281 175/422/269
f 172/418/262 177/425/279 175/422/269
