# Blender 5.1.2
# www.blender.org
mtllib SM_TropicalFlower_01.mtl
o SM_TropicalFlower_01
v -0.152054 0.605253 -0.053247
v -0.166078 0.729853 -0.062846
v -0.131844 0.556272 -0.065303
v -0.087464 0.296632 -0.070736
v -0.026831 -0.006502 -0.096764
v -0.004982 -0.006418 -0.091353
v -0.077765 0.316481 -0.081100
v -0.121666 0.555552 -0.047181
v -0.079431 0.307336 -0.067656
v -0.010807 0.013964 -0.107454
v -0.087213 0.322776 -0.099022
v -0.094974 0.319983 -0.098210
v -0.119864 0.437623 -0.063827
v -0.148862 0.584615 -0.041454
v -0.154132 0.594163 -0.045687
v -0.180508 0.725511 -0.052229
v -0.168690 0.747966 -0.041368
v -0.197161 0.937648 -0.018231
v -0.229360 0.887340 -0.029429
v -0.243103 0.866810 -0.066955
v -0.232197 0.873101 -0.088064
v -0.211038 0.882206 -0.095852
v -0.189027 0.904276 -0.069493
v 0.093587 0.526647 0.170645
v 0.094988 0.478033 0.168232
v 0.112597 0.621947 0.212204
v 0.109645 0.637726 0.199663
v 0.086965 0.520052 0.162748
v 0.081244 0.511245 0.161854
v 0.082447 0.379269 0.127110
v 0.097241 0.648792 0.214771
v 0.076616 0.476593 0.171696
v 0.077375 0.263751 0.112176
v 0.065743 0.259642 0.104135
v 0.069894 0.253643 0.094143
v 0.095736 0.269015 0.111467
v 0.097017 0.269920 0.104167
v 0.061004 -0.006972 0.041979
v 0.054964 -0.015089 0.018767
v 0.044264 -0.022372 0.034379
v 0.107563 0.787194 0.239455
v 0.099178 0.773672 0.265113
v 0.127690 0.771526 0.285644
v 0.159608 0.769022 0.270858
v 0.159226 0.783968 0.244567
v 0.139988 0.836559 0.204255
v -0.151327 0.249342 0.142310
v -0.075692 0.008598 0.035057
v -0.091063 0.003996 0.046329
v -0.146531 0.260105 0.140245
v -0.192328 0.461952 0.213325
v -0.185092 0.362474 0.186800
v -0.214663 0.488702 0.240923
v -0.207578 0.481782 0.238520
v -0.177204 0.266893 0.135112
v -0.218473 0.504647 0.226243
v -0.220245 0.498315 0.236872
v -0.241054 0.617790 0.272675
v -0.259956 0.623065 0.260023
v -0.173981 0.270796 0.129963
v -0.248897 0.581518 0.266445
v -0.307093 0.778725 0.355066
v -0.308556 0.748888 0.292403
v -0.299572 0.736368 0.255271
v -0.244121 0.736572 0.290648
v -0.265985 0.749093 0.316584
v -0.092618 0.024272 0.032694
v -0.155979 0.267833 0.132912
v 0.055211 0.622774 0.033041
v 0.078190 0.631974 0.034231
v 0.073423 0.834901 0.034214
v 0.058934 0.681391 0.047369
v 0.050830 0.817265 0.027986
v 0.025682 0.355814 0.034307
v 0.029683 0.356941 0.026075
v 0.053552 0.491209 0.050239
v 0.063916 0.670240 0.056267
v 0.070177 0.658830 0.056123
v 0.053229 0.820891 0.046466
v 0.073593 0.672028 0.050795
v 0.018212 1.002898 0.041925
v 0.034054 0.980475 0.075028
v 0.082250 0.980485 0.080553
v 0.103484 0.984413 0.033541
v 0.067167 1.006066 0.010305
v 0.021936 1.047752 -0.013499
v 0.054010 0.330073 0.048942
v 0.039185 -0.014779 0.047860
v 0.057049 -0.019652 0.030997
v 0.040184 0.003043 0.022184
v 0.051573 0.348758 0.029395
v 0.062511 0.339919 0.040926
v -0.079487 0.610948 0.145744
v -0.101684 0.734698 0.143072
v -0.075699 0.560525 0.125841
v -0.042091 0.300068 0.104763
v -0.014260 -0.005933 0.061946
v 0.002388 -0.006084 0.046797
v -0.046306 0.318673 0.089546
v -0.054971 0.560995 0.127468
v -0.035616 0.310733 0.099025
v -0.015255 0.013061 0.041255
v -0.066749 0.323750 0.087021
v -0.070254 0.321280 0.094114
v -0.061682 0.442092 0.125288
v -0.066868 0.591271 0.151108
v -0.073804 0.600595 0.152451
v -0.100694 0.731708 0.161234
v -0.086268 0.754605 0.155809
v -0.092731 0.946354 0.178530
v -0.117349 0.896323 0.202697
v -0.155051 0.873188 0.194834
v -0.166802 0.877358 0.173653
v -0.161945 0.885117 0.151126
v -0.128976 0.908600 0.145839
v 0.007422 0.230355 -0.064416
v 0.018338 0.006731 -0.052650
v 0.003273 0.010005 -0.048247
v 0.014444 0.236550 -0.067244
v 0.021923 0.415132 -0.083530
v 0.004889 0.333081 -0.073572
v 0.007045 0.447846 -0.078090
v 0.010822 0.440801 -0.075739
v -0.005079 0.244983 -0.082250
v 0.011952 0.454884 -0.093906
v 0.006541 0.454327 -0.085254
v 0.017225 0.556348 -0.098202
v 0.007571 0.559037 -0.114453
v -0.000482 0.245444 -0.085925
v 0.002554 0.529448 -0.095407
v -0.003788 0.712243 -0.103331
v 0.000355 0.669268 -0.140181
v 0.011516 0.645803 -0.160317
v 0.044650 0.648596 -0.118045
v 0.026456 0.670413 -0.109849
v 0.010837 0.020131 -0.063772
v 0.011279 0.241206 -0.077435
vn -0.7822 -0.1696 -0.5995
vn -0.4568 -0.2288 -0.8597
vn -0.7529 -0.0978 -0.6509
vn -0.5161 -0.1702 0.8394
vn -0.2814 -0.1352 0.9500
vn -0.2356 -0.1283 0.9634
vn 0.9597 0.2287 -0.1633
vn 0.8729 0.2028 -0.4437
vn 0.9623 0.1578 0.2216
vn 0.2030 -0.5687 -0.7971
vn 0.9740 0.2207 -0.0501
vn 0.9717 0.2211 -0.0834
vn 0.8905 0.2292 -0.3930
vn -0.4560 -0.1003 -0.8843
vn -0.1160 -0.0000 -0.9932
vn -0.1085 0.0001 -0.9941
vn -0.2079 -0.1201 0.9708
vn -0.8334 -0.2390 0.4983
vn -0.8334 -0.2391 0.4983
vn -0.4882 -0.2245 -0.8434
vn -0.6827 -0.2466 0.6879
vn -0.6394 -0.1471 0.7546
vn -0.7101 -0.1037 0.6964
vn -0.1438 0.1175 -0.9826
vn 0.0708 -0.1078 0.9916
vn -0.4614 -0.1000 -0.8816
vn -0.7417 -0.1131 0.6611
vn -0.8246 -0.1985 -0.5298
vn 0.2314 0.0293 0.9724
vn 0.2072 0.0020 0.9783
vn -0.9794 -0.1996 -0.0290
vn -0.9053 -0.1666 0.3909
vn 0.8571 0.2017 -0.4741
vn 0.9763 0.2075 -0.0615
vn 0.8729 0.2028 -0.4438
vn 0.9863 0.1643 0.0116
vn 0.8907 0.2242 -0.3955
vn -0.1268 -0.1420 0.9817
vn -0.4882 -0.2246 -0.8434
vn -0.7632 -0.3916 -0.5140
vn -0.5432 -0.3579 -0.7595
vn 0.7364 0.0750 -0.6724
vn 0.9892 0.1391 0.0466
vn -0.7045 -0.3012 0.6426
vn -0.7046 -0.3013 0.6424
vn -0.6828 -0.2467 0.6877
vn -0.3384 -0.3124 -0.8876
vn -0.3386 -0.3124 -0.8876
vn 0.8427 0.1022 -0.5286
vn 0.7446 0.0735 -0.6635
vn 0.8017 0.0561 -0.5951
vn 0.9506 -0.1103 -0.2901
vn 0.9382 -0.1616 -0.3061
vn -0.0975 0.3208 -0.9421
vn -0.9681 0.0811 -0.2371
vn -0.9908 0.1165 -0.0693
vn -0.2332 0.2456 -0.9409
vn -0.2333 0.2456 -0.9409
vn -0.6607 0.2814 -0.6959
vn -0.3937 0.3439 -0.8525
vn -0.4433 0.3487 -0.8258
vn -0.9917 0.1264 -0.0227
vn -0.7581 0.2026 -0.6198
vn 0.1682 -0.2820 0.9445
vn -0.1228 -0.2452 0.9617
vn 0.1189 -0.2554 0.9595
vn -0.5000 -0.2281 0.8354
vn -0.8635 0.1834 -0.4699
vn -0.6537 0.2428 -0.7167
vn 0.1683 -0.2820 0.9445
vn -0.2756 -0.2463 0.9292
vn -0.4744 -0.3015 0.8271
vn 0.2023 -0.2859 0.9367
vn 0.1180 -0.2689 0.9559
vn 0.9853 -0.0401 0.1658
vn 0.9724 -0.0727 -0.2217
vn 0.9781 -0.1598 0.1331
vn 0.9750 -0.1642 0.1499
vn -0.2072 -0.2375 0.9490
vn 0.9707 -0.0740 -0.2285
vn 0.6496 -0.7548 0.0916
vn 0.6495 -0.7548 0.0915
vn -0.2384 -0.2301 0.9435
vn -0.8507 0.1841 -0.4923
vn -0.8225 0.1996 -0.5326
vn 0.3144 0.2312 -0.9207
vn -0.8678 0.1393 -0.4769
vn -0.5312 -0.3253 0.7823
vn -0.9607 0.1176 -0.2514
vn 0.3465 -0.4403 0.8283
vn 0.9423 -0.2221 -0.2503
vn 0.9424 -0.2222 -0.2501
vn 0.9382 -0.1616 -0.3062
vn 0.8855 -0.1625 -0.4353
vn 0.8314 -0.1113 -0.5444
vn -0.7911 0.1437 -0.5946
vn 0.6326 -0.1419 0.7614
vn 0.3593 -0.2592 0.8965
vn 0.6140 -0.1499 0.7750
vn 0.5762 -0.1731 0.7988
vn -0.2313 -0.3620 0.9030
vn 0.8208 -0.0628 0.5678
vn -0.9387 -0.2828 -0.1973
vn -0.9119 -0.3776 0.1611
vn -0.0965 -0.4084 0.9077
vn -0.0965 -0.4085 0.9077
vn 0.8776 0.0708 0.4742
vn -0.5934 -0.4163 0.6889
vn -0.8785 -0.4568 -0.1395
vn -0.9456 -0.2924 -0.1426
vn 0.2358 0.4105 -0.8809
vn 0.2504 0.4098 -0.8771
vn 0.5594 0.2982 -0.7734
vn 0.5627 0.2436 -0.7899
vn -0.9337 -0.3138 -0.1725
vn -0.8630 0.0471 -0.5030
vn 0.2126 0.4082 -0.8878
vn 0.5563 -0.1884 0.8094
vn 0.2324 -0.2051 0.9508
vn 0.5243 -0.1815 0.8320
vn 0.1241 -0.2197 0.9676
vn 0.1088 -0.2281 0.9675
vn -0.9356 -0.3454 0.0739
vn -0.9161 -0.3536 0.1889
vn -0.9343 -0.3162 -0.1647
vn 0.5627 0.2435 -0.7900
vn 0.5448 0.1493 -0.8251
vn 0.5449 0.1493 -0.8251
vn 0.5245 -0.1814 0.8319
vn 0.7414 -0.0788 0.6665
vn 0.6132 -0.1576 0.7740
vn 0.5564 -0.1883 0.8093
vn -0.9439 -0.2283 -0.2387
vn -0.8346 -0.0629 -0.5473
vn -0.8252 -0.0552 -0.5622
vn 0.5000 0.4405 -0.7457
vn 0.2100 0.4165 -0.8846
vn 0.4315 0.4308 -0.7926
vn 0.2359 0.4105 -0.8808
vn 0.7437 0.3751 -0.5533
vn 0.5226 0.4421 -0.7290
vn -0.9439 -0.2288 -0.2383
vn -0.3912 -0.5336 -0.7498
vn 0.8855 0.1028 0.4531
vn 0.0555 0.0158 -0.9983
vn 0.0633 0.0079 -0.9980
vn 0.1497 -0.0000 -0.9887
vn 0.3485 -0.0868 -0.9333
vn 0.3113 -0.0553 -0.9487
vn -0.9522 0.0394 0.3030
vn -0.8967 -0.0238 0.4420
vn -0.9248 -0.0313 0.3792
vn -0.9944 -0.1024 0.0251
vn -0.5542 0.0157 0.8322
vn -0.1574 0.0550 0.9860
vn -0.9016 0.0943 -0.4222
vn -0.9015 0.0944 -0.4223
vn -0.9016 0.0944 -0.4222
vn -0.0321 -0.0314 0.9990
vn 0.3567 -0.0316 0.9337
vn 0.1618 0.0786 0.9837
vn 0.8659 -0.0629 0.4962
vn -0.9934 -0.1100 0.0327
vn -0.9847 -0.1732 0.0184
vn 0.8702 0.0474 0.4903
vn 0.2538 -0.1257 0.9591
vn 0.1410 -0.2277 0.9635
vn -0.9272 -0.1734 0.3321
vn 0.1408 -0.2279 0.9635
vn 0.2534 -0.1259 0.9591
vn 0.9022 -0.1814 0.3913
vn 0.9022 -0.1813 0.3914
vn 0.4078 -0.1104 -0.9064
vn 0.4882 -0.1022 -0.8667
vn 0.3706 -0.1183 -0.9212
vn -0.9802 -0.1654 -0.1086
vn 0.9771 0.0236 0.2117
vn 0.8806 -0.0788 0.4672
vn 0.4311 -0.0159 0.9022
vn 0.6461 -0.0313 0.7626
vn 0.6836 -0.0315 0.7292
vn -0.6165 -0.6373 -0.4624
vn -0.6164 -0.6373 -0.4625
vn -0.9972 -0.0395 -0.0633
vn -0.9053 -0.0236 -0.4241
vn -0.9967 -0.0395 -0.0711
vn 0.4600 -0.0000 -0.8879
vn 0.3834 0.0211 -0.9234
vn 0.4820 -0.0000 -0.8762
vn 0.1616 0.0077 -0.9868
vn -0.8988 -0.0235 -0.4378
vn 0.0636 0.0079 -0.9979
vn 0.7050 -0.0464 -0.7077
vn 0.7027 -0.0294 0.7109
vn -0.9238 -0.1942 0.3300
vn -0.9552 -0.2850 -0.0798
vn -0.9538 -0.1278 0.2720
vn 0.4173 -0.0836 0.9049
vn 0.6378 -0.0469 0.7688
vn 0.6741 -0.0403 0.7376
vn 0.3873 0.1841 -0.9034
vn 0.1078 0.1378 -0.9846
vn 0.7114 0.1454 -0.6875
vn -0.5184 -0.6390 -0.5682
vn 0.4895 0.1851 -0.8521
vn 0.4605 0.1828 -0.8686
vn 0.1582 0.1677 -0.9731
vn -0.9819 -0.1590 -0.1033
vn -0.8880 -0.0789 -0.4530
vn -0.8845 -0.0791 -0.4598
vn 0.6952 -0.0325 0.7181
vn -0.0387 -0.1706 0.9846
vn -0.9594 -0.2784 -0.0450
vn 0.2028 -0.1671 0.9649
vn 0.2771 -0.0638 0.9587
vn 0.1873 -0.0232 0.9820
vn -0.9007 0.0399 -0.4325
vn 0.8671 -0.0273 0.4975
vn -0.9826 -0.1584 -0.0974
vn 0.1408 -0.0345 0.9894
vn -0.8881 -0.2158 0.4058
vn 0.9335 0.1027 0.3436
vn 0.9263 0.0768 0.3690
vn -0.5592 -0.1705 0.8113
vn -0.1715 -0.1050 0.9796
vn 0.0738 0.1346 -0.9881
vn 0.4820 0.1710 -0.8594
vn 0.1077 0.1378 -0.9846
vn 0.5504 0.1336 -0.8241
vn 0.1566 0.1625 -0.9742
vn 0.7506 -0.0559 0.6584
vn -0.9594 -0.2785 -0.0450
vn -0.8309 -0.4088 0.3775
vn -0.9137 -0.4025 0.0566
vn -0.1512 -0.0043 -0.9885
vn 0.5823 0.1114 -0.8053
vn 0.1559 -0.2246 0.9619
vn 0.1558 -0.2247 0.9619
vn 0.2027 -0.1672 0.9649
vn 0.1558 -0.2246 0.9619
vn -0.9082 -0.3742 -0.1874
vn -0.9082 -0.3743 -0.1873
vn 0.3170 0.0640 0.9463
vn -0.0054 0.0762 0.9971
vn 0.2939 0.0667 0.9535
vn 0.2455 0.0644 0.9673
vn -0.5740 0.1141 0.8109
vn 0.5652 0.0114 0.8248
vn -0.8897 -0.1331 -0.4368
vn -0.9939 -0.0700 -0.0857
vn -0.4701 0.0465 0.8814
vn -0.4700 0.0465 0.8814
vn 0.6875 0.0771 0.7221
vn -0.8615 0.0523 0.5051
vn -0.9112 -0.2745 -0.3072
vn -0.9138 -0.1169 -0.3890
vn 0.5889 -0.0630 -0.8057
vn 0.6009 -0.0651 -0.7967
vn 0.8126 -0.1850 -0.5528
vn 0.8011 -0.2407 -0.5480
vn -0.9025 -0.1510 -0.4034
vn -0.6259 0.0113 -0.7798
vn -0.6260 0.0113 -0.7798
vn 0.5692 -0.0629 -0.8198
vn 0.2195 0.0597 0.9738
vn -0.1153 0.1739 0.9780
vn 0.1871 0.0821 0.9789
vn -0.2223 0.1912 0.9561
vn -0.2389 0.1871 0.9528
vn -0.9808 -0.0737 -0.1806
vn -0.9968 -0.0362 -0.0710
vn -0.9060 -0.1496 -0.3961
vn 0.8010 -0.2408 -0.5480
vn 0.7618 -0.3348 -0.5546
vn 0.1873 0.0821 0.9789
vn 0.4620 0.0561 0.8851
vn 0.2908 0.0597 0.9549
vn 0.2196 0.0597 0.9738
vn -0.8644 -0.1016 -0.4924
vn -0.6267 -0.1104 -0.7714
vn -0.6116 -0.1119 -0.7833
vn 0.8009 -0.0353 -0.5977
vn 0.5688 -0.0538 -0.8207
vn 0.7485 -0.0492 -0.6613
vn 0.5891 -0.0630 -0.8056
vn 0.9463 -0.0629 -0.3170
vn 0.8174 -0.0316 -0.5752
vn -0.8647 -0.1019 -0.4918
vn -0.3366 -0.7048 -0.6244
vn 0.7114 0.0946 0.6964
vt 0.961914 0.053711
vt 0.946289 0.178711
vt 0.946289 0.000977
vt 0.126221 0.772217
vt 0.104248 0.461426
vt 0.126221 0.456055
vt 0.872070 0.271973
vt 0.848633 0.517334
vt 0.857910 0.263672
vt 0.364746 0.238770
vt 0.364746 0.212402
vt 0.385986 0.220215
vt 0.341553 0.786621
vt 0.327393 0.778442
vt 0.341553 0.454102
vt 0.593262 0.421875
vt 0.584961 0.741455
vt 0.565430 0.732910
vt 0.593262 0.740967
vt 0.317139 0.769287
vt 0.075500 0.581055
vt 0.075500 0.733154
vt 0.068848 0.742920
vt 0.914551 0.935486
vt 0.896484 0.938995
vt 0.896484 0.812744
vt 0.122375 0.939240
vt 0.104248 0.918274
vt 0.122375 0.774048
vt 0.596191 0.247559
vt 0.595703 0.006348
vt 0.604004 0.005371
vt 0.442627 0.475098
vt 0.425781 0.786621
vt 0.425781 0.454102
vt 0.848633 0.253906
vt 0.023529 0.456055
vt 0.023529 0.791016
vt 0.000901 0.473145
vt 0.996094 0.664551
vt 0.991699 0.530029
vt 0.996094 0.519043
vt 0.983887 0.541016
vt 0.593262 0.942230
vt 0.573242 0.778198
vt 0.593262 0.743164
vt 0.063110 0.456055
vt 0.050476 0.698242
vt 0.058838 0.752075
vt 0.552246 0.711914
vt 0.552734 0.889526
vt 0.531250 0.709473
vt 0.531250 0.908447
vt 0.674805 0.534668
vt 0.666016 0.705322
vt 0.674805 0.254883
vt 0.643066 0.583496
vt 0.174316 0.456055
vt 0.174316 0.719482
vt 0.159302 0.600830
vt 0.151367 0.752686
vt 0.575195 0.247559
vt 0.575195 0.000977
vt 0.291992 0.300293
vt 0.412598 0.452637
vt 0.352539 0.440918
vt 0.265381 0.292480
vt 0.307373 0.442383
vt 0.284668 0.452637
vt 0.294189 0.271973
vt 0.436035 0.352051
vt 0.424316 0.391602
vt 0.301025 0.254883
vt 0.444092 0.329102
vt 0.771484 0.867310
vt 0.788086 0.907288
vt 0.779297 0.915649
vt 0.981934 0.566162
vt 0.968262 0.671387
vt 0.968262 0.519043
vt 0.988770 0.423828
vt 0.972168 0.412109
vt 0.988770 0.307129
vt 0.263672 0.591797
vt 0.252441 0.476074
vt 0.259521 0.465820
vt 0.803223 0.779297
vt 0.816406 0.886047
vt 0.795898 0.916138
vt 0.793945 0.761475
vt 0.793945 0.898560
vt 0.263672 0.456055
vt 0.389893 0.939880
vt 0.371826 0.792114
vt 0.389893 0.760376
vt 0.492188 0.945251
vt 0.474854 0.930908
vt 0.492188 0.796387
vt 0.669434 0.223145
vt 0.664551 0.000977
vt 0.683105 0.005371
vt 0.765137 0.017578
vt 0.743652 0.238281
vt 0.752441 0.010254
vt 0.743652 0.000977
vt 0.816406 0.648926
vt 0.605957 0.757690
vt 0.625000 0.912354
vt 0.605957 0.937134
vt 0.687988 0.223145
vt 0.624512 0.760132
vt 0.690430 0.004395
vt 0.102417 0.456055
vt 0.102417 0.743408
vt 0.094971 0.743896
vt 0.077332 0.736328
vt 0.759277 0.612061
vt 0.759277 0.913818
vt 0.738770 0.627197
vt 0.416504 0.220703
vt 0.438965 0.212402
vt 0.438965 0.232422
vt 0.952148 0.213867
vt 0.936523 0.494629
vt 0.936523 0.194824
vt 0.237183 0.748535
vt 0.227905 0.739990
vt 0.250000 0.456055
vt 0.916992 0.512451
vt 0.897461 0.232422
vt 0.916992 0.227539
vt 0.250000 0.755737
vt 0.736816 0.506836
vt 0.729004 0.660645
vt 0.736816 0.254883
vt 0.708496 0.551025
vt 0.782715 0.648926
vt 0.480957 0.199219
vt 0.567383 0.070312
vt 0.573242 0.091797
vt 0.402832 0.065918
vt 0.544434 0.032227
vt 0.569824 0.049805
vt 0.409180 0.031250
vt 0.406250 0.000977
vt 0.412109 0.100098
vt 0.417480 0.130371
vt 0.412109 0.199219
vt 0.882812 0.510254
vt 0.874023 0.502197
vt 0.895508 0.227539
vt 0.935547 0.794434
vt 0.916504 0.523682
vt 0.935547 0.519043
vt 0.799316 0.498535
vt 0.791504 0.647217
vt 0.799316 0.254883
vt 0.797852 0.009766
vt 0.789551 0.229980
vt 0.789551 0.000977
vt 0.728516 0.662354
vt 0.728516 0.891174
vt 0.715332 0.788330
vt 0.821289 0.778198
vt 0.838379 0.627197
vt 0.841309 0.768311
vt 0.846680 0.759521
vt 0.708496 0.920715
vt 0.771484 0.541016
vt 0.821289 0.519043
vt 0.473145 0.793701
vt 0.473145 0.886963
vt 0.460693 0.795532
vt 0.833984 0.777710
vt 0.953613 0.769409
vt 0.966797 0.819702
vt 0.953613 0.943878
vt 0.843750 0.779907
vt 0.843750 0.910461
vt 0.821289 0.902893
vt 0.453125 0.925781
vt 0.840332 0.517334
vt 0.839355 0.259277
vt 0.846680 0.258301
vt 0.821289 0.469238
vt 0.230469 0.210449
vt 0.401123 0.063965
vt 0.389160 0.099609
vt 0.887695 0.948822
vt 0.871094 0.914795
vt 0.887695 0.804077
vt 0.262939 0.705566
vt 0.259033 0.603027
vt 0.262939 0.593506
vt 0.252441 0.612793
vt 0.238159 0.141113
vt 0.357910 0.069824
vt 0.241333 0.101074
vt 0.244019 0.034668
vt 0.364014 0.047363
vt 0.230469 0.000977
vt 0.294189 0.204590
vt 0.226196 0.456055
vt 0.226196 0.733887
vt 0.218872 0.734375
vt 0.201904 0.727051
vt 0.821289 0.254883
vt 0.810547 0.017090
vt 0.895508 0.517334
vt 0.952148 0.537109
vt 0.937012 0.808838
vt 0.937012 0.519043
vt 0.914551 0.519043
vt 0.914551 0.810913
vt 0.895020 0.533936
vt 0.458252 0.236816
vt 0.440674 0.221191
vt 0.458252 0.212402
vt 0.361328 0.935364
vt 0.343506 0.791626
vt 0.361328 0.760864
vt 0.553711 0.696289
vt 0.531250 0.707764
vt 0.554199 0.428223
vt 0.834473 0.000977
vt 0.834473 0.214844
vt 0.812012 0.012207
vt 0.836426 0.000977
vt 0.858398 0.195312
vt 0.836426 0.214844
vt 0.501953 0.691406
vt 0.522461 0.740967
vt 0.511230 0.751343
vt 0.263428 0.815918
vt 0.246826 0.952942
vt 0.246826 0.757568
vt 0.515625 0.421875
vt 0.529785 0.561035
vt 0.563477 0.426758
vt 0.529785 0.730225
vt 0.952148 0.974564
vt 0.946777 0.822632
vt 0.952148 0.810669
vt 0.937988 0.835083
vt 0.935059 0.936523
vt 0.916504 0.933105
vt 0.935059 0.796265
vt 0.228760 0.208008
vt 0.209839 0.019043
vt 0.228760 0.021484
vt 0.200073 0.754272
vt 0.177002 0.903442
vt 0.194946 0.740479
vt 0.200073 0.918640
vt 0.181885 0.027832
vt 0.037079 0.088379
vt 0.175781 0.000977
vt 0.000901 0.064941
vt 0.065308 0.128418
vt 0.105713 0.161133
vt 0.138794 0.196289
vt 0.173096 0.252930
vt 0.244995 0.961365
vt 0.227905 0.797852
vt 0.244995 0.757568
vt 0.291748 0.615723
vt 0.315430 0.758179
vt 0.297852 0.798340
vt 0.291748 0.785034
vt 0.641113 0.566162
vt 0.631348 0.755859
vt 0.641113 0.254883
vt 0.299561 0.454102
vt 0.605957 0.620605
vt 0.289795 0.805786
vt 0.265381 0.459961
vt 0.289795 0.454102
vt 0.363037 0.235840
vt 0.333252 0.235840
vt 0.342041 0.212402
vt 0.500000 0.421875
vt 0.500000 0.794556
vt 0.474854 0.440918
vt 0.819824 0.277832
vt 0.800781 0.624756
vt 0.800781 0.254883
vt 0.769531 0.254883
vt 0.760254 0.610352
vt 0.738770 0.600830
vt 0.769531 0.609619
vt 0.398438 0.474121
vt 0.371826 0.758667
vt 0.382568 0.465332
vt 0.473145 0.791992
vt 0.457275 0.782837
vt 0.473145 0.421875
vt 0.531250 0.421875
vt 0.371826 0.454102
vt 0.445801 0.772583
s 1
usemtl M_FlowerBase
f 1/1/1 2/2/2 3/3/3
f 4/4/4 5/5/5 6/6/6
f 7/7/7 8/8/8 9/9/9
f 10/10/10 6/11/10 5/12/10
f 7/13/7 9/14/9 6/15/11
f 10/16/12 11/17/13 7/18/7
f 10/16/14 12/19/15 11/17/16
f 9/14/17 4/20/4 6/15/6
f 13/21/18 14/22/19 15/23/19
f 16/24/20 2/25/2 1/26/1
f 17/27/21 16/28/22 14/29/23
f 3/30/24 11/31/24 12/32/24
f 10/33/12 7/34/7 6/35/11
f 9/9/17 8/8/25 4/36/4
f 5/37/26 12/38/15 10/39/14
f 16/40/22 15/41/27 14/42/23
f 16/40/20 1/43/1 15/41/28
f 17/44/29 14/45/30 8/46/25
f 12/47/31 13/21/32 3/48/3
f 3/48/3 13/21/32 15/23/28
f 3/48/3 15/23/28 1/49/1
f 3/50/33 2/51/34 8/52/35
f 8/52/35 2/51/34 17/53/36
f 4/54/4 13/55/32 5/56/5
f 13/55/32 12/57/31 5/56/5
f 4/58/4 8/59/25 13/60/32
f 13/60/32 8/59/25 14/61/30
f 3/30/33 8/62/35 11/31/37
f 8/62/8 7/63/7 11/31/13
f 25/75/49 28/76/50 24/77/51
f 24/78/51 26/79/52 25/80/49
f 27/81/53 26/82/52 24/83/51
f 27/84/53 24/85/51 28/86/50
f 30/87/54 32/88/55 29/89/56
f 30/90/57 29/91/57 28/76/58
f 27/84/59 28/86/60 29/92/61
f 31/93/62 29/94/56 32/95/55
f 31/96/63 27/97/59 29/98/61
f 32/99/64 33/100/65 36/101/66
f 33/102/65 32/103/64 34/104/67
f 34/104/68 32/103/55 35/105/69
f 35/106/69 32/88/55 30/87/54
f 32/107/70 26/108/71 31/109/72
f 25/110/73 32/99/70 36/101/74
f 25/111/73 26/108/71 32/107/70
f 25/110/75 36/101/75 37/112/75
f 38/113/76 37/114/77 36/115/78
f 38/113/79 36/115/66 33/116/65
f 39/117/80 37/118/77 38/119/76
f 38/120/81 40/121/82 39/122/82
f 38/123/79 33/124/65 40/125/83
f 34/126/68 35/127/69 40/128/84
f 35/129/69 39/130/85 40/131/84
f 33/132/65 34/126/67 40/128/83
f 35/133/69 30/134/54 39/135/85
f 30/134/54 37/136/86 39/135/85
f 37/137/86 30/90/54 25/75/49
f 25/75/49 30/90/54 28/76/50
f 50/149/97 47/150/98 48/151/99
f 47/152/98 49/153/100 48/154/99
f 47/155/98 52/156/101 49/157/100
f 50/158/97 51/159/102 47/160/98
f 47/161/98 51/162/102 52/163/101
f 56/164/103 52/165/101 53/166/104
f 52/165/105 54/167/105 53/166/106
f 52/163/101 51/162/102 54/168/107
f 52/156/101 55/169/108 49/157/100
f 55/170/108 52/165/101 56/164/103
f 57/171/109 61/172/110 56/173/103
f 56/164/103 53/166/104 57/174/109
f 51/175/111 56/176/112 58/177/113
f 56/178/112 59/179/114 58/180/113
f 61/172/110 59/181/115 56/173/103
f 56/182/116 60/183/116 55/184/116
f 56/182/112 51/185/111 60/183/117
f 58/189/120 61/190/119 54/191/121
f 61/192/119 53/193/122 54/194/121
f 61/192/110 57/195/109 53/193/104
f 67/203/133 55/204/134 60/205/135
f 67/203/136 60/205/137 68/206/138
f 51/185/139 68/207/138 60/183/137
f 68/208/138 51/159/139 50/158/140
f 68/209/138 50/149/140 48/151/141
f 67/210/136 68/211/138 48/212/141
f 49/213/142 55/214/134 67/215/133
f 67/216/143 48/217/143 49/218/143
f 58/219/144 54/220/107 51/221/102
f 69/222/145 70/223/146 75/224/147
f 69/225/145 71/226/148 70/227/146
f 69/228/145 73/229/149 71/230/148
f 69/231/150 77/232/151 72/233/152
f 72/234/152 73/235/153 69/236/150
f 74/237/154 76/238/155 69/231/150
f 69/222/156 75/224/157 74/239/158
f 69/231/150 76/238/155 77/232/151
f 76/238/159 78/240/159 77/232/159
f 79/241/160 77/242/161 78/243/162
f 79/241/163 72/244/152 77/242/151
f 79/245/163 73/246/153 72/247/152
f 80/251/165 79/252/160 78/253/162
f 80/251/165 71/254/166 79/252/160
f 71/263/177 80/264/165 70/265/178
f 76/266/155 70/267/178 80/268/165
f 76/266/155 80/268/165 78/269/162
f 87/270/179 76/271/155 88/272/180
f 87/273/179 70/267/178 76/266/155
f 76/271/155 74/274/154 88/272/180
f 87/275/179 88/276/180 89/277/181
f 90/278/182 89/279/183 88/280/182
f 88/281/184 74/282/185 90/283/186
f 90/284/187 91/285/188 89/286/189
f 90/287/187 75/288/190 91/289/188
f 90/287/186 74/290/185 75/288/191
f 91/291/188 70/292/192 92/293/193
f 91/294/188 92/295/193 89/296/189
f 70/223/192 91/297/188 75/224/190
f 92/293/194 70/292/178 87/298/179
f 92/295/194 87/299/179 89/296/181
f 93/1/195 94/2/196 95/3/197
f 96/4/198 97/5/199 98/6/200
f 99/7/201 100/8/202 101/9/203
f 102/10/204 98/11/204 97/12/204
f 99/13/201 101/14/203 98/15/205
f 102/16/206 103/17/207 99/18/201
f 102/16/208 104/19/209 103/17/210
f 101/14/211 96/20/198 98/15/200
f 105/21/212 106/22/212 107/23/212
f 108/24/213 94/25/196 93/26/195
f 109/27/214 108/28/215 106/29/216
f 95/30/217 103/31/217 104/32/217
f 102/33/206 99/34/201 98/35/205
f 101/9/211 100/8/218 96/36/198
f 97/37/219 104/38/209 102/39/208
f 108/40/215 107/41/220 106/42/216
f 108/40/213 93/43/195 107/41/221
f 109/44/222 106/45/223 100/46/218
f 104/47/224 105/21/225 95/48/197
f 95/48/197 105/21/225 107/23/221
f 95/48/197 107/23/221 93/49/195
f 95/50/226 94/51/227 100/52/228
f 100/52/228 94/51/227 109/53/229
f 96/54/198 105/55/225 97/56/199
f 105/55/225 104/57/224 97/56/199
f 96/58/198 100/59/218 105/60/225
f 105/60/225 100/59/218 106/61/223
f 95/30/226 100/62/228 103/31/230
f 100/62/202 99/63/201 103/31/207
f 119/149/243 116/150/244 117/151/245
f 116/152/244 118/153/246 117/154/245
f 116/155/244 121/156/247 118/157/246
f 119/158/243 120/159/248 116/160/244
f 116/161/244 120/162/248 121/163/247
f 125/164/249 121/165/247 122/166/250
f 121/165/251 123/167/251 122/166/252
f 121/163/247 120/162/248 123/168/253
f 121/156/247 124/169/254 118/157/246
f 124/170/254 121/165/247 125/164/249
f 126/171/255 130/172/256 125/173/249
f 125/164/249 122/166/250 126/174/255
f 120/175/257 125/176/258 127/177/259
f 125/178/258 128/179/260 127/180/259
f 130/172/256 128/181/261 125/173/249
f 125/182/262 129/183/262 124/184/263
f 125/182/258 120/185/257 129/183/264
f 127/189/267 130/190/266 123/191/268
f 130/192/266 122/193/269 123/194/268
f 130/192/256 126/195/255 122/193/250
f 136/203/279 124/204/280 129/205/281
f 136/203/282 129/205/283 137/206/284
f 120/185/285 137/207/284 129/183/283
f 137/208/284 120/159/285 119/158/286
f 137/209/284 119/149/286 117/151/287
f 136/210/282 137/211/284 117/212/287
f 118/213/288 124/214/280 136/215/279
f 136/216/289 117/217/289 118/218/289
f 127/219/290 123/220/253 120/221/248
usemtl M_FlowerColor
f 17/64/38 18/65/38 19/66/38
f 16/67/39 20/68/40 21/69/41
f 2/70/42 22/71/42 23/72/42
f 23/72/43 17/64/36 2/70/34
f 17/64/36 23/72/43 18/65/43
f 17/64/21 20/68/44 16/67/22
f 20/68/45 17/64/46 19/66/45
f 22/71/47 16/73/39 21/74/41
f 16/73/20 22/71/48 2/70/2
f 41/138/87 27/139/59 31/140/63
f 43/141/88 31/142/72 26/143/71
f 31/142/63 42/144/89 41/145/87
f 31/142/72 43/141/88 42/144/88
f 26/143/90 44/146/90 43/141/90
f 27/139/53 44/146/91 26/143/52
f 44/146/92 27/139/93 45/147/94
f 27/139/93 46/148/95 45/147/94
f 46/148/96 27/139/59 41/138/87
f 62/186/118 61/187/119 58/188/120
f 61/187/110 63/196/123 59/197/115
f 61/187/110 62/186/124 63/196/123
f 59/197/115 63/196/123 64/198/125
f 59/197/126 64/198/127 65/199/127
f 65/199/128 58/200/113 59/197/114
f 58/200/129 65/199/130 66/201/131
f 62/186/132 58/188/129 66/202/131
f 81/248/164 73/249/153 79/250/163
f 71/255/166 82/256/167 79/257/160
f 79/257/163 82/256/168 81/258/164
f 82/256/169 71/255/170 83/259/169
f 71/255/171 84/260/172 83/259/172
f 71/255/148 85/261/173 84/260/174
f 73/249/149 85/261/173 71/255/148
f 73/249/149 86/262/175 85/261/173
f 86/262/176 73/249/153 81/248/164
f 109/64/231 110/65/231 111/66/231
f 108/67/232 112/68/233 113/69/234
f 94/70/235 114/71/235 115/72/235
f 115/72/236 109/64/229 94/70/227
f 109/64/229 115/72/236 110/65/236
f 109/64/214 112/68/237 108/67/215
f 112/68/238 109/64/239 111/66/240
f 114/71/241 108/73/232 113/74/234
f 108/73/213 114/71/242 94/70/196
f 131/186/265 130/187/266 127/188/267
f 130/187/256 132/196/270 128/197/261
f 130/187/256 131/186/271 132/196/270
f 128/197/261 132/196/270 133/198/272
f 128/197/273 133/198/274 134/199/274
f 134/199/274 127/200/259 128/197/260
f 127/200/275 134/199/276 135/201/277
f 131/186/278 127/188/275 135/202/277
